<svg width="95" height="118" viewBox="0 0 95 118" fill="none" xmlns="http://www.w3.org/2000/svg">
<path d="M63.8694 95.9036C59.7147 97.0747 55.3092 97.716 50.7921 97.716C24.3865 97.716 3 76.3295 3 49.9239C3 28.147 17.583 9.74398 37.5196 4L63.8694 95.9036Z" stroke="#FFCF2D" stroke-width="6" stroke-miterlimit="10"/>
<path d="M50.7921 97.716V114.753" stroke="#FFCF2D" stroke-width="6" stroke-miterlimit="10"/>
<path d="M50.7921 90.4106C73.1522 90.4106 91.2787 72.2841 91.2787 49.9239C91.2787 27.5637 73.1522 9.43726 50.7921 9.43726C28.4319 9.43726 10.3054 27.5637 10.3054 49.9239C10.3054 72.2841 28.4319 90.4106 50.7921 90.4106Z" fill="white" stroke="#3FB1B5" stroke-width="6" stroke-miterlimit="10"/>
<path d="M67.7173 114.641H34.0063L50.7363 106.248L67.7173 114.641Z" fill="white" stroke="#FFCF2D" stroke-width="6" stroke-miterlimit="10"/>
<path d="M41.5902 76.4968L48.1427 90.2991C56.5078 91.4144 65.1981 87.7896 68.4976 85.8377L70.7283 79.564L63.4786 70.5019L46.0515 69.6654L41.5902 76.4968Z" fill="#3FB1B5"/>
<path d="M40.7537 62.5551L44.5179 63.531L49.6763 62.5551L50.7917 57.3967V53.0747H54.1377L56.0895 56.0025L55.253 66.4588H57.7625L59.4355 56.0025L57.7625 50.5652L63.4786 47.4981L65.8487 53.0747L74.0743 50.5652V42.3396L86.6218 66.4588C91.1296 59.1626 96.7992 40.9176 83.4152 26.3067L79.0933 21.5665H57.7625L41.5902 25.4702V34.8111L46.0515 32.7199L59.4355 28.8162L56.0895 39.5513L46.0515 44.5703L48.1427 53.0747L46.0515 56.0025L40.7537 57.3967V62.5551Z" fill="#3FB1B5"/>
<path d="M37.5466 33.6958L31.2729 14.7351C-9.10226 43.6223 14.4499 73.9873 31.2729 85.5589V69.9442L18.0283 60.3244L13.2881 47.0798L18.0283 38.0177L26.1144 43.3156L37.5466 33.6958Z" fill="#3FB1B5"/>
</svg>
