<svg width="627" height="440" viewBox="0 0 627 440" fill="none" xmlns="http://www.w3.org/2000/svg">
<path d="M548.5 376.64H78.5004L162.869 326.693H465.422L548.5 376.64Z" fill="#D0F0E4"/>
<path d="M347.972 132.465H263.415V83.4491C263.415 80.1302 266.099 77.4399 269.409 77.4399H341.978C345.289 77.4399 347.972 80.1302 347.972 83.4491V132.465V132.465Z" fill="white" stroke="#66B0F0" stroke-width="0.5" stroke-miterlimit="10"/>
<path d="M341.59 129.272H270.149C268.268 129.272 266.738 127.738 266.738 125.853V83.8389C266.738 81.9532 268.268 80.4194 270.149 80.4194H341.59C343.471 80.4194 345 81.9532 345 83.8389V125.865C345 127.751 343.471 129.272 341.59 129.272Z" fill="#66B0F0"/>
<path d="M362.794 143.968C366.03 146.08 365.277 150.216 361.453 150.216H246.26C243.037 150.216 241.934 145.854 245.094 143.855L362.794 143.968Z" fill="#66B0F0" stroke="#66B0F0" stroke-width="0.5" stroke-miterlimit="10"/>
<path d="M361.453 147.337H246.261C244.204 147.337 243.389 144.911 245.094 143.855L263.44 132.465H347.734L362.782 143.968C364.287 145.112 363.409 147.337 361.453 147.337Z" fill="white" stroke="#66B0F0" stroke-width="0.5" stroke-miterlimit="10"/>
<path d="M348.161 143.905H259.553C257.973 143.905 257.346 142.032 258.65 141.227L271.391 132.465H337.602L349.176 141.315C350.343 142.195 349.665 143.905 348.161 143.905Z" fill="white" stroke="#66B0F0" stroke-width="0.5" stroke-miterlimit="10"/>
<path d="M331.871 132.465L343.458 143.905" stroke="#66B0F0" stroke-width="0.5" stroke-miterlimit="10"/>
<path d="M325.726 132.465L335.934 143.905" stroke="#66B0F0" stroke-width="0.5" stroke-miterlimit="10"/>
<path d="M319.983 132.465L328.836 143.905" stroke="#66B0F0" stroke-width="0.5" stroke-miterlimit="10"/>
<path d="M313.563 132.465L321.049 143.905" stroke="#66B0F0" stroke-width="0.5" stroke-miterlimit="10"/>
<path d="M308.233 132.465L311.882 143.905" stroke="#66B0F0" stroke-width="0.5" stroke-miterlimit="10"/>
<path d="M276.77 132.465L265.183 143.905" stroke="#66B0F0" stroke-width="0.5" stroke-miterlimit="10"/>
<path d="M282.915 132.465L272.707 143.905" stroke="#66B0F0" stroke-width="0.5" stroke-miterlimit="10"/>
<path d="M288.658 132.465L279.805 143.905" stroke="#66B0F0" stroke-width="0.5" stroke-miterlimit="10"/>
<path d="M295.078 132.465L287.592 143.905" stroke="#66B0F0" stroke-width="0.5" stroke-miterlimit="10"/>
<path d="M300.408 132.465L296.759 143.905" stroke="#66B0F0" stroke-width="0.5" stroke-miterlimit="10"/>
<path d="M304.02 144.043V132.465" stroke="#66B0F0" stroke-width="0.5" stroke-miterlimit="10"/>
<path d="M265.183 136.739H343.207" stroke="#66B0F0" stroke-width="0.5" stroke-miterlimit="10"/>
<path d="M335.646 129.272H272.205L273.347 121.163C274.049 116.173 277.623 112.074 282.451 110.691L297.913 107.473H309.938L325.4 110.691C330.241 112.062 333.815 116.173 334.504 121.163L335.646 129.272Z" fill="#FFCF2D"/>
<path d="M308.208 116.738L303.631 112.1C303.53 111.999 303.53 111.836 303.631 111.748C303.731 111.647 303.894 111.647 303.982 111.748L308.183 116.009L314.703 108.605C314.791 108.504 314.954 108.492 315.054 108.58C315.155 108.668 315.167 108.831 315.08 108.932L308.208 116.738Z" fill="white"/>
<path d="M299.706 116.738L292.834 108.932C292.746 108.831 292.746 108.668 292.859 108.58C292.959 108.492 293.122 108.492 293.21 108.605L299.731 116.009L303.932 111.748C304.032 111.647 304.182 111.647 304.283 111.748C304.383 111.848 304.383 111.999 304.283 112.1L299.706 116.738Z" fill="white"/>
<path d="M304.032 119.768C303.43 119.768 302.941 119.278 302.941 118.674C302.941 118.071 303.43 117.581 304.032 117.581C304.634 117.581 305.123 118.071 305.123 118.674C305.123 119.278 304.634 119.768 304.032 119.768ZM304.032 118.083C303.706 118.083 303.443 118.347 303.443 118.674C303.443 119.001 303.706 119.265 304.032 119.265C304.358 119.265 304.621 119.001 304.621 118.674C304.621 118.347 304.358 118.083 304.032 118.083Z" fill="white"/>
<path d="M304.032 125.928C303.43 125.928 302.941 125.438 302.941 124.834C302.941 124.231 303.43 123.741 304.032 123.741C304.634 123.741 305.123 124.231 305.123 124.834C305.123 125.438 304.634 125.928 304.032 125.928ZM304.032 124.244C303.706 124.244 303.443 124.508 303.443 124.834C303.443 125.161 303.706 125.425 304.032 125.425C304.358 125.425 304.621 125.161 304.621 124.834C304.621 124.508 304.358 124.244 304.032 124.244Z" fill="white"/>
<path d="M297.837 129.008H277.347L271.88 112.74L292.37 106.857L297.837 129.008Z" fill="white" stroke="#66B0F0" stroke-width="0.5" stroke-miterlimit="10"/>
<path d="M278.413 114.853H278.024C277.034 114.853 276.231 114.048 276.231 113.055V107.41C276.231 107.008 276.557 106.681 276.959 106.681H278.651C279.053 106.681 279.379 107.008 279.379 107.41V113.872C279.391 114.413 278.952 114.853 278.413 114.853Z" fill="white"/>
<path d="M278.413 114.853H278.024C277.034 114.853 276.231 114.048 276.231 113.055V107.41C276.231 107.008 276.557 106.681 276.959 106.681H278.651C279.053 106.681 279.379 107.008 279.379 107.41V113.872C279.391 114.413 278.952 114.853 278.413 114.853Z" stroke="#66B0F0" stroke-width="0.5" stroke-miterlimit="10" stroke-linecap="round"/>
<path d="M286.665 114.853H287.053C288.044 114.853 288.846 114.048 288.846 113.055V107.41C288.846 107.008 288.52 106.681 288.119 106.681H286.414C286.012 106.681 285.686 107.008 285.686 107.41V113.872C285.686 114.413 286.125 114.853 286.665 114.853Z" fill="white"/>
<path d="M281.561 115.506H280.658C279.955 115.506 279.391 114.94 279.391 114.236V107.423C279.391 107.02 279.717 106.694 280.118 106.694H281.811C282.213 106.694 282.539 107.02 282.539 107.423V114.526C282.539 115.066 282.1 115.506 281.561 115.506Z" fill="white"/>
<path d="M284.721 115.758H283.969C283.179 115.758 282.539 115.117 282.539 114.325V107.41C282.539 107.008 282.865 106.681 283.266 106.681H284.959C285.361 106.681 285.687 107.008 285.687 107.41V114.777C285.687 115.318 285.248 115.758 284.721 115.758Z" fill="white"/>
<path d="M286.665 114.853H287.053C288.044 114.853 288.846 114.048 288.846 113.055V107.41C288.846 107.008 288.52 106.681 288.119 106.681H286.414C286.012 106.681 285.686 107.008 285.686 107.41V113.872C285.686 114.413 286.125 114.853 286.665 114.853Z" stroke="#66B0F0" stroke-width="0.5" stroke-miterlimit="10" stroke-linecap="round"/>
<path d="M281.561 115.506H280.658C279.955 115.506 279.391 114.94 279.391 114.236V107.423C279.391 107.02 279.717 106.694 280.118 106.694H281.811C282.213 106.694 282.539 107.02 282.539 107.423V114.526C282.539 115.066 282.1 115.506 281.561 115.506Z" stroke="#66B0F0" stroke-width="0.5" stroke-miterlimit="10" stroke-linecap="round"/>
<path d="M284.721 115.758H283.969C283.179 115.758 282.539 115.117 282.539 114.325V107.41C282.539 107.008 282.865 106.681 283.266 106.681H284.959C285.361 106.681 285.687 107.008 285.687 107.41V114.777C285.687 115.318 285.248 115.758 284.721 115.758Z" stroke="#66B0F0" stroke-width="0.5" stroke-miterlimit="10" stroke-linecap="round"/>
<path d="M309.951 100.081V109.258C309.951 110.842 307.255 112.137 303.932 112.137C300.609 112.137 297.912 110.842 297.912 109.258V100.081H309.951Z" fill="white"/>
<path d="M309.951 100.081C309.951 107.008 305.524 109.07 301.273 108.705C301.261 108.705 301.248 108.705 301.236 108.705C299.355 108.529 297.925 106.92 297.925 105.034V100.094H309.951V100.081Z" fill="#66B0F0"/>
<path d="M312.747 97.7178V98.183C312.747 99.2138 311.92 100.044 310.892 100.044H309.939L309.951 100.257C309.951 103.224 307.556 105.625 304.596 105.625H303.28C300.32 105.625 297.925 103.224 297.925 100.257L297.938 100.044H296.985C295.956 100.044 295.129 99.2138 295.129 98.183V97.7178C295.129 96.687 295.956 95.8573 296.985 95.8573H298.201L298.339 93.5818C298.339 93.2298 298.389 92.8904 298.49 92.5761C302.076 93.4687 306.277 91.1555 307.405 90.4641C308.659 90.9418 309.55 92.1487 309.55 93.5693L309.688 95.8447H310.904C311.92 95.8573 312.747 96.687 312.747 97.7178Z" fill="white"/>
<path d="M310.979 95.8572H309.675L309.537 93.5817C309.537 92.1612 308.647 90.9543 307.393 90.4766C306.264 91.1555 302.063 93.4686 298.477 92.5886C298.377 92.9029 298.327 93.2423 298.327 93.5943L298.189 95.8697H297.373C297.373 95.8697 295.706 87.7737 297.348 86.2903C298.565 85.1966 309.7 87.5852 310.929 89.2823C311.619 90.2503 310.979 95.8572 310.979 95.8572Z" fill="#E57281"/>
<path d="M307.845 95.3668C307.807 95.3668 307.757 95.3542 307.719 95.3165C307.707 95.3039 306.892 94.6376 305.588 94.6376C305.487 94.6376 305.399 94.5496 305.399 94.4491C305.399 94.3485 305.487 94.2605 305.588 94.2605C307.03 94.2605 307.92 94.9897 307.958 95.0274C308.033 95.0902 308.045 95.2159 307.983 95.2914C307.958 95.3417 307.895 95.3668 307.845 95.3668Z" fill="#66B0F0"/>
<path d="M303.079 99.264C303.054 99.264 303.029 99.264 303.017 99.2514C302.916 99.2137 302.866 99.1006 302.904 99.0126C303.255 98.0823 303.167 96.9132 302.678 95.8823C302.39 95.2537 301.976 94.8012 301.612 94.6754C300.81 94.3989 299.681 94.7886 299.668 94.7886C299.568 94.8263 299.468 94.776 299.43 94.6754C299.393 94.5749 299.443 94.4743 299.543 94.4366C299.593 94.424 300.797 94.0092 301.725 94.3234C302.189 94.4869 302.666 95.0023 303.004 95.7314C303.531 96.8503 303.619 98.1326 303.242 99.1634C303.23 99.2137 303.155 99.264 303.079 99.264Z" fill="#66B0F0"/>
<path d="M305.55 101.263C305.562 101.363 305.474 101.451 305.374 101.464H305.361C305.261 101.464 305.186 101.389 305.173 101.288C305.161 101.162 305.136 101.037 305.098 100.923C304.559 101.187 304.07 101.275 303.669 101.275C302.878 101.275 302.402 100.949 302.377 100.923C302.289 100.861 302.277 100.747 302.327 100.659C302.389 100.571 302.502 100.559 302.59 100.609C302.615 100.622 303.016 100.898 303.669 100.898C304.02 100.898 304.446 100.823 304.935 100.584C304.86 100.458 304.785 100.383 304.785 100.383C304.709 100.307 304.722 100.182 304.797 100.119C304.872 100.056 304.998 100.056 305.06 100.131C305.086 100.169 305.512 100.647 305.55 101.263Z" fill="#66B0F0"/>
<path d="M306.227 97.6702C306.4 97.6594 306.522 97.3698 306.501 97.0233C306.479 96.6768 306.322 96.4047 306.149 96.4155C305.976 96.4263 305.853 96.7159 305.875 97.0624C305.896 97.4089 306.054 97.681 306.227 97.6702Z" fill="#66B0F0"/>
<path d="M301.107 97.6199C301.266 97.6099 301.379 97.3434 301.359 97.0247C301.339 96.7059 301.195 96.4555 301.035 96.4654C300.876 96.4753 300.764 96.7418 300.783 97.0606C300.803 97.3794 300.948 97.6298 301.107 97.6199Z" fill="#66B0F0"/>
<path d="M297.599 98.3211C297.499 98.3211 297.411 98.2331 297.411 98.1325C297.411 97.5793 296.96 97.1393 296.421 97.1393C296.32 97.1393 296.233 97.0513 296.233 96.9508C296.233 96.8502 296.32 96.7622 296.421 96.7622C297.173 96.7622 297.788 97.3782 297.788 98.1325C297.788 98.2456 297.7 98.3211 297.599 98.3211Z" fill="#66B0F0"/>
<path d="M310.215 98.3211C310.114 98.3211 310.027 98.2331 310.027 98.1325C310.027 97.3782 310.641 96.7622 311.393 96.7622C311.494 96.7622 311.582 96.8502 311.582 96.9508C311.582 97.0513 311.494 97.1393 311.393 97.1393C310.842 97.1393 310.403 97.5919 310.403 98.1325C310.403 98.2456 310.328 98.3211 310.215 98.3211Z" fill="#66B0F0"/>
<path d="M537.214 376.64L483.505 198.603C482.439 195.058 479.166 192.632 475.467 192.632H149.489C145.752 192.632 142.467 195.108 141.426 198.716L90.175 376.64" stroke="#66B0F0" stroke-width="0.5" stroke-miterlimit="10"/>
<path d="M238.786 132.465H381.366" stroke="#66B0F0" stroke-width="0.5" stroke-miterlimit="10"/>
<path d="M288.27 159.519H321.952V188.521H288.27C288.27 188.521 288.27 158.425 288.27 159.519Z" fill="#FFCF2D"/>
<path d="M414.222 294.272L398.559 255.175H423.777L414.222 294.272Z" fill="#9A3B82"/>
<path d="M371.247 202.991C374.608 196.617 381.216 192.632 388.402 192.632H407.801L420.981 202.991H371.247Z" fill="#9A3B82"/>
<path d="M444.794 248.764H395.926L414.322 293.531C413.043 291.444 405.381 293.619 397.268 298.609C389.255 303.537 383.837 309.471 384.941 311.633L345.29 242.465C335.007 225.016 347.547 202.991 367.761 202.991H477.273L477.511 203.745C484.659 225.997 468.106 248.764 444.794 248.764Z" fill="#3FB1B5"/>
<path d="M479.166 215.827C478.991 219.912 478.088 223.86 476.558 227.518L419.125 203.004H476.131L477.461 206.901C478.389 209.239 478.903 212.52 479.166 215.827Z" fill="#E6E6E6"/>
<path d="M414.335 293.53C415.614 295.617 410.021 301.312 401.92 306.303C393.807 311.294 386.27 313.795 384.991 311.709C383.712 309.622 389.167 303.726 397.281 298.735C405.381 293.744 413.043 291.443 414.335 293.53Z" fill="#66B0F0"/>
<path d="M396.34 298.76L360.676 235.551C357.88 230.547 361.479 224.362 367.209 224.362H436.668C446.023 224.362 453.008 215.726 451.077 206.549" stroke="white" stroke-width="0.5" stroke-miterlimit="10" stroke-linecap="round"/>
<path d="M384.577 311.847C383.298 309.76 388.828 303.122 397.28 298.182C406.773 292.638 412.918 290.991 414.748 293.933" stroke="white" stroke-width="0.5" stroke-miterlimit="10" stroke-linecap="round"/>
<path d="M415.024 294.209L391.725 238.518" stroke="white" stroke-width="0.5" stroke-miterlimit="10" stroke-linecap="round"/>
<path d="M366.394 202.576H423.238" stroke="white" stroke-width="0.5" stroke-miterlimit="10"/>
<path d="M398.547 314.588L395.161 309.961L390.496 303.6C392.402 301.991 394.697 300.319 397.268 298.735C402.384 295.592 407.312 293.505 410.585 292.927L412.855 297.465L415.689 303.122C413.683 310.276 398.547 314.588 398.547 314.588Z" fill="#E57281"/>
<path d="M412.867 297.465C410.761 300.042 406.798 303.298 401.92 306.303C399.575 307.749 397.28 308.981 395.174 309.961L390.509 303.6C392.415 301.991 394.71 300.319 397.28 298.735C402.397 295.592 407.325 293.505 410.598 292.927L412.867 297.465Z" fill="#9A3B82"/>
<path d="M431.188 328.052L396.779 352.83C393.857 354.867 389.317 356.564 389.919 349.197C390.759 339.039 393.004 323.928 398.547 314.575C398.785 314.512 413.683 310.2 415.689 303.11L431.376 314.286C435.891 317.806 435.791 324.67 431.188 328.052Z" fill="white" stroke="#FFCF2D" stroke-width="0.5" stroke-miterlimit="10"/>
<path d="M396.954 317.856C399.688 318.371 415.036 312.915 417.419 304.505" stroke="#FFCF2D" stroke-width="0.5" stroke-miterlimit="10" stroke-linecap="round"/>
<path d="M393.255 350.278C393.255 350.278 415.714 319 431.69 320.76C449.083 322.658 379.034 368.519 393.255 350.278Z" fill="#FFCF2D"/>
<path d="M392.615 354.54C390.872 354.653 389.028 352.616 391.574 349.348C391.574 349.348 414.949 316.913 431.589 318.749C434.16 319.025 435.025 321.125 434.423 322.935" stroke="#FFCF2D" stroke-width="0.5" stroke-miterlimit="10" stroke-linecap="round"/>
<path d="M479.292 218.379C471.341 216.493 451.553 211.527 428.981 206.297C418.372 203.846 409.494 196.605 404.917 186.699L384.364 142.12L396.804 122.358C400.628 116.274 407.149 112.402 414.309 111.962L426.549 111.207C438.888 110.453 448.794 118.172 452.556 129.976L477.448 202.991C480.182 209.83 479.292 218.379 479.292 218.379Z" fill="white" stroke="#FE5244" stroke-width="0.5" stroke-miterlimit="10"/>
<path d="M395.186 144.622C395.186 144.622 401.732 154.931 416.642 157.206" stroke="#FE5244" stroke-width="0.5" stroke-miterlimit="10"/>
<path d="M404.014 125.866C403.336 125.136 402.145 125.338 401.731 126.23C401.267 127.236 402.108 128.355 403.199 128.191C404.315 128.028 404.778 126.683 404.014 125.866Z" fill="#FFCF2D" stroke="#FE5244" stroke-width="0.5" stroke-miterlimit="10" stroke-linejoin="round"/>
<path d="M435.251 147.35C434.574 146.621 433.383 146.822 432.969 147.715C432.505 148.72 433.345 149.839 434.436 149.676C435.552 149.512 436.016 148.167 435.251 147.35Z" fill="#FFCF2D" stroke="#FE5244" stroke-width="0.5" stroke-miterlimit="10" stroke-linejoin="round"/>
<path d="M445.145 156.15C444.468 155.421 443.276 155.622 442.863 156.515C442.399 157.52 443.239 158.639 444.33 158.476C445.433 158.325 445.897 156.98 445.145 156.15Z" fill="#FFCF2D" stroke="#FE5244" stroke-width="0.5" stroke-miterlimit="10" stroke-linejoin="round"/>
<path d="M464.118 205.945C463.441 205.216 462.249 205.417 461.836 206.31C461.372 207.316 462.212 208.435 463.303 208.271C464.406 208.108 464.87 206.775 464.118 205.945Z" fill="#FFCF2D" stroke="#FE5244" stroke-width="0.5" stroke-miterlimit="10" stroke-linejoin="round"/>
<path d="M453.497 182.148C452.82 181.419 451.628 181.62 451.214 182.512C450.75 183.518 451.591 184.637 452.682 184.473C453.798 184.31 454.262 182.965 453.497 182.148Z" fill="#FFCF2D" stroke="#FE5244" stroke-width="0.5" stroke-miterlimit="10" stroke-linejoin="round"/>
<path d="M457.898 165.026C456.92 165.151 456.381 166.245 456.87 167.1C457.422 168.068 458.814 168.03 459.315 167.037C459.83 166.031 459.002 164.875 457.898 165.026Z" fill="#FFCF2D" stroke="#FE5244" stroke-width="0.5" stroke-miterlimit="10" stroke-linejoin="round"/>
<path d="M465.911 190.42C464.933 190.545 464.394 191.639 464.883 192.494C465.435 193.462 466.827 193.424 467.328 192.431C467.843 191.425 467.027 190.269 465.911 190.42Z" fill="#FFCF2D" stroke="#FE5244" stroke-width="0.5" stroke-miterlimit="10" stroke-linejoin="round"/>
<path d="M432.68 163.026C432.003 162.297 430.812 162.498 430.398 163.391C429.934 164.397 430.774 165.516 431.865 165.352C432.969 165.189 433.433 163.856 432.68 163.026Z" fill="#FFCF2D" stroke="#FE5244" stroke-width="0.5" stroke-miterlimit="10" stroke-linejoin="round"/>
<path d="M425.771 177.27C425.094 176.541 423.902 176.742 423.488 177.635C423.024 178.64 423.865 179.759 424.956 179.596C426.072 179.432 426.536 178.087 425.771 177.27Z" fill="#FFCF2D" stroke="#FE5244" stroke-width="0.5" stroke-miterlimit="10" stroke-linejoin="round"/>
<path d="M413.407 172.292C414.134 171.613 413.933 170.419 413.043 170.004C412.04 169.539 410.924 170.381 411.087 171.475C411.25 172.581 412.579 173.046 413.407 172.292Z" fill="#FFCF2D" stroke="#FE5244" stroke-width="0.5" stroke-miterlimit="10" stroke-linejoin="round"/>
<path d="M424.379 196.806C425.106 196.127 424.906 194.933 424.015 194.518C423.012 194.053 421.896 194.895 422.059 195.989C422.222 197.108 423.564 197.573 424.379 196.806Z" fill="#FFCF2D" stroke="#FE5244" stroke-width="0.5" stroke-miterlimit="10" stroke-linejoin="round"/>
<path d="M442.85 175.774C443.577 175.095 443.377 173.901 442.487 173.486C441.483 173.021 440.367 173.863 440.53 174.957C440.693 176.063 442.035 176.541 442.85 175.774Z" fill="#FFCF2D" stroke="#FE5244" stroke-width="0.5" stroke-miterlimit="10" stroke-linejoin="round"/>
<path d="M449.158 202.099C449.885 201.42 449.684 200.226 448.794 199.811C447.791 199.346 446.675 200.188 446.838 201.282C446.988 202.4 448.33 202.866 449.158 202.099Z" fill="#FFCF2D" stroke="#FE5244" stroke-width="0.5" stroke-miterlimit="10" stroke-linejoin="round"/>
<path d="M411.337 148.783C410.66 148.054 409.469 148.255 409.055 149.148C408.591 150.154 409.431 151.273 410.522 151.109C411.638 150.946 412.102 149.6 411.337 148.783Z" fill="#FFCF2D" stroke="#FE5244" stroke-width="0.5" stroke-miterlimit="10" stroke-linejoin="round"/>
<path d="M413.582 116.173C412.905 115.444 411.713 115.645 411.299 116.538C410.835 117.543 411.676 118.662 412.767 118.499C413.883 118.335 414.347 116.99 413.582 116.173Z" fill="#FFCF2D" stroke="#FE5244" stroke-width="0.5" stroke-miterlimit="10" stroke-linejoin="round"/>
<path d="M435.251 116.173C434.574 115.444 433.383 115.645 432.969 116.538C432.505 117.543 433.345 118.662 434.436 118.499C435.552 118.335 436.016 116.99 435.251 116.173Z" fill="#FFCF2D" stroke="#FE5244" stroke-width="0.5" stroke-miterlimit="10" stroke-linejoin="round"/>
<path d="M435.289 130.253C434.373 130.618 434.11 131.799 434.799 132.516C435.564 133.308 436.906 132.943 437.157 131.862C437.408 130.769 436.329 129.838 435.289 130.253Z" fill="#FFCF2D" stroke="#FE5244" stroke-width="0.5" stroke-miterlimit="10" stroke-linejoin="round"/>
<path d="M422.975 122.232C422.022 122.509 421.658 123.653 422.26 124.432C422.95 125.3 424.316 125.061 424.667 124.018C425.031 122.949 424.04 121.918 422.975 122.232Z" fill="#FFCF2D" stroke="#FE5244" stroke-width="0.5" stroke-miterlimit="10" stroke-linejoin="round"/>
<path d="M421.156 157.055C420.178 157.169 419.626 158.25 420.103 159.117C420.642 160.085 422.034 160.073 422.548 159.092C423.075 158.099 422.272 156.93 421.156 157.055Z" fill="#FFCF2D" stroke="#FE5244" stroke-width="0.5" stroke-miterlimit="10" stroke-linejoin="round"/>
<path d="M410.409 183.242C409.431 183.355 408.879 184.436 409.356 185.303C409.895 186.271 411.287 186.259 411.801 185.278C412.328 184.285 411.525 183.116 410.409 183.242Z" fill="#FFCF2D" stroke="#FE5244" stroke-width="0.5" stroke-miterlimit="10" stroke-linejoin="round"/>
<path d="M414.021 132.616C413.068 132.893 412.704 134.037 413.306 134.816C413.996 135.684 415.362 135.445 415.714 134.401C416.077 133.345 415.099 132.315 414.021 132.616Z" fill="#FFCF2D" stroke="#FE5244" stroke-width="0.5" stroke-miterlimit="10" stroke-linejoin="round"/>
<path d="M424.404 139.656C423.451 139.933 423.087 141.077 423.689 141.857C424.379 142.724 425.745 142.485 426.097 141.442C426.46 140.373 425.482 139.342 424.404 139.656Z" fill="#FFCF2D" stroke="#FE5244" stroke-width="0.5" stroke-miterlimit="10" stroke-linejoin="round"/>
<path d="M401.92 139.355C402.547 138.588 402.208 137.431 401.255 137.142C400.202 136.815 399.199 137.796 399.512 138.852C399.826 139.933 401.205 140.222 401.92 139.355Z" fill="#FFCF2D" stroke="#FE5244" stroke-width="0.5" stroke-miterlimit="10" stroke-linejoin="round"/>
<path d="M449.459 139.392C450.086 138.625 449.747 137.469 448.794 137.18C447.741 136.853 446.738 137.833 447.051 138.889C447.352 139.971 448.744 140.26 449.459 139.392Z" fill="#FFCF2D" stroke="#FE5244" stroke-width="0.5" stroke-miterlimit="10" stroke-linejoin="round"/>
<path d="M437.395 190.357C438.022 189.59 437.683 188.434 436.73 188.144C435.677 187.818 434.674 188.798 434.988 189.854C435.288 190.923 436.68 191.212 437.395 190.357Z" fill="#FFCF2D" stroke="#FE5244" stroke-width="0.5" stroke-miterlimit="10" stroke-linejoin="round"/>
<path d="M427.389 110.792C427.113 110.805 426.837 110.817 426.549 110.83L414.309 111.584C411.187 111.773 408.202 112.615 405.494 114.01L401.732 102.721L418.498 90.4011L427.389 110.792Z" fill="#E57281"/>
<path d="M405.444 113.834C408.93 112.25 411.714 109.434 413.294 105.94L419.388 92.4252L418.498 90.3887L401.732 102.709L405.444 113.834Z" fill="#9A3B82"/>
<path d="M419.576 91.5327C419.576 92.7018 419.1 93.7578 418.335 94.5247C417.57 95.2916 416.516 95.7693 415.35 95.7693H411.663C410.209 101.439 404.578 105.324 398.521 104.255L395.75 103.765C392.715 103.224 390.646 100.383 391.073 97.3281L394.321 81.023C394.885 77.5407 398.459 75.4161 401.782 76.6104L407.162 78.7727C410.071 79.7784 412.027 82.519 412.027 85.599V87.1704L415.35 87.2961C417.683 87.2961 419.576 89.1944 419.576 91.5327Z" fill="#E57281"/>
<path d="M413.332 92.35C413.332 90.7283 414.636 89.4209 416.253 89.4209" stroke="#9A3B82" stroke-width="0.5" stroke-miterlimit="10" stroke-linecap="round"/>
<path d="M396.126 84.4551C396.126 84.4551 398.76 84.4551 400.641 86.9819" stroke="#9A3B82" stroke-width="0.5" stroke-miterlimit="10" stroke-linecap="round"/>
<path d="M397.877 89.1601C398.009 88.4292 397.841 87.7863 397.5 87.7242C397.159 87.6622 396.775 88.2044 396.643 88.9353C396.51 89.6663 396.679 90.3091 397.02 90.3712C397.361 90.4332 397.744 89.891 397.877 89.1601Z" fill="#9A3B82"/>
<path d="M415.35 87.2962C417.683 87.2962 419.576 89.1945 419.576 91.5327C419.576 91.5453 419.576 91.5705 419.576 91.5956C421.457 88.6916 426.072 81.2996 426.072 78.7979C426.072 75.4413 421.896 72.0847 417.57 73.6185C417.858 73.4047 418.159 73.1785 418.473 72.9396C420.14 71.6322 421.018 70.6516 421.156 69.9476C421.206 69.6962 421.169 69.4699 421.043 69.2939C420.542 68.5773 419.99 68.263 419.401 68.3636C418.535 68.5019 417.645 69.5705 416.755 71.5316C416.353 72.4242 416.04 73.3042 415.864 73.8448C415.513 71.7453 413.82 64.7933 406.547 65.8619C404.039 66.2265 402.86 67.2699 402.534 68.4139C400.452 66.7796 397.669 65.4973 395.361 66.7168C391.373 68.8162 391.863 72.2608 394.17 74.6996C391.988 74.6619 390.458 75.303 390.458 77.151C390.458 78.8482 392.201 79.6653 394.596 79.9922C396.991 80.319 400.064 80.143 402.722 79.8413C404.616 79.6276 406.321 79.3636 407.412 79.175C406.685 80.671 406.396 81.9533 406.459 83.0345C406.572 85.2722 408.19 86.5922 410.472 87.0573C410.961 87.1579 411.488 87.2207 412.027 87.2459L415.35 87.2962ZM419.476 68.8665C419.513 68.8539 419.551 68.8539 419.601 68.8539C419.952 68.8539 420.291 69.1053 420.629 69.583C420.655 69.6333 420.692 69.7087 420.667 69.847C420.466 70.8653 417.896 72.8013 416.403 73.8196C416.993 72.0848 418.234 69.0802 419.476 68.8665Z" fill="#FFCF2D"/>
<path d="M405.343 72.5877C404.478 72.5877 403.6 72.1225 402.961 71.3054C402.246 70.4002 402.008 69.2814 402.309 68.3134C402.346 68.1877 402.472 68.1122 402.597 68.1374C402.647 68.1374 402.698 68.15 402.735 68.1877C404.629 69.5454 406.146 71.4814 405.92 72.2482C405.87 72.4494 405.707 72.5751 405.494 72.5877C405.444 72.5877 405.393 72.5877 405.343 72.5877ZM402.71 68.7911C402.597 69.5202 402.823 70.3248 403.35 70.9911C403.914 71.7077 404.691 72.1225 405.444 72.0722C405.469 71.7454 404.629 70.2494 402.71 68.7911Z" fill="white"/>
<path d="M380.589 183.593H300.333C298.352 183.593 297.16 181.406 298.214 179.734L308.898 162.913C310.29 160.726 312.685 159.406 315.268 159.406H369.592L380.589 183.593Z" fill="#E57281"/>
<path d="M317.036 159.418L323.432 148.858C323.808 148.23 324.498 147.84 325.225 147.84C326.868 147.84 327.871 149.638 327.018 151.046L321.94 159.418H317.036Z" fill="#FE5244"/>
<path d="M380.589 183.593H362.544C362.507 183.555 362.456 183.505 362.419 183.467C358.03 178.942 356.161 172.078 358.632 165.465L361.202 159.406H369.592L380.589 183.593Z" fill="#9A3B82"/>
<path d="M311.67 172.304H301.612C300.935 172.304 300.308 172.669 299.97 173.259L298.904 175.12C298.189 176.377 299.092 177.949 300.547 177.949H308.635C310.039 177.949 311.343 177.219 312.083 176.013L312.949 174.592C313.551 173.586 312.836 172.304 311.67 172.304Z" fill="#E57281"/>
<path d="M309.074 177.949H299.017C298.339 177.949 297.712 178.313 297.374 178.904L296.308 180.765C295.593 182.022 296.496 183.593 297.951 183.593H306.039C307.443 183.593 308.748 182.864 309.487 181.657L310.353 180.237C310.967 179.231 310.24 177.949 309.074 177.949Z" fill="#E57281"/>
<path d="M314.541 166.584H304.484C303.807 166.584 303.18 166.949 302.841 167.539L301.775 169.4C301.061 170.657 301.964 172.229 303.418 172.229H311.506C312.911 172.229 314.215 171.499 314.955 170.293L315.82 168.872C316.435 167.866 315.707 166.584 314.541 166.584Z" fill="#E57281"/>
<path d="M311.67 172.304H301.612C300.935 172.304 300.308 172.669 299.97 173.259L298.904 175.12C298.189 176.377 299.092 177.949 300.547 177.949H308.635C310.039 177.949 311.343 177.219 312.083 176.013L312.949 174.592C313.551 173.586 312.836 172.304 311.67 172.304Z" stroke="#9A3B82" stroke-width="0.5" stroke-miterlimit="10" stroke-linecap="round"/>
<path d="M309.074 177.949H299.017C298.339 177.949 297.712 178.313 297.374 178.904L296.308 180.765C295.593 182.022 296.496 183.593 297.951 183.593H306.039C307.443 183.593 308.748 182.864 309.487 181.657L310.353 180.237C310.967 179.231 310.24 177.949 309.074 177.949Z" stroke="#9A3B82" stroke-width="0.5" stroke-miterlimit="10" stroke-linecap="round"/>
<path d="M314.541 166.584H304.484C303.807 166.584 303.18 166.949 302.841 167.539L301.775 169.4C301.061 170.657 301.964 172.229 303.418 172.229H311.506C312.911 172.229 314.215 171.499 314.955 170.293L315.82 168.872C316.435 167.866 315.707 166.584 314.541 166.584Z" stroke="#9A3B82" stroke-width="0.5" stroke-miterlimit="10" stroke-linecap="round"/>
<path d="M329.1 174.994C326.078 174.994 323.169 173.901 320.886 171.902L317.074 168.558H313.563L312.66 169.526C311.042 171.261 309.049 172.254 306.679 172.254H304.998C304.12 172.254 303.581 171.273 304.058 170.532L308.284 163.894H329.113V174.994H329.1Z" fill="#E57281"/>
<path d="M308.284 163.894L304.058 170.532C303.581 171.273 304.12 172.254 304.998 172.254H306.679C309.049 172.254 311.042 171.273 312.66 169.526L313.563 168.558H317.074L320.886 171.902C323.156 173.888 326.078 174.994 329.1 174.994" stroke="#9A3B82" stroke-width="0.5" stroke-miterlimit="10" stroke-linecap="round"/>
<path d="M413.77 160.085L394.622 181.532C390.596 186.045 384.84 188.622 378.796 188.622C366.858 188.622 358.594 176.679 362.782 165.465L385.53 111.886L377.843 107.574C376.752 106.719 376.225 105.324 376.463 103.966L377.768 95.1533C378.169 93.1922 380.163 91.6584 382.107 91.2059L391.11 89.1693C391.875 88.9933 392.577 89.647 392.452 90.4139L391.148 97.215C390.634 100.534 392.866 103.4 396.176 103.966C398.885 104.431 400.791 107.159 400.54 109.9L394.408 148.242C394.396 148.268 400.678 158.086 413.77 160.085Z" fill="#E57281"/>
<path d="M399.086 119.014L391.687 167.175" stroke="#9A3B82" stroke-width="0.5" stroke-miterlimit="10" stroke-linecap="round"/>
<path d="M383.749 95.7944L383.649 98.9121C383.611 100.194 384.376 101.326 385.48 101.64L397.004 103.978" stroke="#9A3B82" stroke-width="0.5" stroke-miterlimit="10" stroke-linecap="round"/>
<path d="M404.842 104.984L395.625 103.752C392.59 103.212 390.521 100.37 390.948 97.3155L392.139 90.4892C392.252 89.8481 391.675 89.3075 391.048 89.4584L381.643 91.6584" stroke="#9A3B82" stroke-width="0.5" stroke-miterlimit="10" stroke-linecap="round"/>
<path d="M399.75 175.749L424.68 147.941" stroke="#FE5244" stroke-width="0.5" stroke-miterlimit="10"/>
<path d="M385.793 111.898H390.195" stroke="#9A3B82" stroke-width="0.5" stroke-miterlimit="10" stroke-linecap="round"/>
<path d="M383.762 96.6243V97.63C383.762 98.8243 384.627 99.8049 385.693 99.8049H387.073C387.675 99.8049 388.151 99.2643 388.151 98.5854L388.239 92.0231C388.251 91.0048 387.173 90.3763 386.295 90.59" stroke="#9A3B82" stroke-width="0.5" stroke-miterlimit="10" stroke-linecap="round"/>
<path d="M388.239 96.6243V97.63C388.239 98.8243 389.104 99.8048 390.17 99.8048H391.047" stroke="#9A3B82" stroke-width="0.5" stroke-miterlimit="10" stroke-linecap="round"/>
<path d="M471.517 255.175L486.076 376.64" stroke="#66B0F0" stroke-miterlimit="10"/>
<path d="M408.415 255.175L393.857 376.64" stroke="#66B0F0" stroke-miterlimit="10"/>
<path d="M398.848 334.928H481.072" stroke="#66B0F0" stroke-miterlimit="10"/>
<path d="M400.026 255.552H479.154C480.207 255.552 481.06 254.697 481.06 253.641V251.052C481.06 249.996 480.207 249.141 479.154 249.141H400.026C398.973 249.141 398.12 249.996 398.12 251.052V253.641C398.12 254.697 398.973 255.552 400.026 255.552Z" fill="white" stroke="#FFCF2D" stroke-miterlimit="10"/>
<path d="M268.356 163.63L256.242 188.622H219.638L234.348 163.63H268.356Z" fill="white" stroke="#3FB1B5" stroke-width="0.5" stroke-miterlimit="10"/>
<path d="M260.33 169.727C260.33 169.727 258.738 166.999 254.913 167.703C252.054 168.218 248.668 170.582 246.586 169.312C244.505 168.042 242.661 166.458 239.965 167.213C237.269 167.967 235.275 169.413 235.275 169.413" stroke="#3FB1B5" stroke-width="0.5" stroke-miterlimit="10"/>
<path d="M259.076 173.624C259.076 173.624 257.484 170.896 253.659 171.6C250.8 172.115 247.414 174.479 245.332 173.209C243.251 171.939 241.407 170.355 238.711 171.11C236.015 171.864 234.021 173.31 234.021 173.31" stroke="#3FB1B5" stroke-width="0.5" stroke-miterlimit="10"/>
<path d="M282.125 275.792C282.125 279.149 272.833 281.864 261.196 281.864C249.559 281.864 240.543 279.149 240.543 275.792C240.543 272.435 249.559 269.72 261.196 269.72C272.833 269.72 282.125 272.448 282.125 275.792Z" fill="#FE5244"/>
<path d="M276.771 271.706V315.078L275.454 308.817C274.037 302.079 268.105 297.264 261.234 297.264C259.164 297.264 257.133 297.704 255.29 298.534C255.227 298.559 255.164 298.597 255.089 298.622L250.261 280.971L247.578 271.153C251.252 270.261 256.004 269.72 261.196 269.72C267.366 269.72 272.921 270.487 276.771 271.706Z" fill="#A0505A"/>
<path d="M276.771 271.706V279.878C272.921 281.097 267.366 281.864 261.196 281.864C257.196 281.864 253.459 281.537 250.261 280.984L247.578 271.166C251.252 270.273 256.004 269.733 261.196 269.733C267.366 269.72 272.921 270.487 276.771 271.706Z" fill="#73325A"/>
<path d="M275.843 313.808C276.181 313.909 279.367 314.801 282.188 314.801C283.718 314.801 285.135 314.537 285.937 313.733C286.627 313.041 286.79 312.036 286.427 310.766C286.101 309.635 285.473 308.931 284.558 308.679C282.878 308.227 280.545 309.484 278.702 310.804C281.574 307.309 284.408 302.871 283.354 299.967C282.978 298.936 282.125 298.245 281.059 298.119C280.169 298.019 279.341 298.333 278.953 298.924C277.147 301.677 275.667 312.979 275.604 313.456L275.843 313.808ZM279.479 299.276C279.705 298.936 280.182 298.735 280.733 298.735C280.821 298.735 280.909 298.735 280.997 298.748C281.398 298.798 282.364 299.024 282.777 300.181C283.053 300.948 283.154 302.356 282.038 304.719C280.984 306.957 279.078 309.584 276.369 312.564C276.771 309.697 278.05 301.451 279.479 299.276ZM285.499 313.293C284.671 314.123 282.79 314.374 280.044 314.022C278.602 313.833 277.26 313.532 276.545 313.343C277.084 312.865 278.087 311.998 279.254 311.193C281.486 309.647 283.266 308.981 284.408 309.295C285.097 309.484 285.561 310.024 285.837 310.942C286.138 311.998 286.025 312.765 285.499 313.293Z" fill="#FFCF2D"/>
<path d="M250.387 302.142L247.49 305.398C244.204 309.094 243.665 314.474 246.161 318.749L258.914 340.673C261.409 344.96 265.986 347.588 270.927 347.588H276.206C280.031 347.588 282.878 344.068 282.088 340.321L275.441 308.83C274.024 302.092 268.093 297.277 261.221 297.277C257.095 297.264 253.145 299.037 250.387 302.142Z" fill="white" stroke="#3FB1B5" stroke-width="0.5" stroke-miterlimit="10"/>
<path d="M260.256 311.62L276.721 343.602C277.498 345.048 278.464 345.978 279.567 346.569C278.614 347.21 277.461 347.6 276.207 347.6H270.927C265.974 347.6 261.397 344.96 258.914 340.686L246.161 318.748C245.646 317.856 245.258 316.926 244.994 315.958C243.189 309.232 250.825 303.952 256.556 307.899C257.86 308.792 259.14 309.999 260.256 311.62Z" fill="#3FB1B5"/>
<path d="M260.293 311.696H245.094C245.17 311.457 245.257 311.231 245.358 311.017H259.804C259.954 311.218 260.105 311.419 260.255 311.633L260.293 311.696Z" fill="white"/>
<path d="M262.525 316.02H245.019C245.019 315.995 245.007 315.97 245.007 315.958C244.957 315.756 244.907 315.543 244.869 315.342H262.187L262.525 316.02Z" fill="white"/>
<path d="M264.757 320.358H247.101L246.7 319.667H264.406L264.757 320.358Z" fill="white"/>
<path d="M266.99 324.695H249.621L249.22 324.004H266.638L266.99 324.695Z" fill="white"/>
<path d="M269.221 329.02H252.142L251.741 328.341H268.87L269.221 329.02Z" fill="white"/>
<path d="M271.454 333.356H254.663L254.261 332.665H271.09L271.454 333.356Z" fill="white"/>
<path d="M273.686 337.693H257.183L256.782 337.002H273.322L273.686 337.693Z" fill="white"/>
<path d="M275.905 342.018H259.804C259.641 341.792 259.478 341.565 259.327 341.339H275.554L275.905 342.018Z" fill="white"/>
<path d="M279.204 346.355H265.209C264.758 346.154 264.319 345.928 263.892 345.676H278.301C278.589 345.928 278.89 346.154 279.204 346.355Z" fill="white"/>
<path d="M230.761 274.899C230.649 278.218 221.256 280.909 209.694 280.909C198.132 280.909 188.74 278.231 188.627 274.899V248.763H230.761V274.899Z" fill="#73325A"/>
<path d="M227.965 279.237L227.902 282.342L227.3 312.651V311.771C227.3 303.99 221.005 297.679 213.243 297.679H212.39C208.428 297.679 204.854 299.225 202.208 301.714L200.364 289.218L199.223 281.487C202.308 282.002 205.882 282.291 209.682 282.291C217.507 282.279 224.316 281.047 227.965 279.237Z" fill="#A0505A"/>
<path d="M227.965 279.237L227.902 282.342C223.237 285.661 208.829 289.746 200.377 289.206L199.236 281.474C202.321 281.977 205.895 282.279 209.694 282.279C217.507 282.279 224.316 281.047 227.965 279.237Z" fill="#73325A"/>
<path d="M213.883 348.002H216.215C222.335 348.002 227.3 343.024 227.3 336.889V311.771C227.3 303.99 221.005 297.679 213.243 297.679H212.39C203.362 297.679 196.402 305.662 197.618 314.638L200.565 336.361C201.481 343.024 207.161 348.002 213.883 348.002Z" fill="white" stroke="#3FB1B5" stroke-width="0.5" stroke-miterlimit="10"/>
<path d="M223.814 344.972C221.833 346.846 219.149 348.002 216.215 348.002H213.883C207.161 348.002 201.48 343.024 200.578 336.361L197.631 314.638C197.581 314.223 197.53 313.808 197.518 313.406C198.27 308.591 202.421 304.907 207.437 304.907C209.907 304.907 212.19 305.812 213.958 307.321C215.726 308.83 216.967 310.954 217.356 313.406L221.231 339.919C221.519 341.892 222.447 343.652 223.814 344.972Z" fill="#3FB1B5"/>
<path d="M216.19 310.049H198.672C198.797 309.81 198.947 309.584 199.098 309.37H215.776C215.926 309.584 216.064 309.81 216.19 310.049Z" fill="white"/>
<path d="M217.494 314.374H197.593C197.568 314.147 197.543 313.921 197.53 313.695H217.394L217.494 314.374Z" fill="white"/>
<path d="M218.134 318.711H198.182L198.082 318.032H218.034L218.134 318.711Z" fill="white"/>
<path d="M218.761 323.048H198.772L198.672 322.356H218.66L218.761 323.048Z" fill="white"/>
<path d="M219.4 327.372H199.361L199.261 326.693H219.3L219.4 327.372Z" fill="white"/>
<path d="M220.027 331.709H199.938L199.85 331.031H219.927L220.027 331.709Z" fill="white"/>
<path d="M220.667 336.047H200.527L200.44 335.355H220.566L220.667 336.047Z" fill="white"/>
<path d="M221.306 340.371H201.769C201.656 340.145 201.556 339.919 201.468 339.692H221.193L221.231 339.919C221.256 340.069 221.281 340.22 221.306 340.371Z" fill="white"/>
<path d="M223.551 344.708H205.08C204.829 344.495 204.578 344.256 204.352 344.03H222.974C223.15 344.268 223.35 344.495 223.551 344.708Z" fill="white"/>
<path d="M239.878 139.053V160.223C238.962 157.822 231.714 158.161 223.739 161.191C216.905 163.793 211.776 167.363 211.023 169.84V140.046C211.023 131.183 215.751 123.263 223.012 118.938C232.442 120.585 239.878 128.819 239.878 139.053Z" fill="#FFCF2D"/>
<path d="M210.471 119.894C204.051 124.369 199.963 131.799 199.963 140.046V164.623H164.262L169.19 143.352C171.284 134.288 177.83 127.059 186.357 123.979L210.471 119.894Z" fill="#FFCF2D"/>
<path d="M282.677 225.091V274.434C282.677 271.078 272.833 268.362 261.196 268.362C249.559 268.362 240.129 271.078 240.129 274.434V250.787C240.129 249.681 239.226 248.776 238.122 248.776H174.118C154.869 248.776 140.636 230.811 144.988 212.017L160.437 145.288C162.895 134.64 171.497 126.531 182.244 124.696L186.357 123.992C177.83 127.072 171.284 134.301 169.19 143.365L164.262 164.635H199.963V140.046C199.963 131.799 204.064 124.357 210.471 119.894L216.114 118.938C217.281 118.737 218.422 118.649 219.563 118.649C219.713 118.649 219.851 118.649 220.002 118.649C220.14 118.649 220.278 118.662 220.403 118.662C220.428 118.662 220.453 118.662 220.478 118.662C220.579 118.662 220.692 118.674 220.792 118.674C220.804 118.674 220.829 118.674 220.842 118.674C220.905 118.674 220.967 118.687 221.018 118.687C221.13 118.699 221.231 118.699 221.344 118.712C221.469 118.725 221.607 118.737 221.732 118.75C221.858 118.762 221.971 118.775 222.096 118.787C222.121 118.787 222.146 118.8 222.184 118.8C222.309 118.813 222.447 118.838 222.573 118.85C222.585 118.85 222.598 118.85 222.598 118.85C222.736 118.875 222.874 118.888 223.011 118.913C215.751 123.238 211.023 131.158 211.023 140.021V200.426H258.098C271.667 200.451 282.677 211.477 282.677 225.091Z" fill="#FE5244"/>
<path d="M211.287 119.341C204.866 123.816 199.951 131.799 199.951 140.046V164.623H164.249L169.177 143.352C171.272 134.288 177.266 126.921 185.806 123.841" stroke="white" stroke-width="0.5" stroke-miterlimit="10" stroke-linecap="round"/>
<path d="M240.129 243.207C240.129 236.205 242.599 229.429 247.101 224.086" stroke="white" stroke-width="0.5" stroke-miterlimit="10" stroke-linecap="round"/>
<path d="M187.975 240.705C187.912 240.705 187.849 240.693 187.799 240.655L186.144 239.75C185.956 239.649 185.893 239.423 185.993 239.234C186.094 239.046 186.32 238.983 186.508 239.083L188.163 239.989C188.351 240.089 188.414 240.315 188.313 240.504C188.238 240.63 188.113 240.705 187.975 240.705ZM189.63 240.278C189.492 240.278 189.367 240.202 189.304 240.077C189.204 239.888 189.266 239.662 189.455 239.561L191.11 238.656C191.298 238.555 191.524 238.631 191.624 238.807C191.724 238.995 191.662 239.222 191.473 239.322L189.818 240.227C189.755 240.253 189.693 240.278 189.63 240.278ZM184.664 238.907C184.602 238.907 184.539 238.895 184.489 238.857L182.833 237.952C182.645 237.852 182.583 237.625 182.683 237.437C182.783 237.248 183.009 237.185 183.197 237.286L184.852 238.191C185.04 238.291 185.103 238.518 185.003 238.706C184.928 238.832 184.802 238.907 184.664 238.907ZM192.928 238.467C192.79 238.467 192.665 238.392 192.602 238.266C192.502 238.078 192.564 237.851 192.753 237.751L194.408 236.846C194.696 236.695 194.96 236.519 195.223 236.33C195.386 236.205 195.624 236.242 195.75 236.406C195.875 236.569 195.837 236.808 195.674 236.934C195.386 237.147 195.085 237.336 194.771 237.512L193.116 238.417C193.054 238.455 192.991 238.467 192.928 238.467ZM181.391 237.047C181.316 237.047 181.241 237.022 181.166 236.971C180.639 236.582 180.15 236.129 179.736 235.614C179.598 235.45 179.623 235.211 179.786 235.086C179.949 234.947 180.187 234.973 180.313 235.136C180.689 235.601 181.128 236.003 181.604 236.355C181.768 236.481 181.805 236.72 181.692 236.884C181.63 236.997 181.517 237.047 181.391 237.047ZM196.803 235.727C196.715 235.727 196.64 235.702 196.565 235.639C196.402 235.513 196.377 235.274 196.515 235.111C196.891 234.646 197.204 234.143 197.455 233.59C197.543 233.401 197.769 233.313 197.957 233.401C198.145 233.489 198.233 233.715 198.145 233.904C197.869 234.507 197.518 235.073 197.104 235.576C197.016 235.677 196.916 235.727 196.803 235.727ZM179.034 234.168C178.896 234.168 178.758 234.093 178.695 233.954C178.419 233.351 178.219 232.722 178.093 232.069C178.056 231.867 178.194 231.666 178.394 231.629C178.595 231.591 178.796 231.729 178.833 231.93C178.946 232.521 179.122 233.087 179.372 233.628C179.46 233.816 179.372 234.042 179.184 234.13C179.134 234.156 179.084 234.168 179.034 234.168ZM198.358 232.333C198.333 232.333 198.308 232.333 198.295 232.333C198.095 232.295 197.957 232.094 197.994 231.893C198.07 231.478 198.107 231.063 198.107 230.648V230.082C198.107 229.869 198.27 229.705 198.483 229.705C198.697 229.705 198.86 229.869 198.86 230.082V230.648C198.86 231.113 198.822 231.578 198.734 232.031C198.697 232.207 198.534 232.333 198.358 232.333ZM178.344 230.497C178.131 230.497 177.968 230.334 177.968 230.12V228.234C177.968 228.021 178.131 227.857 178.344 227.857C178.557 227.857 178.72 228.021 178.72 228.234V230.12C178.72 230.321 178.545 230.497 178.344 230.497ZM198.471 228.574C198.258 228.574 198.095 228.41 198.095 228.197V226.311C198.095 226.097 198.258 225.934 198.471 225.934C198.684 225.934 198.847 226.097 198.847 226.311V228.197C198.847 228.41 198.684 228.574 198.471 228.574ZM178.344 226.726C178.131 226.726 177.968 226.562 177.968 226.349V224.463C177.968 224.249 178.131 224.086 178.344 224.086C178.557 224.086 178.72 224.249 178.72 224.463V226.349C178.72 226.55 178.545 226.726 178.344 226.726ZM198.471 224.802C198.258 224.802 198.095 224.639 198.095 224.425V222.54C198.095 222.326 198.258 222.162 198.471 222.162C198.684 222.162 198.847 222.326 198.847 222.54V224.425C198.847 224.639 198.684 224.802 198.471 224.802ZM178.344 222.954C178.131 222.954 177.968 222.791 177.968 222.577V220.692C177.968 220.478 178.131 220.314 178.344 220.314C178.557 220.314 178.72 220.478 178.72 220.692V222.577C178.72 222.778 178.545 222.954 178.344 222.954ZM198.471 221.031C198.258 221.031 198.095 220.868 198.095 220.654V218.768C198.095 218.554 198.258 218.391 198.471 218.391C198.684 218.391 198.847 218.554 198.847 218.768V220.654C198.847 220.868 198.684 221.031 198.471 221.031ZM178.344 219.183C178.131 219.183 177.968 219.02 177.968 218.806V217.184H178.984C179.197 217.184 179.36 217.348 179.36 217.561C179.36 217.775 179.197 217.938 178.984 217.938H178.72V218.806C178.72 219.007 178.545 219.183 178.344 219.183ZM197.794 217.938H195.913C195.699 217.938 195.536 217.775 195.536 217.561C195.536 217.348 195.699 217.184 195.913 217.184H197.794C198.007 217.184 198.17 217.348 198.17 217.561C198.17 217.775 198.007 217.938 197.794 217.938ZM194.032 217.938H192.151C191.937 217.938 191.774 217.775 191.774 217.561C191.774 217.348 191.937 217.184 192.151 217.184H194.032C194.245 217.184 194.408 217.348 194.408 217.561C194.408 217.775 194.245 217.938 194.032 217.938ZM190.27 217.938H188.389C188.175 217.938 188.012 217.775 188.012 217.561C188.012 217.348 188.175 217.184 188.389 217.184H190.27C190.483 217.184 190.646 217.348 190.646 217.561C190.646 217.775 190.483 217.938 190.27 217.938ZM186.508 217.938H184.627C184.413 217.938 184.25 217.775 184.25 217.561C184.25 217.348 184.413 217.184 184.627 217.184H186.508C186.721 217.184 186.884 217.348 186.884 217.561C186.884 217.775 186.721 217.938 186.508 217.938ZM182.746 217.938H180.865C180.651 217.938 180.488 217.775 180.488 217.561C180.488 217.348 180.651 217.184 180.865 217.184H182.746C182.959 217.184 183.122 217.348 183.122 217.561C183.122 217.775 182.959 217.938 182.746 217.938Z" fill="white"/>
<path d="M152.487 238.618C152.349 238.618 152.223 238.543 152.161 238.417C152.06 238.229 152.123 238.002 152.311 237.902L153.841 237.06C153.879 237.034 153.916 237.022 153.954 236.997C154.129 236.896 154.368 236.959 154.468 237.135C154.568 237.311 154.506 237.55 154.33 237.65C154.292 237.676 154.255 237.701 154.205 237.713L152.675 238.556C152.612 238.606 152.549 238.618 152.487 238.618ZM155.659 236.607C155.559 236.607 155.459 236.569 155.383 236.481C155.246 236.33 155.258 236.092 155.409 235.953C155.847 235.551 156.236 235.086 156.575 234.596C156.688 234.42 156.926 234.382 157.101 234.495C157.277 234.608 157.315 234.847 157.202 235.023C156.838 235.564 156.399 236.066 155.923 236.519C155.835 236.582 155.747 236.607 155.659 236.607ZM157.754 233.514C157.703 233.514 157.666 233.502 157.616 233.489C157.427 233.414 157.327 233.2 157.402 232.999C157.616 232.433 157.766 231.855 157.854 231.264C157.879 231.063 158.067 230.912 158.28 230.937C158.481 230.962 158.631 231.151 158.606 231.365C158.518 232.018 158.355 232.66 158.117 233.276C158.042 233.426 157.904 233.514 157.754 233.514ZM158.293 229.818C158.08 229.818 157.917 229.655 157.917 229.441V227.556C157.917 227.342 158.08 227.178 158.293 227.178C158.506 227.178 158.669 227.342 158.669 227.556V229.441C158.669 229.642 158.506 229.818 158.293 229.818ZM158.293 226.047C158.08 226.047 157.917 225.884 157.917 225.67V223.784C157.917 223.57 158.08 223.407 158.293 223.407C158.506 223.407 158.669 223.57 158.669 223.784V225.67C158.669 225.871 158.506 226.047 158.293 226.047ZM158.293 222.276C158.08 222.276 157.917 222.112 157.917 221.898V220.013C157.917 219.799 158.08 219.636 158.293 219.636C158.506 219.636 158.669 219.799 158.669 220.013V221.898C158.669 222.1 158.506 222.276 158.293 222.276ZM158.293 218.504C158.08 218.504 157.917 218.341 157.917 218.127V217.938H156.976C156.763 217.938 156.6 217.775 156.6 217.561C156.6 217.348 156.763 217.184 156.976 217.184H158.669V218.127C158.669 218.328 158.506 218.504 158.293 218.504ZM155.095 217.938H153.214C153.001 217.938 152.838 217.775 152.838 217.561C152.838 217.348 153.001 217.184 153.214 217.184H155.095C155.308 217.184 155.471 217.348 155.471 217.561C155.471 217.775 155.296 217.938 155.095 217.938ZM151.333 217.938H149.452C149.239 217.938 149.076 217.775 149.076 217.561C149.076 217.348 149.239 217.184 149.452 217.184H151.333C151.546 217.184 151.709 217.348 151.709 217.561C151.709 217.775 151.534 217.938 151.333 217.938ZM147.571 217.938H145.69C145.477 217.938 145.314 217.775 145.314 217.561C145.314 217.348 145.477 217.184 145.69 217.184H147.571C147.784 217.184 147.947 217.348 147.947 217.561C147.947 217.775 147.772 217.938 147.571 217.938Z" fill="white"/>
<path d="M239.878 160.223C240.793 162.624 235 166.886 227.037 169.915C219.074 172.945 211.939 173.41 211.023 170.997C210.108 168.583 215.763 164.233 223.739 161.203C231.714 158.174 238.962 157.809 239.878 160.223Z" fill="#FE5244"/>
<path d="M244.329 238.216V239.549C243.915 239.448 243.477 239.398 243.038 239.398H241.42C239.025 239.398 236.981 237.864 236.203 235.727L240.793 235.111C242.661 234.86 244.329 236.318 244.329 238.216Z" fill="#73325A"/>
<path d="M248.568 244.942V255.175C248.568 257.563 246.637 259.499 244.254 259.499H239.451C238.26 259.499 237.181 259.022 236.404 258.23C235.626 257.45 235.137 256.369 235.137 255.175H238.26C239.288 255.175 240.116 254.345 240.116 253.314V250.637C240.116 249.606 239.288 248.776 238.26 248.776H222.296C216.064 248.776 211.01 243.71 211.01 237.462V169.853C211.763 167.376 216.892 163.793 223.726 161.204C228.391 159.431 232.817 158.576 235.865 158.652V233.854C235.865 236.921 238.348 239.41 241.407 239.41H243.025C246.085 239.398 248.568 241.874 248.568 244.942Z" fill="#A0505A"/>
<path d="M235.865 158.639V165.478C233.595 167.011 230.523 168.583 227.024 169.903C219.049 172.933 211.926 173.398 211.01 170.984V169.84C211.763 167.363 216.892 163.781 223.726 161.191C228.403 159.418 232.817 158.563 235.865 158.639Z" fill="#73325A"/>
<path d="M215.011 107.712L210.296 119.894L185.994 124.256L192.339 107.712H215.011Z" fill="#A0505A"/>
<path d="M215.011 107.712L212.466 114.299L188.364 118.071L192.339 107.712H215.011Z" fill="#73325A"/>
<path d="M229.257 82.9214C229.257 84.5682 226.41 86.3911 223.125 87.9248C218.648 90.0242 213.368 91.6208 213.368 91.6208L209.807 98.3465C214.648 100.924 216.541 105.55 217.293 108.781C217.77 110.843 217.77 112.313 217.77 112.313H183.636C183.636 112.313 174.67 83.1979 196.276 76.2334C209.494 71.9717 229.257 79.0116 229.257 82.9214Z" fill="white" stroke="#FFCF2D" stroke-width="0.5" stroke-miterlimit="10" stroke-linecap="round"/>
<path d="M193.116 80.3818C197.805 80.3818 201.606 76.5714 201.606 71.871C201.606 67.1705 197.805 63.3601 193.116 63.3601C188.428 63.3601 184.627 67.1705 184.627 71.871C184.627 76.5714 188.428 80.3818 193.116 80.3818Z" fill="white" stroke="#FFCF2D" stroke-width="0.5" stroke-miterlimit="10" stroke-linecap="round"/>
<path d="M217.281 108.781C216.579 105.726 214.823 101.376 210.497 98.7486H209.381C208.353 98.7486 207.412 98.3338 206.735 97.6549C206.058 96.9761 205.644 96.0332 205.644 95.0023C205.644 92.9281 207.312 91.2561 209.381 91.2561L214.109 91.3566H214.234C214.322 91.3315 214.41 91.2938 214.51 91.2686C215.789 90.9921 219.839 90.0115 223.2 88.3269L223.589 90.6526L224.843 98.1075C225.696 103.224 222.197 107.938 217.281 108.781Z" fill="#A0505A"/>
<path d="M223.576 90.6402C219.463 92.3122 214.096 91.3442 214.096 91.3442C214.096 91.3442 219.15 90.3384 223.188 88.3145L223.576 90.6402Z" fill="#73325A"/>
<path d="M212.29 95.7189C212.29 94.2857 211.137 93.1292 209.707 93.1292" stroke="#73325A" stroke-width="0.5" stroke-miterlimit="10" stroke-linecap="round"/>
<path d="M225.57 255.175L240.129 376.64" stroke="#66B0F0" stroke-width="0.5" stroke-miterlimit="10"/>
<path d="M162.456 255.175L147.909 376.64" stroke="#66B0F0" stroke-width="0.5" stroke-miterlimit="10"/>
<path d="M152.901 334.928H235.125" stroke="#66B0F0" stroke-width="0.5" stroke-miterlimit="10"/>
<path d="M149.803 255.175H238.223C239.276 255.175 240.129 254.32 240.129 253.264V250.674C240.129 249.618 239.276 248.763 238.223 248.763H149.803C148.75 248.763 147.897 249.618 147.897 250.674V253.264C147.91 254.32 148.762 255.175 149.803 255.175Z" fill="white" stroke="#FFCF2D" stroke-width="0.5" stroke-miterlimit="10"/>
</svg>
