<svg width="466" height="327" viewBox="0 0 466 327" fill="none" xmlns="http://www.w3.org/2000/svg">
<path d="M407.657 279.912H58.3433L121.048 242.793H345.912L407.657 279.912Z" fill="#D0F0E4"/>
<path d="M258.621 98.4457H195.776V62.0179C195.776 59.5514 197.77 57.552 200.231 57.552H254.166C256.626 57.552 258.621 59.5514 258.621 62.0179V98.4457V98.4457Z" fill="white" stroke="#66B0F0" stroke-width="0.5" stroke-miterlimit="10"/>
<path d="M253.877 96.0727H200.781C199.383 96.0727 198.246 94.9329 198.246 93.5314V62.3076C198.246 60.9061 199.383 59.7663 200.781 59.7663H253.877C255.275 59.7663 256.412 60.9061 256.412 62.3076V93.5408C256.412 94.9422 255.275 96.0727 253.877 96.0727Z" fill="#66B0F0"/>
<path d="M269.637 106.994C272.041 108.564 271.482 111.638 268.639 111.638H183.026C180.631 111.638 179.811 108.396 182.159 106.91L269.637 106.994Z" fill="#66B0F0" stroke="#66B0F0" stroke-width="0.5" stroke-miterlimit="10"/>
<path d="M268.64 109.498H183.026C181.498 109.498 180.892 107.695 182.16 106.91L195.795 98.4457H258.444L269.628 106.994C270.746 107.845 270.094 109.498 268.64 109.498Z" fill="white" stroke="#66B0F0" stroke-width="0.5" stroke-miterlimit="10"/>
<path d="M258.761 106.948H192.905C191.731 106.948 191.265 105.556 192.234 104.958L201.703 98.4457H250.913L259.516 105.023C260.382 105.677 259.879 106.948 258.761 106.948Z" fill="white" stroke="#66B0F0" stroke-width="0.5" stroke-miterlimit="10"/>
<path d="M246.654 98.4457L255.266 106.948" stroke="#66B0F0" stroke-width="0.5" stroke-miterlimit="10"/>
<path d="M242.087 98.4457L249.674 106.948" stroke="#66B0F0" stroke-width="0.5" stroke-miterlimit="10"/>
<path d="M237.818 98.4457L244.398 106.948" stroke="#66B0F0" stroke-width="0.5" stroke-miterlimit="10"/>
<path d="M233.047 98.4457L238.61 106.948" stroke="#66B0F0" stroke-width="0.5" stroke-miterlimit="10"/>
<path d="M229.086 98.4457L231.798 106.948" stroke="#66B0F0" stroke-width="0.5" stroke-miterlimit="10"/>
<path d="M205.702 98.4457L197.09 106.948" stroke="#66B0F0" stroke-width="0.5" stroke-miterlimit="10"/>
<path d="M210.268 98.4457L202.682 106.948" stroke="#66B0F0" stroke-width="0.5" stroke-miterlimit="10"/>
<path d="M214.537 98.4457L207.957 106.948" stroke="#66B0F0" stroke-width="0.5" stroke-miterlimit="10"/>
<path d="M219.308 98.4457L213.744 106.948" stroke="#66B0F0" stroke-width="0.5" stroke-miterlimit="10"/>
<path d="M223.27 98.4457L220.558 106.948" stroke="#66B0F0" stroke-width="0.5" stroke-miterlimit="10"/>
<path d="M225.954 107.05V98.4457" stroke="#66B0F0" stroke-width="0.5" stroke-miterlimit="10"/>
<path d="M197.09 101.622H255.079" stroke="#66B0F0" stroke-width="0.5" stroke-miterlimit="10"/>
<path d="M249.459 96.0727H202.309L203.157 90.0466C203.679 86.3374 206.335 83.2917 209.923 82.264L221.415 79.8722H230.353L241.845 82.264C245.442 83.2823 248.098 86.3374 248.611 90.0466L249.459 96.0727Z" fill="#FFCF2D"/>
<path d="M229.067 86.7579L225.665 83.3104C225.59 83.2357 225.59 83.1142 225.665 83.0488C225.739 82.9741 225.861 82.9741 225.926 83.0488L229.048 86.216L233.894 80.7131C233.96 80.6384 234.081 80.629 234.155 80.6944C234.23 80.7598 234.239 80.8813 234.174 80.956L229.067 86.7579Z" fill="white"/>
<path d="M222.748 86.7579L217.64 80.956C217.575 80.8813 217.575 80.7598 217.659 80.6944C217.734 80.629 217.855 80.629 217.92 80.7131L222.766 86.216L225.888 83.0488C225.963 82.9741 226.075 82.9741 226.149 83.0488C226.224 83.1235 226.224 83.2357 226.149 83.3104L222.748 86.7579Z" fill="white"/>
<path d="M225.963 89.0095C225.516 89.0095 225.152 88.6451 225.152 88.1967C225.152 87.7482 225.516 87.3839 225.963 87.3839C226.41 87.3839 226.774 87.7482 226.774 88.1967C226.774 88.6451 226.41 89.0095 225.963 89.0095ZM225.963 87.7576C225.721 87.7576 225.525 87.9538 225.525 88.1967C225.525 88.4396 225.721 88.6358 225.963 88.6358C226.205 88.6358 226.401 88.4396 226.401 88.1967C226.401 87.9538 226.205 87.7576 225.963 87.7576Z" fill="white"/>
<path d="M225.963 93.5875C225.516 93.5875 225.152 93.2231 225.152 92.7747C225.152 92.3262 225.516 91.9619 225.963 91.9619C226.41 91.9619 226.774 92.3262 226.774 92.7747C226.774 93.2231 226.41 93.5875 225.963 93.5875ZM225.963 92.3356C225.721 92.3356 225.525 92.5318 225.525 92.7747C225.525 93.0176 225.721 93.2138 225.963 93.2138C226.205 93.2138 226.401 93.0176 226.401 92.7747C226.401 92.5318 226.205 92.3356 225.963 92.3356Z" fill="white"/>
<path d="M221.359 95.8764H206.13L202.067 83.7867L217.296 79.4142L221.359 95.8764Z" fill="white" stroke="#66B0F0" stroke-width="0.5" stroke-miterlimit="10"/>
<path d="M206.923 85.3564H206.634C205.898 85.3564 205.301 84.7585 205.301 84.0204V79.8255C205.301 79.5265 205.543 79.2836 205.842 79.2836H207.1C207.398 79.2836 207.64 79.5265 207.64 79.8255V84.6277C207.65 85.0294 207.323 85.3564 206.923 85.3564Z" fill="white"/>
<path d="M206.923 85.3564H206.634C205.898 85.3564 205.301 84.7585 205.301 84.0204V79.8255C205.301 79.5265 205.543 79.2836 205.842 79.2836H207.1C207.398 79.2836 207.64 79.5265 207.64 79.8255V84.6277C207.65 85.0294 207.323 85.3564 206.923 85.3564Z" stroke="#66B0F0" stroke-width="0.5" stroke-miterlimit="10" stroke-linecap="round"/>
<path d="M213.055 85.3564H213.344C214.081 85.3564 214.677 84.7585 214.677 84.0204V79.8255C214.677 79.5265 214.435 79.2836 214.136 79.2836H212.869C212.571 79.2836 212.328 79.5265 212.328 79.8255V84.6277C212.328 85.0294 212.655 85.3564 213.055 85.3564Z" fill="white"/>
<path d="M209.262 85.8422H208.591C208.069 85.8422 207.65 85.4218 207.65 84.8986V79.8347C207.65 79.5358 207.892 79.2928 208.19 79.2928H209.448C209.747 79.2928 209.989 79.5358 209.989 79.8347V85.1134C209.989 85.5152 209.663 85.8422 209.262 85.8422Z" fill="white"/>
<path d="M211.611 86.0292H211.052C210.465 86.0292 209.989 85.5527 209.989 84.9641V79.8255C209.989 79.5265 210.232 79.2836 210.53 79.2836H211.788C212.086 79.2836 212.329 79.5265 212.329 79.8255V85.3004C212.329 85.7022 212.002 86.0292 211.611 86.0292Z" fill="white"/>
<path d="M213.055 85.3564H213.344C214.081 85.3564 214.677 84.7585 214.677 84.0204V79.8255C214.677 79.5265 214.435 79.2836 214.136 79.2836H212.869C212.571 79.2836 212.328 79.5265 212.328 79.8255V84.6277C212.328 85.0294 212.655 85.3564 213.055 85.3564Z" stroke="#66B0F0" stroke-width="0.5" stroke-miterlimit="10" stroke-linecap="round"/>
<path d="M209.262 85.8422H208.591C208.069 85.8422 207.65 85.4218 207.65 84.8986V79.8347C207.65 79.5358 207.892 79.2928 208.19 79.2928H209.448C209.747 79.2928 209.989 79.5358 209.989 79.8347V85.1134C209.989 85.5152 209.663 85.8422 209.262 85.8422Z" stroke="#66B0F0" stroke-width="0.5" stroke-miterlimit="10" stroke-linecap="round"/>
<path d="M211.611 86.0292H211.052C210.465 86.0292 209.989 85.5527 209.989 84.9641V79.8255C209.989 79.5265 210.232 79.2836 210.53 79.2836H211.788C212.086 79.2836 212.329 79.5265 212.329 79.8255V85.3004C212.329 85.7022 212.002 86.0292 211.611 86.0292Z" stroke="#66B0F0" stroke-width="0.5" stroke-miterlimit="10" stroke-linecap="round"/>
<path d="M230.362 74.3786V81.1989C230.362 82.3761 228.358 83.3385 225.889 83.3385C223.419 83.3385 221.415 82.3761 221.415 81.1989V74.3786H230.362Z" fill="white"/>
<path d="M230.362 74.3786C230.362 79.5265 227.072 81.0587 223.913 80.7878C223.903 80.7878 223.894 80.7878 223.885 80.7878C222.487 80.657 221.424 79.4611 221.424 78.0597V74.3879H230.362V74.3786Z" fill="#66B0F0"/>
<path d="M232.441 72.6222V72.9678C232.441 73.734 231.826 74.3506 231.061 74.3506H230.353L230.362 74.5094C230.362 76.7143 228.582 78.4988 226.383 78.4988H225.404C223.205 78.4988 221.425 76.7143 221.425 74.5094L221.434 74.3506H220.726C219.961 74.3506 219.346 73.734 219.346 72.9678V72.6222C219.346 71.856 219.961 71.2394 220.726 71.2394H221.63L221.732 69.5484C221.732 69.2868 221.769 69.0345 221.844 68.8009C224.509 69.4643 227.632 67.7452 228.47 67.2313C229.402 67.5864 230.064 68.4833 230.064 69.539L230.167 71.2301H231.071C231.826 71.2394 232.441 71.856 232.441 72.6222Z" fill="white"/>
<path d="M231.127 71.2393H230.157L230.055 69.5483C230.055 68.4925 229.393 67.5956 228.461 67.2406C227.622 67.7451 224.5 69.4642 221.835 68.8102C221.76 69.0438 221.723 69.296 221.723 69.5576L221.62 71.2487H221.014C221.014 71.2487 219.775 65.2319 220.996 64.1294C221.9 63.3166 230.176 65.0917 231.089 66.353C231.602 67.0724 231.127 71.2393 231.127 71.2393Z" fill="#E57281"/>
<path d="M228.797 70.8748C228.769 70.8748 228.732 70.8655 228.704 70.8375C228.695 70.8281 228.089 70.333 227.12 70.333C227.045 70.333 226.98 70.2676 226.98 70.1928C226.98 70.1181 227.045 70.0527 227.12 70.0527C228.191 70.0527 228.853 70.5946 228.881 70.6226C228.937 70.6693 228.946 70.7627 228.9 70.8188C228.881 70.8562 228.834 70.8748 228.797 70.8748Z" fill="#66B0F0"/>
<path d="M225.255 73.7711C225.237 73.7711 225.218 73.7711 225.209 73.7618C225.134 73.7337 225.097 73.6497 225.125 73.5843C225.386 72.8929 225.321 72.024 224.957 71.2579C224.743 70.7908 224.435 70.4544 224.165 70.361C223.568 70.1554 222.73 70.4451 222.72 70.4451C222.646 70.4731 222.571 70.4357 222.543 70.361C222.515 70.2862 222.553 70.2115 222.627 70.1835C222.664 70.1741 223.559 69.8658 224.249 70.0994C224.594 70.2208 224.948 70.6039 225.199 71.1458C225.591 71.9773 225.656 72.9303 225.377 73.6964C225.367 73.7337 225.311 73.7711 225.255 73.7711Z" fill="#66B0F0"/>
<path d="M227.091 75.2567C227.101 75.3315 227.035 75.3969 226.961 75.4062H226.951C226.877 75.4062 226.821 75.3502 226.812 75.2754C226.802 75.182 226.784 75.0886 226.756 75.0045C226.355 75.2007 225.991 75.2661 225.693 75.2661C225.106 75.2661 224.752 75.0232 224.733 75.0045C224.668 74.9578 224.659 74.8737 224.696 74.8083C224.742 74.7429 224.826 74.7336 224.892 74.7709C224.91 74.7803 225.209 74.9858 225.693 74.9858C225.954 74.9858 226.271 74.9297 226.634 74.7522C226.579 74.6588 226.523 74.6028 226.523 74.6028C226.467 74.5467 226.476 74.4533 226.532 74.4066C226.588 74.3599 226.681 74.3599 226.728 74.4159C226.746 74.4439 227.063 74.799 227.091 75.2567Z" fill="#66B0F0"/>
<path d="M227.595 72.5866C227.723 72.5786 227.814 72.3634 227.798 72.1059C227.782 71.8484 227.665 71.6461 227.537 71.6542C227.408 71.6622 227.317 71.8774 227.333 72.1349C227.349 72.3924 227.466 72.5947 227.595 72.5866Z" fill="#66B0F0"/>
<path d="M223.79 72.5492C223.908 72.5418 223.992 72.3438 223.977 72.1068C223.962 71.8699 223.854 71.6838 223.736 71.6912C223.618 71.6986 223.534 71.8967 223.549 72.1336C223.564 72.3705 223.671 72.5566 223.79 72.5492Z" fill="#66B0F0"/>
<path d="M221.182 73.0703C221.108 73.0703 221.043 73.0049 221.043 72.9302C221.043 72.5191 220.707 72.1921 220.306 72.1921C220.232 72.1921 220.167 72.1267 220.167 72.0519C220.167 71.9772 220.232 71.9118 220.306 71.9118C220.866 71.9118 221.322 72.3696 221.322 72.9302C221.322 73.0143 221.257 73.0703 221.182 73.0703Z" fill="#66B0F0"/>
<path d="M230.558 73.0703C230.484 73.0703 230.419 73.0049 230.419 72.9302C230.419 72.3696 230.875 71.9118 231.434 71.9118C231.509 71.9118 231.574 71.9772 231.574 72.0519C231.574 72.1267 231.509 72.1921 231.434 72.1921C231.024 72.1921 230.698 72.5284 230.698 72.9302C230.698 73.0143 230.642 73.0703 230.558 73.0703Z" fill="#66B0F0"/>
<path d="M399.269 279.912L359.351 147.599C358.559 144.964 356.126 143.161 353.377 143.161H111.104C108.326 143.161 105.884 145.001 105.111 147.683L67.02 279.912" stroke="#66B0F0" stroke-width="0.5" stroke-miterlimit="10"/>
<path d="M177.471 98.4457H283.439" stroke="#66B0F0" stroke-width="0.5" stroke-miterlimit="10"/>
<path d="M214.248 118.552H239.282V140.106H214.248C214.248 140.106 214.248 117.739 214.248 118.552Z" fill="#FFCF2D"/>
<path d="M307.859 218.698L296.218 189.641H314.96L307.859 218.698Z" fill="#9A3B82"/>
<path d="M275.919 150.859C278.417 146.123 283.328 143.161 288.669 143.161H303.087L312.882 150.859H275.919Z" fill="#9A3B82"/>
<path d="M330.581 184.877H294.261L307.933 218.147C306.983 216.596 301.288 218.212 295.258 221.921C289.303 225.583 285.276 229.993 286.097 231.6L256.627 180.196C248.985 167.228 258.304 150.859 273.328 150.859H354.72L354.897 151.42C360.209 167.957 347.907 184.877 330.581 184.877Z" fill="#3FB1B5"/>
<path d="M356.127 160.398C355.996 163.435 355.325 166.368 354.188 169.087L311.503 150.869H353.871L354.859 153.765C355.549 155.503 355.931 157.941 356.127 160.398Z" fill="#E6E6E6"/>
<path d="M307.943 218.146C308.894 219.697 304.737 223.93 298.716 227.639C292.686 231.348 287.085 233.207 286.134 231.656C285.183 230.105 289.238 225.723 295.268 222.014C301.288 218.305 306.983 216.595 307.943 218.146Z" fill="#66B0F0"/>
<path d="M294.568 222.033L268.062 175.057C265.984 171.339 268.659 166.742 272.918 166.742H324.541C331.494 166.742 336.685 160.323 335.25 153.503" stroke="white" stroke-width="0.5" stroke-miterlimit="10" stroke-linecap="round"/>
<path d="M285.826 231.759C284.875 230.208 288.986 225.275 295.267 221.603C302.323 217.483 306.889 216.259 308.25 218.445" stroke="white" stroke-width="0.5" stroke-miterlimit="10" stroke-linecap="round"/>
<path d="M308.455 218.651L291.138 177.262" stroke="white" stroke-width="0.5" stroke-miterlimit="10" stroke-linecap="round"/>
<path d="M272.312 150.551H314.56" stroke="white" stroke-width="0.5" stroke-miterlimit="10"/>
<path d="M296.209 233.796L293.692 230.357L290.225 225.63C291.642 224.434 293.348 223.191 295.258 222.014C299.061 219.679 302.723 218.128 305.156 217.698L306.843 221.071L308.949 225.275C307.458 230.591 296.209 233.796 296.209 233.796Z" fill="#E57281"/>
<path d="M306.852 221.071C305.286 222.986 302.341 225.406 298.716 227.639C296.973 228.713 295.267 229.629 293.702 230.357L290.235 225.63C291.651 224.434 293.357 223.191 295.267 222.014C299.07 219.679 302.733 218.128 305.165 217.698L306.852 221.071Z" fill="#9A3B82"/>
<path d="M320.469 243.802L294.895 262.217C292.723 263.73 289.349 264.992 289.797 259.517C290.421 251.968 292.089 240.737 296.209 233.786C296.386 233.74 307.458 230.535 308.949 225.266L320.608 233.571C323.964 236.187 323.889 241.289 320.469 243.802Z" fill="white" stroke="#FFCF2D" stroke-width="0.5" stroke-miterlimit="10"/>
<path d="M295.025 236.225C297.057 236.608 308.464 232.553 310.235 226.302" stroke="#FFCF2D" stroke-width="0.5" stroke-miterlimit="10" stroke-linecap="round"/>
<path d="M292.275 260.32C292.275 260.32 308.967 237.075 320.841 238.383C333.768 239.794 281.706 273.876 292.275 260.32Z" fill="#FFCF2D"/>
<path d="M291.8 263.487C290.504 263.571 289.134 262.058 291.026 259.629C291.026 259.629 308.399 235.524 320.767 236.888C322.677 237.094 323.32 238.654 322.873 239.999" stroke="#FFCF2D" stroke-width="0.5" stroke-miterlimit="10" stroke-linecap="round"/>
<path d="M356.22 162.295C350.311 160.893 335.604 157.203 318.828 153.316C310.944 151.495 304.345 146.113 300.943 138.751L285.668 105.621L294.913 90.9343C297.756 86.4123 302.602 83.5347 307.924 83.2077L317.02 82.6472C326.191 82.0866 333.554 87.8231 336.35 96.596L354.85 150.859C356.882 155.942 356.22 162.295 356.22 162.295Z" fill="white" stroke="#FE5244" stroke-width="0.5" stroke-miterlimit="10"/>
<path d="M293.711 107.48C293.711 107.48 298.576 115.141 309.657 116.833" stroke="#FE5244" stroke-width="0.5" stroke-miterlimit="10"/>
<path d="M300.272 93.5408C299.768 92.9989 298.883 93.1484 298.576 93.8117C298.231 94.5591 298.855 95.3906 299.666 95.2692C300.495 95.1477 300.84 94.1481 300.272 93.5408Z" fill="#FFCF2D" stroke="#FE5244" stroke-width="0.5" stroke-miterlimit="10" stroke-linejoin="round"/>
<path d="M323.488 109.508C322.985 108.966 322.099 109.115 321.792 109.779C321.447 110.526 322.072 111.358 322.882 111.236C323.712 111.115 324.057 110.115 323.488 109.508Z" fill="#FFCF2D" stroke="#FE5244" stroke-width="0.5" stroke-miterlimit="10" stroke-linejoin="round"/>
<path d="M330.841 116.048C330.338 115.506 329.453 115.655 329.145 116.319C328.8 117.066 329.425 117.898 330.236 117.776C331.056 117.664 331.401 116.664 330.841 116.048Z" fill="#FFCF2D" stroke="#FE5244" stroke-width="0.5" stroke-miterlimit="10" stroke-linejoin="round"/>
<path d="M344.943 153.055C344.439 152.513 343.554 152.662 343.246 153.326C342.902 154.073 343.526 154.905 344.337 154.783C345.157 154.662 345.502 153.671 344.943 153.055Z" fill="#FFCF2D" stroke="#FE5244" stroke-width="0.5" stroke-miterlimit="10" stroke-linejoin="round"/>
<path d="M337.049 135.369C336.545 134.827 335.66 134.976 335.352 135.64C335.008 136.387 335.632 137.219 336.443 137.097C337.272 136.976 337.617 135.976 337.049 135.369Z" fill="#FFCF2D" stroke="#FE5244" stroke-width="0.5" stroke-miterlimit="10" stroke-linejoin="round"/>
<path d="M340.32 122.644C339.593 122.737 339.192 123.55 339.556 124.185C339.966 124.905 341 124.877 341.373 124.139C341.755 123.391 341.14 122.532 340.32 122.644Z" fill="#FFCF2D" stroke="#FE5244" stroke-width="0.5" stroke-miterlimit="10" stroke-linejoin="round"/>
<path d="M346.276 141.516C345.549 141.61 345.148 142.423 345.511 143.058C345.921 143.777 346.956 143.749 347.329 143.011C347.711 142.264 347.105 141.404 346.276 141.516Z" fill="#FFCF2D" stroke="#FE5244" stroke-width="0.5" stroke-miterlimit="10" stroke-linejoin="round"/>
<path d="M321.578 121.158C321.074 120.616 320.189 120.766 319.881 121.429C319.537 122.177 320.161 123.008 320.972 122.887C321.792 122.765 322.137 121.775 321.578 121.158Z" fill="#FFCF2D" stroke="#FE5244" stroke-width="0.5" stroke-miterlimit="10" stroke-linejoin="round"/>
<path d="M316.442 131.744C315.939 131.202 315.053 131.351 314.746 132.015C314.401 132.762 315.025 133.594 315.836 133.472C316.666 133.351 317.011 132.351 316.442 131.744Z" fill="#FFCF2D" stroke="#FE5244" stroke-width="0.5" stroke-miterlimit="10" stroke-linejoin="round"/>
<path d="M307.253 128.044C307.794 127.54 307.644 126.652 306.983 126.344C306.237 125.998 305.408 126.624 305.529 127.437C305.65 128.259 306.638 128.605 307.253 128.044Z" fill="#FFCF2D" stroke="#FE5244" stroke-width="0.5" stroke-miterlimit="10" stroke-linejoin="round"/>
<path d="M315.408 146.263C315.948 145.758 315.799 144.871 315.138 144.562C314.392 144.217 313.562 144.843 313.683 145.655C313.805 146.487 314.802 146.833 315.408 146.263Z" fill="#FFCF2D" stroke="#FE5244" stroke-width="0.5" stroke-miterlimit="10" stroke-linejoin="round"/>
<path d="M329.136 130.632C329.677 130.127 329.527 129.24 328.866 128.931C328.12 128.586 327.291 129.212 327.412 130.025C327.533 130.847 328.53 131.202 329.136 130.632Z" fill="#FFCF2D" stroke="#FE5244" stroke-width="0.5" stroke-miterlimit="10" stroke-linejoin="round"/>
<path d="M333.824 150.196C334.364 149.691 334.215 148.804 333.554 148.495C332.808 148.15 331.978 148.776 332.1 149.589C332.211 150.42 333.209 150.766 333.824 150.196Z" fill="#FFCF2D" stroke="#FE5244" stroke-width="0.5" stroke-miterlimit="10" stroke-linejoin="round"/>
<path d="M305.715 110.573C305.212 110.031 304.326 110.181 304.019 110.844C303.674 111.591 304.298 112.423 305.109 112.301C305.939 112.18 306.283 111.18 305.715 110.573Z" fill="#FFCF2D" stroke="#FE5244" stroke-width="0.5" stroke-miterlimit="10" stroke-linejoin="round"/>
<path d="M307.383 86.3374C306.88 85.7956 305.994 85.9451 305.687 86.6084C305.342 87.3558 305.966 88.1873 306.777 88.0658C307.607 87.9444 307.952 86.9447 307.383 86.3374Z" fill="#FFCF2D" stroke="#FE5244" stroke-width="0.5" stroke-miterlimit="10" stroke-linejoin="round"/>
<path d="M323.488 86.3374C322.985 85.7956 322.099 85.9451 321.792 86.6084C321.447 87.3558 322.072 88.1873 322.882 88.0658C323.712 87.9444 324.057 86.9447 323.488 86.3374Z" fill="#FFCF2D" stroke="#FE5244" stroke-width="0.5" stroke-miterlimit="10" stroke-linejoin="round"/>
<path d="M323.516 96.8015C322.836 97.0725 322.64 97.9507 323.152 98.4832C323.721 99.0718 324.718 98.8009 324.905 97.9974C325.091 97.1846 324.29 96.4932 323.516 96.8015Z" fill="#FFCF2D" stroke="#FE5244" stroke-width="0.5" stroke-miterlimit="10" stroke-linejoin="round"/>
<path d="M314.364 90.8406C313.656 91.0461 313.386 91.8963 313.833 92.4756C314.346 93.1202 315.361 92.9427 315.622 92.1673C315.893 91.3731 315.156 90.607 314.364 90.8406Z" fill="#FFCF2D" stroke="#FE5244" stroke-width="0.5" stroke-miterlimit="10" stroke-linejoin="round"/>
<path d="M313.013 116.721C312.286 116.805 311.875 117.608 312.23 118.253C312.63 118.972 313.665 118.963 314.047 118.234C314.439 117.496 313.842 116.627 313.013 116.721Z" fill="#FFCF2D" stroke="#FE5244" stroke-width="0.5" stroke-miterlimit="10" stroke-linejoin="round"/>
<path d="M305.025 136.182C304.298 136.266 303.888 137.069 304.242 137.714C304.643 138.433 305.677 138.424 306.06 137.695C306.451 136.957 305.855 136.088 305.025 136.182Z" fill="#FFCF2D" stroke="#FE5244" stroke-width="0.5" stroke-miterlimit="10" stroke-linejoin="round"/>
<path d="M307.709 98.5579C307.001 98.7635 306.731 99.6136 307.178 100.193C307.691 100.838 308.706 100.66 308.967 99.8846C309.238 99.0998 308.511 98.3337 307.709 98.5579Z" fill="#FFCF2D" stroke="#FE5244" stroke-width="0.5" stroke-miterlimit="10" stroke-linejoin="round"/>
<path d="M315.426 103.79C314.718 103.995 314.448 104.846 314.895 105.425C315.407 106.07 316.423 105.892 316.684 105.117C316.954 104.322 316.228 103.556 315.426 103.79Z" fill="#FFCF2D" stroke="#FE5244" stroke-width="0.5" stroke-miterlimit="10" stroke-linejoin="round"/>
<path d="M298.716 103.566C299.182 102.996 298.93 102.136 298.222 101.921C297.439 101.678 296.693 102.407 296.926 103.192C297.159 103.996 298.184 104.21 298.716 103.566Z" fill="#FFCF2D" stroke="#FE5244" stroke-width="0.5" stroke-miterlimit="10" stroke-linejoin="round"/>
<path d="M334.048 103.594C334.514 103.024 334.262 102.164 333.554 101.949C332.771 101.706 332.025 102.435 332.258 103.22C332.482 104.023 333.517 104.238 334.048 103.594Z" fill="#FFCF2D" stroke="#FE5244" stroke-width="0.5" stroke-miterlimit="10" stroke-linejoin="round"/>
<path d="M325.082 141.47C325.548 140.9 325.296 140.04 324.588 139.825C323.805 139.582 323.059 140.311 323.292 141.096C323.516 141.89 324.55 142.105 325.082 141.47Z" fill="#FFCF2D" stroke="#FE5244" stroke-width="0.5" stroke-miterlimit="10" stroke-linejoin="round"/>
<path d="M317.645 82.3385C317.44 82.3478 317.235 82.3572 317.02 82.3665L307.924 82.9271C305.603 83.0672 303.385 83.6932 301.372 84.7303L298.576 76.3404L311.037 67.1844L317.645 82.3385Z" fill="#E57281"/>
<path d="M301.335 84.5996C303.926 83.4224 305.995 81.3296 307.169 78.7323L311.699 68.6887L311.037 67.1752L298.576 76.3312L301.335 84.5996Z" fill="#9A3B82"/>
<path d="M311.838 68.0254C311.838 68.8943 311.484 69.6791 310.915 70.249C310.347 70.8189 309.564 71.174 308.697 71.174H305.957C304.876 75.3876 300.691 78.2746 296.19 77.4804L294.13 77.116C291.875 76.7143 290.337 74.6028 290.654 72.3325L293.068 60.2148C293.487 57.6268 296.143 56.0479 298.613 56.9354L302.611 58.5424C304.774 59.2898 306.227 61.3266 306.227 63.6156V64.7834L308.697 64.8769C310.431 64.8769 311.838 66.2876 311.838 68.0254Z" fill="#E57281"/>
<path d="M307.197 68.6328C307.197 67.4276 308.166 66.4559 309.369 66.4559" stroke="#9A3B82" stroke-width="0.5" stroke-miterlimit="10" stroke-linecap="round"/>
<path d="M294.41 62.7655C294.41 62.7655 296.367 62.7655 297.765 64.6434" stroke="#9A3B82" stroke-width="0.5" stroke-miterlimit="10" stroke-linecap="round"/>
<path d="M295.711 66.2622C295.809 65.719 295.684 65.2412 295.43 65.1951C295.177 65.149 294.892 65.5519 294.794 66.0952C294.695 66.6384 294.821 67.1161 295.074 67.1623C295.327 67.2084 295.612 66.8054 295.711 66.2622Z" fill="#9A3B82"/>
<path d="M308.697 64.8769C310.431 64.8769 311.838 66.2877 311.838 68.0255C311.838 68.0348 311.838 68.0535 311.838 68.0722C313.236 65.914 316.666 60.4204 316.666 58.5612C316.666 56.0666 313.562 53.5721 310.347 54.7119C310.561 54.5531 310.785 54.3849 311.018 54.2074C312.258 53.2357 312.91 52.507 313.012 51.9838C313.05 51.7969 313.022 51.6288 312.929 51.498C312.556 50.9654 312.146 50.7318 311.708 50.8066C311.065 50.9094 310.403 51.7035 309.741 53.161C309.443 53.8243 309.21 54.4783 309.079 54.8801C308.818 53.3198 307.56 48.1532 302.155 48.9474C300.291 49.2183 299.414 49.9938 299.172 50.844C297.625 49.6294 295.556 48.6764 293.841 49.5827C290.877 51.1429 291.241 53.7029 292.956 55.5154C291.334 55.4874 290.197 55.9638 290.197 57.3372C290.197 58.5985 291.492 59.2058 293.273 59.4487C295.053 59.6916 297.336 59.5608 299.312 59.3366C300.719 59.1778 301.987 58.9816 302.798 58.8414C302.257 59.9532 302.043 60.9062 302.089 61.7097C302.173 63.3727 303.375 64.3537 305.072 64.6994C305.435 64.7742 305.827 64.8209 306.227 64.8396L308.697 64.8769ZM311.764 51.1803C311.792 51.171 311.819 51.171 311.857 51.171C312.118 51.171 312.369 51.3578 312.621 51.7128C312.64 51.7502 312.668 51.8063 312.649 51.909C312.5 52.6658 310.589 54.1046 309.48 54.8614C309.918 53.5721 310.841 51.3391 311.764 51.1803Z" fill="#FFCF2D"/>
<path d="M301.26 53.9459C300.617 53.9459 299.965 53.6002 299.489 52.9929C298.958 52.3202 298.781 51.4887 299.005 50.7693C299.033 50.6759 299.126 50.6198 299.219 50.6385C299.256 50.6385 299.294 50.6479 299.322 50.6759C300.729 51.6849 301.856 53.1237 301.689 53.6936C301.651 53.8431 301.53 53.9365 301.372 53.9459C301.335 53.9459 301.297 53.9459 301.26 53.9459ZM299.303 51.1244C299.219 51.6662 299.387 52.2642 299.778 52.7594C300.198 53.2919 300.775 53.6002 301.335 53.5628C301.353 53.3199 300.729 52.2081 299.303 51.1244Z" fill="white"/>
<path d="M282.862 136.443H223.214C221.742 136.443 220.856 134.817 221.639 133.575L229.58 121.074C230.614 119.448 232.394 118.467 234.314 118.467H274.689L282.862 136.443Z" fill="#E57281"/>
<path d="M235.628 118.477L240.382 110.629C240.661 110.162 241.174 109.872 241.714 109.872C242.935 109.872 243.681 111.208 243.047 112.254L239.273 118.477H235.628Z" fill="#FE5244"/>
<path d="M282.862 136.443H269.451C269.423 136.415 269.386 136.378 269.358 136.35C266.096 132.986 264.707 127.885 266.543 122.971L268.454 118.467H274.689L282.862 136.443Z" fill="#9A3B82"/>
<path d="M231.64 128.053H224.165C223.662 128.053 223.196 128.324 222.944 128.763L222.152 130.146C221.621 131.08 222.292 132.248 223.373 132.248H229.384C230.428 132.248 231.397 131.706 231.947 130.809L232.59 129.754C233.038 129.006 232.506 128.053 231.64 128.053Z" fill="#E57281"/>
<path d="M229.71 132.248H222.236C221.732 132.248 221.266 132.519 221.015 132.958L220.223 134.341C219.691 135.275 220.362 136.443 221.443 136.443H227.455C228.499 136.443 229.468 135.901 230.018 135.004L230.661 133.949C231.118 133.201 230.577 132.248 229.71 132.248Z" fill="#E57281"/>
<path d="M233.774 123.802H226.299C225.796 123.802 225.33 124.073 225.078 124.512L224.286 125.895C223.755 126.829 224.426 127.997 225.507 127.997H231.518C232.562 127.997 233.531 127.455 234.081 126.558L234.724 125.503C235.181 124.755 234.641 123.802 233.774 123.802Z" fill="#E57281"/>
<path d="M231.64 128.053H224.165C223.662 128.053 223.196 128.324 222.944 128.763L222.152 130.146C221.621 131.08 222.292 132.248 223.373 132.248H229.384C230.428 132.248 231.397 131.706 231.947 130.809L232.59 129.754C233.038 129.006 232.506 128.053 231.64 128.053Z" stroke="#9A3B82" stroke-width="0.5" stroke-miterlimit="10" stroke-linecap="round"/>
<path d="M229.71 132.248H222.236C221.732 132.248 221.266 132.519 221.015 132.958L220.223 134.341C219.691 135.275 220.362 136.443 221.443 136.443H227.455C228.499 136.443 229.468 135.901 230.018 135.004L230.661 133.949C231.118 133.201 230.577 132.248 229.71 132.248Z" stroke="#9A3B82" stroke-width="0.5" stroke-miterlimit="10" stroke-linecap="round"/>
<path d="M233.774 123.802H226.299C225.796 123.802 225.33 124.073 225.078 124.512L224.286 125.895C223.755 126.829 224.426 127.997 225.507 127.997H231.518C232.562 127.997 233.531 127.455 234.081 126.558L234.724 125.503C235.181 124.755 234.641 123.802 233.774 123.802Z" stroke="#9A3B82" stroke-width="0.5" stroke-miterlimit="10" stroke-linecap="round"/>
<path d="M244.594 130.053C242.348 130.053 240.186 129.24 238.49 127.754L235.657 125.269H233.047L232.376 125.988C231.174 127.278 229.692 128.016 227.93 128.016H226.681C226.029 128.016 225.628 127.287 225.982 126.736L229.123 121.803H244.604V130.053H244.594Z" fill="#E57281"/>
<path d="M229.123 121.803L225.982 126.736C225.628 127.287 226.029 128.016 226.681 128.016H227.93C229.692 128.016 231.174 127.287 232.376 125.988L233.047 125.269H235.657L238.49 127.754C240.177 129.23 242.348 130.053 244.594 130.053" stroke="#9A3B82" stroke-width="0.5" stroke-miterlimit="10" stroke-linecap="round"/>
<path d="M307.523 118.972L293.291 134.911C290.3 138.265 286.022 140.18 281.529 140.18C272.657 140.18 266.515 131.305 269.628 122.971L286.534 83.1515L280.821 79.9469C280.01 79.3116 279.619 78.2746 279.796 77.2655L280.765 70.7162C281.063 69.2587 282.545 68.1189 283.99 67.7825L290.682 66.269C291.25 66.1382 291.772 66.624 291.679 67.1939L290.71 72.2484C290.328 74.7149 291.987 76.8451 294.447 77.2655C296.46 77.6112 297.877 79.6386 297.69 81.6754L293.133 110.171C293.124 110.19 297.793 117.487 307.523 118.972Z" fill="#E57281"/>
<path d="M296.609 88.4489L291.11 124.241" stroke="#9A3B82" stroke-width="0.5" stroke-miterlimit="10" stroke-linecap="round"/>
<path d="M285.211 71.1926L285.136 73.5096C285.108 74.4626 285.677 75.3034 286.497 75.537L295.062 77.2748" stroke="#9A3B82" stroke-width="0.5" stroke-miterlimit="10" stroke-linecap="round"/>
<path d="M300.887 78.0222L294.037 77.1066C291.782 76.7049 290.244 74.5934 290.561 72.3231L291.446 67.2499C291.53 66.7734 291.101 66.3717 290.635 66.4838L283.645 68.1188" stroke="#9A3B82" stroke-width="0.5" stroke-miterlimit="10" stroke-linecap="round"/>
<path d="M297.103 130.613L315.632 109.947" stroke="#FE5244" stroke-width="0.5" stroke-miterlimit="10"/>
<path d="M286.73 83.1609H290.001" stroke="#9A3B82" stroke-width="0.5" stroke-miterlimit="10" stroke-linecap="round"/>
<path d="M285.22 71.8094V72.5568C285.22 73.4444 285.863 74.1731 286.656 74.1731H287.681C288.128 74.1731 288.482 73.7714 288.482 73.2668L288.548 68.3899C288.557 67.6331 287.755 67.1659 287.103 67.3248" stroke="#9A3B82" stroke-width="0.5" stroke-miterlimit="10" stroke-linecap="round"/>
<path d="M288.547 71.8093V72.5568C288.547 73.4443 289.19 74.1731 289.983 74.1731H290.635" stroke="#9A3B82" stroke-width="0.5" stroke-miterlimit="10" stroke-linecap="round"/>
<path d="M350.442 189.641L361.262 279.912" stroke="#66B0F0" stroke-miterlimit="10"/>
<path d="M303.543 189.641L292.723 279.912" stroke="#66B0F0" stroke-miterlimit="10"/>
<path d="M296.432 248.913H357.544" stroke="#66B0F0" stroke-miterlimit="10"/>
<path d="M297.308 189.922H356.117C356.9 189.922 357.534 189.287 357.534 188.502V186.577C357.534 185.792 356.9 185.157 356.117 185.157H297.308C296.526 185.157 295.892 185.792 295.892 186.577V188.502C295.892 189.287 296.526 189.922 297.308 189.922Z" fill="white" stroke="#FFCF2D" stroke-miterlimit="10"/>
<path d="M199.448 121.607L190.445 140.18H163.24L174.172 121.607H199.448Z" fill="white" stroke="#3FB1B5" stroke-width="0.5" stroke-miterlimit="10"/>
<path d="M193.483 126.138C193.483 126.138 192.299 124.11 189.457 124.634C187.332 125.017 184.815 126.773 183.268 125.829C181.721 124.886 180.351 123.709 178.347 124.269C176.344 124.83 174.862 125.904 174.862 125.904" stroke="#3FB1B5" stroke-width="0.5" stroke-miterlimit="10"/>
<path d="M192.551 129.034C192.551 129.034 191.367 127.007 188.525 127.53C186.4 127.913 183.883 129.669 182.336 128.726C180.789 127.782 179.419 126.605 177.415 127.166C175.411 127.726 173.93 128.801 173.93 128.801" stroke="#3FB1B5" stroke-width="0.5" stroke-miterlimit="10"/>
<path d="M209.682 204.964C209.682 207.458 202.775 209.476 194.127 209.476C185.478 209.476 178.776 207.458 178.776 204.964C178.776 202.469 185.478 200.451 194.127 200.451C202.775 200.451 209.682 202.478 209.682 204.964Z" fill="#FE5244"/>
<path d="M205.702 201.927V234.16L204.723 229.507C203.67 224.5 199.262 220.921 194.154 220.921C192.617 220.921 191.107 221.248 189.737 221.865C189.69 221.884 189.644 221.912 189.588 221.93L185.999 208.813L184.005 201.516C186.736 200.853 190.268 200.451 194.127 200.451C198.712 200.451 202.841 201.021 205.702 201.927Z" fill="#A0505A"/>
<path d="M205.702 201.927V208C202.841 208.906 198.712 209.476 194.127 209.476C191.153 209.476 188.376 209.233 185.999 208.822L184.005 201.525C186.736 200.862 190.268 200.46 194.127 200.46C198.712 200.451 202.841 201.021 205.702 201.927Z" fill="#73325A"/>
<path d="M205.012 233.217C205.264 233.292 207.631 233.955 209.728 233.955C210.865 233.955 211.918 233.759 212.515 233.161C213.028 232.647 213.149 231.899 212.878 230.956C212.636 230.115 212.17 229.592 211.49 229.405C210.241 229.069 208.507 230.003 207.137 230.984C209.272 228.387 211.378 225.089 210.595 222.93C210.315 222.164 209.682 221.65 208.889 221.557C208.228 221.482 207.613 221.716 207.324 222.155C205.982 224.201 204.882 232.6 204.835 232.955L205.012 233.217ZM207.715 222.416C207.883 222.164 208.237 222.015 208.647 222.015C208.712 222.015 208.778 222.015 208.843 222.024C209.141 222.061 209.859 222.23 210.166 223.089C210.371 223.659 210.446 224.705 209.616 226.462C208.834 228.125 207.417 230.078 205.404 232.292C205.702 230.162 206.653 224.033 207.715 222.416ZM212.189 232.834C211.574 233.45 210.176 233.637 208.134 233.376C207.063 233.236 206.065 233.011 205.534 232.871C205.935 232.516 206.681 231.871 207.547 231.274C209.206 230.124 210.53 229.629 211.378 229.863C211.89 230.003 212.235 230.405 212.44 231.087C212.664 231.871 212.58 232.441 212.189 232.834Z" fill="#FFCF2D"/>
<path d="M186.093 224.546L183.94 226.966C181.498 229.713 181.097 233.712 182.952 236.888L192.43 253.182C194.285 256.368 197.687 258.321 201.359 258.321H205.283C208.125 258.321 210.241 255.705 209.654 252.921L204.714 229.517C203.661 224.509 199.253 220.931 194.145 220.931C191.079 220.921 188.143 222.239 186.093 224.546Z" fill="white" stroke="#3FB1B5" stroke-width="0.5" stroke-miterlimit="10"/>
<path d="M193.428 231.591L205.665 255.359C206.243 256.433 206.96 257.125 207.78 257.564C207.072 258.04 206.215 258.33 205.283 258.33H201.359C197.678 258.33 194.276 256.368 192.43 253.191L182.952 236.888C182.57 236.225 182.281 235.533 182.085 234.814C180.743 229.816 186.419 225.892 190.678 228.825C191.647 229.489 192.598 230.386 193.428 231.591Z" fill="#3FB1B5"/>
<path d="M193.455 231.647H182.159C182.215 231.469 182.281 231.301 182.355 231.142H193.092C193.204 231.292 193.315 231.441 193.427 231.6L193.455 231.647Z" fill="white"/>
<path d="M195.114 234.861H182.104C182.104 234.842 182.094 234.823 182.094 234.814C182.057 234.665 182.02 234.506 181.992 234.356H194.863L195.114 234.861Z" fill="white"/>
<path d="M196.773 238.084H183.651L183.352 237.57H196.512L196.773 238.084Z" fill="white"/>
<path d="M198.432 241.308H185.524L185.226 240.794H198.171L198.432 241.308Z" fill="white"/>
<path d="M200.091 244.521H187.397L187.099 244.017H199.83L200.091 244.521Z" fill="white"/>
<path d="M201.75 247.744H189.271L188.973 247.23H201.48L201.75 247.744Z" fill="white"/>
<path d="M203.409 250.968H191.144L190.846 250.454H203.139L203.409 250.968Z" fill="white"/>
<path d="M205.059 254.182H193.092C192.971 254.013 192.849 253.845 192.738 253.677H204.798L205.059 254.182Z" fill="white"/>
<path d="M207.51 257.405H197.109C196.774 257.255 196.447 257.087 196.13 256.9H206.839C207.054 257.087 207.277 257.255 207.51 257.405Z" fill="white"/>
<path d="M171.507 204.3C171.423 206.767 164.442 208.766 155.849 208.766C147.256 208.766 140.276 206.776 140.192 204.3V184.876H171.507V204.3Z" fill="#73325A"/>
<path d="M169.428 207.524L169.382 209.831L168.935 232.357V231.703C168.935 225.92 164.256 221.23 158.487 221.23H157.853C154.908 221.23 152.252 222.379 150.285 224.229L148.915 214.942L148.067 209.196C150.36 209.579 153.016 209.794 155.84 209.794C161.656 209.785 166.716 208.869 169.428 207.524Z" fill="#A0505A"/>
<path d="M169.429 207.524L169.382 209.831C165.915 212.298 155.206 215.334 148.925 214.933L148.076 209.187C150.369 209.56 153.025 209.785 155.849 209.785C161.656 209.785 166.716 208.869 169.429 207.524Z" fill="#73325A"/>
<path d="M158.962 258.629H160.696C165.244 258.629 168.935 254.929 168.935 250.37V231.703C168.935 225.92 164.256 221.229 158.487 221.229H157.853C151.143 221.229 145.97 227.162 146.874 233.833L149.064 249.977C149.745 254.929 153.967 258.629 158.962 258.629Z" fill="white" stroke="#3FB1B5" stroke-width="0.5" stroke-miterlimit="10"/>
<path d="M166.344 256.377C164.871 257.769 162.877 258.629 160.696 258.629H158.962C153.967 258.629 149.745 254.929 149.074 249.977L146.883 233.833C146.846 233.525 146.809 233.216 146.8 232.917C147.359 229.339 150.444 226.602 154.172 226.602C156.008 226.602 157.704 227.274 159.018 228.395C160.332 229.517 161.255 231.096 161.544 232.917L164.424 252.621C164.638 254.088 165.328 255.396 166.344 256.377Z" fill="#3FB1B5"/>
<path d="M160.677 230.423H147.657C147.75 230.245 147.862 230.077 147.974 229.918H160.369C160.481 230.077 160.584 230.245 160.677 230.423Z" fill="white"/>
<path d="M161.646 233.637H146.855C146.837 233.469 146.818 233.301 146.809 233.133H161.572L161.646 233.637Z" fill="white"/>
<path d="M162.122 236.86H147.293L147.219 236.356H162.047L162.122 236.86Z" fill="white"/>
<path d="M162.588 240.083H147.732L147.657 239.569H162.513L162.588 240.083Z" fill="white"/>
<path d="M163.063 243.297H148.169L148.095 242.793H162.988L163.063 243.297Z" fill="white"/>
<path d="M163.529 246.52H148.598L148.533 246.016H163.455L163.529 246.52Z" fill="white"/>
<path d="M164.004 249.744H149.036L148.971 249.23H163.93L164.004 249.744Z" fill="white"/>
<path d="M164.48 252.958H149.959C149.875 252.79 149.801 252.621 149.736 252.453H164.396L164.424 252.621C164.442 252.734 164.461 252.846 164.48 252.958Z" fill="white"/>
<path d="M166.148 256.181H152.42C152.233 256.022 152.047 255.845 151.879 255.677H165.719C165.85 255.854 165.999 256.022 166.148 256.181Z" fill="white"/>
<path d="M178.282 103.341V119.075C177.602 117.29 172.215 117.542 166.288 119.794C161.208 121.728 157.396 124.381 156.837 126.222V104.079C156.837 97.4926 160.351 91.6066 165.747 88.3926C172.756 89.6166 178.282 95.7361 178.282 103.341Z" fill="#FFCF2D"/>
<path d="M156.427 89.1027C151.655 92.4287 148.617 97.9503 148.617 104.079V122.344H122.083L125.746 106.536C127.302 99.8002 132.167 94.4281 138.505 92.1391L156.427 89.1027Z" fill="#FFCF2D"/>
<path d="M210.091 167.284V203.954C210.091 201.46 202.775 199.442 194.126 199.442C185.477 199.442 178.469 201.46 178.469 203.954V186.381C178.469 185.558 177.798 184.886 176.978 184.886H129.408C115.102 184.886 104.524 171.535 107.758 157.567L119.24 107.975C121.067 100.062 127.46 94.0358 135.448 92.6717L138.505 92.1485C132.167 94.4375 127.302 99.8097 125.746 106.546L122.083 122.354H148.617V104.079C148.617 97.9504 151.664 92.4195 156.427 89.1027L160.621 88.3927C161.488 88.2432 162.336 88.1778 163.184 88.1778C163.296 88.1778 163.398 88.1778 163.51 88.1778C163.613 88.1778 163.715 88.1871 163.808 88.1871C163.827 88.1871 163.846 88.1871 163.864 88.1871C163.939 88.1871 164.023 88.1965 164.097 88.1965C164.107 88.1965 164.125 88.1965 164.135 88.1965C164.181 88.1965 164.228 88.2058 164.265 88.2058C164.349 88.2152 164.424 88.2152 164.507 88.2245C164.601 88.2339 164.703 88.2432 164.796 88.2525C164.89 88.2619 164.973 88.2712 165.067 88.2806C165.085 88.2806 165.104 88.2899 165.132 88.2899C165.225 88.2993 165.328 88.3179 165.421 88.3273C165.43 88.3273 165.439 88.3273 165.439 88.3273C165.542 88.346 165.644 88.3553 165.747 88.374C160.351 91.5879 156.837 97.4739 156.837 104.061V148.953H191.824C201.909 148.972 210.091 157.165 210.091 167.284Z" fill="#FE5244"/>
<path d="M157.033 88.6917C152.261 92.0177 148.608 97.9504 148.608 104.079V122.345H122.074L125.736 106.536C127.293 99.8003 131.748 94.3254 138.095 92.0364" stroke="white" stroke-width="0.5" stroke-miterlimit="10" stroke-linecap="round"/>
<path d="M178.469 180.747C178.469 175.543 180.305 170.507 183.651 166.536" stroke="white" stroke-width="0.5" stroke-miterlimit="10" stroke-linecap="round"/>
<path d="M139.707 178.888C139.66 178.888 139.614 178.878 139.577 178.85L138.346 178.177C138.207 178.103 138.16 177.935 138.234 177.794C138.309 177.654 138.477 177.608 138.617 177.682L139.847 178.355C139.987 178.43 140.033 178.598 139.959 178.738C139.903 178.831 139.81 178.888 139.707 178.888ZM140.937 178.57C140.835 178.57 140.742 178.514 140.695 178.42C140.62 178.28 140.667 178.112 140.807 178.037L142.037 177.365C142.177 177.29 142.345 177.346 142.419 177.477C142.494 177.617 142.447 177.785 142.307 177.86L141.077 178.533C141.03 178.551 140.984 178.57 140.937 178.57ZM137.247 177.552C137.2 177.552 137.153 177.542 137.116 177.514L135.886 176.841C135.746 176.767 135.699 176.599 135.774 176.458C135.849 176.318 136.016 176.272 136.156 176.346L137.386 177.019C137.526 177.094 137.573 177.262 137.498 177.402C137.442 177.495 137.349 177.552 137.247 177.552ZM143.388 177.225C143.286 177.225 143.193 177.168 143.146 177.075C143.072 176.935 143.118 176.767 143.258 176.692L144.488 176.019C144.703 175.907 144.898 175.776 145.094 175.636C145.215 175.543 145.392 175.571 145.485 175.692C145.579 175.814 145.551 175.991 145.43 176.085C145.215 176.243 144.991 176.384 144.758 176.514L143.528 177.187C143.482 177.215 143.435 177.225 143.388 177.225ZM134.814 176.169C134.758 176.169 134.702 176.15 134.646 176.113C134.255 175.823 133.891 175.487 133.584 175.104C133.481 174.982 133.5 174.805 133.621 174.711C133.742 174.609 133.919 174.627 134.013 174.749C134.292 175.094 134.618 175.393 134.972 175.655C135.094 175.748 135.122 175.926 135.038 176.047C134.991 176.131 134.907 176.169 134.814 176.169ZM146.268 175.188C146.203 175.188 146.147 175.169 146.091 175.122C145.97 175.029 145.951 174.851 146.054 174.73C146.334 174.384 146.567 174.011 146.753 173.599C146.818 173.459 146.986 173.394 147.126 173.459C147.266 173.525 147.331 173.693 147.266 173.833C147.06 174.282 146.8 174.702 146.492 175.076C146.427 175.15 146.352 175.188 146.268 175.188ZM133.062 174.029C132.959 174.029 132.857 173.973 132.81 173.87C132.605 173.422 132.456 172.955 132.363 172.469C132.335 172.32 132.437 172.17 132.587 172.142C132.736 172.114 132.885 172.217 132.913 172.366C132.997 172.805 133.127 173.226 133.314 173.628C133.379 173.768 133.314 173.936 133.174 174.001C133.136 174.02 133.099 174.029 133.062 174.029ZM147.424 172.665C147.405 172.665 147.387 172.665 147.377 172.665C147.228 172.637 147.126 172.488 147.154 172.338C147.21 172.03 147.238 171.722 147.238 171.413V170.993C147.238 170.834 147.359 170.713 147.517 170.713C147.676 170.713 147.797 170.834 147.797 170.993V171.413C147.797 171.759 147.769 172.105 147.704 172.441C147.676 172.572 147.554 172.665 147.424 172.665ZM132.549 171.301C132.391 171.301 132.27 171.18 132.27 171.021V169.619C132.27 169.461 132.391 169.339 132.549 169.339C132.708 169.339 132.829 169.461 132.829 169.619V171.021C132.829 171.17 132.698 171.301 132.549 171.301ZM147.508 169.872C147.349 169.872 147.228 169.75 147.228 169.591V168.19C147.228 168.031 147.349 167.91 147.508 167.91C147.666 167.91 147.787 168.031 147.787 168.19V169.591C147.787 169.75 147.666 169.872 147.508 169.872ZM132.549 168.498C132.391 168.498 132.27 168.377 132.27 168.218V166.817C132.27 166.658 132.391 166.536 132.549 166.536C132.708 166.536 132.829 166.658 132.829 166.817V168.218C132.829 168.367 132.698 168.498 132.549 168.498ZM147.508 167.069C147.349 167.069 147.228 166.947 147.228 166.789V165.387C147.228 165.228 147.349 165.107 147.508 165.107C147.666 165.107 147.787 165.228 147.787 165.387V166.789C147.787 166.947 147.666 167.069 147.508 167.069ZM132.549 165.695C132.391 165.695 132.27 165.574 132.27 165.415V164.014C132.27 163.855 132.391 163.733 132.549 163.733C132.708 163.733 132.829 163.855 132.829 164.014V165.415C132.829 165.565 132.698 165.695 132.549 165.695ZM147.508 164.266C147.349 164.266 147.228 164.144 147.228 163.986V162.584C147.228 162.425 147.349 162.304 147.508 162.304C147.666 162.304 147.787 162.425 147.787 162.584V163.986C147.787 164.144 147.666 164.266 147.508 164.266ZM132.549 162.893C132.391 162.893 132.27 162.771 132.27 162.612V161.407H133.025C133.183 161.407 133.304 161.529 133.304 161.687C133.304 161.846 133.183 161.968 133.025 161.968H132.829V162.612C132.829 162.762 132.698 162.893 132.549 162.893ZM147.005 161.968H145.607C145.448 161.968 145.327 161.846 145.327 161.687C145.327 161.529 145.448 161.407 145.607 161.407H147.005C147.163 161.407 147.284 161.529 147.284 161.687C147.284 161.846 147.163 161.968 147.005 161.968ZM144.209 161.968H142.811C142.652 161.968 142.531 161.846 142.531 161.687C142.531 161.529 142.652 161.407 142.811 161.407H144.209C144.367 161.407 144.488 161.529 144.488 161.687C144.488 161.846 144.367 161.968 144.209 161.968ZM141.413 161.968H140.015C139.856 161.968 139.735 161.846 139.735 161.687C139.735 161.529 139.856 161.407 140.015 161.407H141.413C141.571 161.407 141.692 161.529 141.692 161.687C141.692 161.846 141.571 161.968 141.413 161.968ZM138.617 161.968H137.219C137.06 161.968 136.939 161.846 136.939 161.687C136.939 161.529 137.06 161.407 137.219 161.407H138.617C138.775 161.407 138.896 161.529 138.896 161.687C138.896 161.846 138.775 161.968 138.617 161.968ZM135.821 161.968H134.423C134.264 161.968 134.143 161.846 134.143 161.687C134.143 161.529 134.264 161.407 134.423 161.407H135.821C135.979 161.407 136.1 161.529 136.1 161.687C136.1 161.846 135.979 161.968 135.821 161.968Z" fill="white"/>
<path d="M113.331 177.337C113.229 177.337 113.136 177.281 113.089 177.187C113.015 177.047 113.061 176.879 113.201 176.804L114.338 176.178C114.366 176.16 114.394 176.15 114.422 176.131C114.552 176.057 114.729 176.103 114.804 176.234C114.879 176.365 114.832 176.543 114.701 176.617C114.673 176.636 114.646 176.655 114.608 176.664L113.471 177.29C113.425 177.327 113.378 177.337 113.331 177.337ZM115.689 175.842C115.615 175.842 115.54 175.814 115.484 175.748C115.382 175.636 115.391 175.459 115.503 175.356C115.829 175.057 116.118 174.711 116.37 174.347C116.454 174.216 116.631 174.188 116.761 174.272C116.892 174.356 116.92 174.534 116.836 174.665C116.565 175.066 116.239 175.44 115.885 175.776C115.82 175.823 115.755 175.842 115.689 175.842ZM117.246 173.544C117.209 173.544 117.181 173.534 117.143 173.525C117.003 173.469 116.929 173.31 116.985 173.16C117.143 172.74 117.255 172.31 117.32 171.871C117.339 171.722 117.479 171.61 117.637 171.628C117.786 171.647 117.898 171.787 117.88 171.946C117.814 172.432 117.693 172.908 117.516 173.366C117.46 173.478 117.358 173.544 117.246 173.544ZM117.647 170.797C117.488 170.797 117.367 170.675 117.367 170.516V169.115C117.367 168.956 117.488 168.835 117.647 168.835C117.805 168.835 117.926 168.956 117.926 169.115V170.516C117.926 170.666 117.805 170.797 117.647 170.797ZM117.647 167.994C117.488 167.994 117.367 167.872 117.367 167.714V166.312C117.367 166.153 117.488 166.032 117.647 166.032C117.805 166.032 117.926 166.153 117.926 166.312V167.714C117.926 167.863 117.805 167.994 117.647 167.994ZM117.647 165.191C117.488 165.191 117.367 165.069 117.367 164.911V163.509C117.367 163.35 117.488 163.229 117.647 163.229C117.805 163.229 117.926 163.35 117.926 163.509V164.911C117.926 165.06 117.805 165.191 117.647 165.191ZM117.647 162.388C117.488 162.388 117.367 162.267 117.367 162.108V161.968H116.668C116.51 161.968 116.388 161.846 116.388 161.687C116.388 161.529 116.51 161.407 116.668 161.407H117.926V162.108C117.926 162.257 117.805 162.388 117.647 162.388ZM115.27 161.968H113.872C113.714 161.968 113.592 161.846 113.592 161.687C113.592 161.529 113.714 161.407 113.872 161.407H115.27C115.428 161.407 115.55 161.529 115.55 161.687C115.55 161.846 115.419 161.968 115.27 161.968ZM112.474 161.968H111.076C110.918 161.968 110.796 161.846 110.796 161.687C110.796 161.529 110.918 161.407 111.076 161.407H112.474C112.632 161.407 112.754 161.529 112.754 161.687C112.754 161.846 112.623 161.968 112.474 161.968ZM109.678 161.968H108.28C108.122 161.968 108 161.846 108 161.687C108 161.529 108.122 161.407 108.28 161.407H109.678C109.836 161.407 109.958 161.529 109.958 161.687C109.958 161.846 109.827 161.968 109.678 161.968Z" fill="white"/>
<path d="M178.282 119.075C178.963 120.859 174.657 124.026 168.739 126.278C162.82 128.53 157.517 128.875 156.837 127.082C156.157 125.288 160.36 122.055 166.287 119.804C172.215 117.552 177.602 117.281 178.282 119.075Z" fill="#FE5244"/>
<path d="M181.591 177.038V178.028C181.283 177.954 180.957 177.916 180.631 177.916H179.429C177.648 177.916 176.129 176.776 175.551 175.188L178.963 174.73C180.351 174.543 181.591 175.627 181.591 177.038Z" fill="#73325A"/>
<path d="M184.741 182.036V189.641C184.741 191.416 183.306 192.855 181.535 192.855H177.965C177.08 192.855 176.278 192.5 175.7 191.912C175.123 191.332 174.759 190.529 174.759 189.641H177.08C177.844 189.641 178.459 189.025 178.459 188.259V186.269C178.459 185.502 177.844 184.886 177.08 184.886H165.215C160.583 184.886 156.827 181.121 156.827 176.477V126.231C157.387 124.391 161.198 121.728 166.278 119.804C169.745 118.486 173.035 117.851 175.3 117.907V173.796C175.3 176.076 177.145 177.925 179.419 177.925H180.621C182.895 177.916 184.741 179.757 184.741 182.036Z" fill="#A0505A"/>
<path d="M175.3 117.898V122.98C173.613 124.12 171.329 125.288 168.729 126.269C162.802 128.52 157.508 128.866 156.827 127.072V126.222C157.387 124.381 161.198 121.719 166.278 119.794C169.754 118.477 173.035 117.841 175.3 117.898Z" fill="#73325A"/>
<path d="M159.801 80.0496L156.297 89.1028L138.234 92.3448L142.95 80.0496H159.801Z" fill="#A0505A"/>
<path d="M159.801 80.0496L157.909 84.9452L139.996 87.7481L142.951 80.0496H159.801Z" fill="#73325A"/>
<path d="M170.389 61.6255C170.389 62.8494 168.273 64.2042 165.831 65.344C162.504 66.9042 158.58 68.0908 158.58 68.0908L155.933 73.0892C159.531 75.0045 160.938 78.4427 161.497 80.8438C161.851 82.376 161.851 83.4691 161.851 83.4691H136.482C136.482 83.4691 129.819 61.8311 145.877 56.6551C155.7 53.4879 170.389 58.7199 170.389 61.6255Z" fill="white" stroke="#FFCF2D" stroke-width="0.5" stroke-miterlimit="10" stroke-linecap="round"/>
<path d="M143.528 59.7382C147.013 59.7382 149.838 56.9064 149.838 53.4131C149.838 49.9199 147.013 47.088 143.528 47.088C140.044 47.088 137.219 49.9199 137.219 53.4131C137.219 56.9064 140.044 59.7382 143.528 59.7382Z" fill="white" stroke="#FFCF2D" stroke-width="0.5" stroke-miterlimit="10" stroke-linecap="round"/>
<path d="M161.488 80.8436C160.966 78.5733 159.661 75.3407 156.446 73.388H155.617C154.852 73.388 154.153 73.0797 153.65 72.5752C153.147 72.0707 152.839 71.3699 152.839 70.6038C152.839 69.0623 154.079 67.8197 155.617 67.8197L159.13 67.8944H159.223C159.289 67.8757 159.354 67.8477 159.428 67.829C160.379 67.6235 163.389 66.8947 165.887 65.6428L166.176 67.3712L167.108 72.9115C167.742 76.7141 165.142 80.2176 161.488 80.8436Z" fill="#A0505A"/>
<path d="M166.167 67.362C163.11 68.6045 159.121 67.8852 159.121 67.8852C159.121 67.8852 162.877 67.1377 165.878 65.6335L166.167 67.362Z" fill="#73325A"/>
<path d="M157.779 71.1364C157.779 70.0713 156.921 69.2118 155.859 69.2118" stroke="#73325A" stroke-width="0.5" stroke-miterlimit="10" stroke-linecap="round"/>
<path d="M167.648 189.641L178.469 279.912" stroke="#66B0F0" stroke-width="0.5" stroke-miterlimit="10"/>
<path d="M120.741 189.641L109.929 279.912" stroke="#66B0F0" stroke-width="0.5" stroke-miterlimit="10"/>
<path d="M113.639 248.912H174.75" stroke="#66B0F0" stroke-width="0.5" stroke-miterlimit="10"/>
<path d="M111.337 189.641H177.052C177.835 189.641 178.469 189.006 178.469 188.221V186.297C178.469 185.512 177.835 184.876 177.052 184.876H111.337C110.554 184.876 109.92 185.512 109.92 186.297V188.221C109.929 189.006 110.563 189.641 111.337 189.641Z" fill="white" stroke="#FFCF2D" stroke-width="0.5" stroke-miterlimit="10"/>
</svg>
