<svg width="276" height="193" viewBox="0 0 276 193" fill="none" xmlns="http://www.w3.org/2000/svg">
<path d="M200.768 174.858H60.2839L117.692 38.6881H143.36L200.768 174.858Z" fill="#D0F0E4"/>
<path d="M128.092 28.4427L130.526 26.0109L132.96 28.4427" stroke="#FFCF2D" stroke-miterlimit="10"/>
<path d="M130.526 26.0108V17.8662" stroke="#FFCF2D" stroke-miterlimit="10"/>
<path d="M130.526 42.9342C132.69 42.9342 134.445 41.1813 134.445 39.019C134.445 36.8568 132.69 35.1039 130.526 35.1039C128.361 35.1039 126.607 36.8568 126.607 39.019C126.607 41.1813 128.361 42.9342 130.526 42.9342Z" fill="#FFCF2D" stroke="white" stroke-miterlimit="10"/>
<path d="M143.36 38.6881H117.697L118.04 37.1276C119.166 31.9883 124.415 28.2606 130.531 28.2606C133.589 28.2606 136.432 29.1925 138.646 30.7641C140.865 32.3357 142.455 34.5524 143.018 37.1221L143.36 38.6881Z" stroke="#9A3B82" stroke-miterlimit="10" stroke-linecap="round"/>
<path d="M170.077 126.509H167.471V142.941H170.077V126.509Z" fill="#66B0F0"/>
<path d="M217.389 142.941H202.556C202.021 142.941 201.607 142.478 201.673 141.949L203.738 124.54C203.793 124.093 204.174 123.757 204.621 123.757H219.453C219.989 123.757 220.403 124.22 220.336 124.75L218.272 142.158C218.217 142.605 217.836 142.941 217.389 142.941Z" fill="#9A3B82"/>
<path d="M209.307 142.941H197.594C196.876 142.941 196.319 142.313 196.402 141.601L197.903 128.924C197.975 128.323 198.488 127.865 199.095 127.865H211.09L209.307 142.941Z" fill="white" stroke="#FFCF2D" stroke-width="0.5" stroke-miterlimit="10"/>
<path d="M210.621 142.941H199.443C198.726 142.941 198.168 142.313 198.251 141.601L199.752 128.924C199.824 128.323 200.337 127.865 200.945 127.865H212.266C212.625 127.865 212.906 128.18 212.862 128.538L211.217 142.406C211.184 142.715 210.925 142.941 210.621 142.941Z" fill="white" stroke="#FFCF2D" stroke-width="0.5" stroke-miterlimit="10"/>
<path d="M174.763 128.979H170.242V142.941H174.763V128.979Z" stroke="#9A3B82" stroke-width="0.5" stroke-miterlimit="10" stroke-linecap="round"/>
<path d="M179.555 128.979H173.19V142.941H179.555V128.979Z" stroke="#9A3B82" stroke-width="0.5" stroke-miterlimit="10" stroke-linecap="round"/>
<path d="M187.266 142.941H185.505L178.953 127.446H180.714L187.266 142.941Z" stroke="#9A3B82" stroke-width="0.5" stroke-miterlimit="10" stroke-linecap="round"/>
<path d="M190.622 142.941H187.343L181.702 129.801H184.981L190.622 142.941Z" stroke="#9A3B82" stroke-width="0.5" stroke-miterlimit="10" stroke-linecap="round"/>
<path d="M167.306 128.979H162.746V142.941H167.306V128.979Z" stroke="#9A3B82" stroke-width="0.5" stroke-miterlimit="10" stroke-linecap="round"/>
<path d="M183.954 118.276H162.746V121H183.954V118.276Z" stroke="#9A3B82" stroke-width="0.5" stroke-miterlimit="10" stroke-linecap="round"/>
<path d="M189.612 116.192H162.746V118.386H189.612V116.192Z" fill="#FE5244"/>
<path d="M180.879 113.026H162.746V116.136H180.879V113.026Z" fill="#FFCF2D"/>
<path d="M183.954 110.65H162.746V112.971H183.954V110.65Z" stroke="#9A3B82" stroke-width="0.5" stroke-miterlimit="10" stroke-linecap="round"/>
<path d="M220.546 104.529L220.53 104.623L218.023 121H194.773L197.279 104.623L197.312 104.391C197.71 103.586 200.139 102.963 203.081 102.963C206.299 102.963 208.904 103.707 208.904 104.623C208.904 103.707 211.51 102.963 214.728 102.963C217.836 102.968 220.369 103.658 220.546 104.529Z" fill="white" stroke="#FFCF2D" stroke-width="0.5" stroke-miterlimit="10"/>
<path d="M206.426 121.005L208.91 104.628" stroke="#FFCF2D" stroke-width="0.5" stroke-miterlimit="10"/>
<path d="M206.426 121.005C206.426 120.09 203.821 119.346 200.602 119.346C197.384 119.346 194.779 120.09 194.779 121.005H206.426Z" fill="#FFCF2D"/>
<path d="M218.073 121.005C218.073 120.09 215.468 119.346 212.25 119.346C209.031 119.346 206.426 120.09 206.426 121.005H218.073Z" fill="#FFCF2D"/>
<path d="M206.514 120.658C206.481 119.743 209.059 118.91 212.277 118.794C214.286 118.723 216.268 119.004 217.311 119.406L219.795 103.807" stroke="#FFCF2D" stroke-width="0.5" stroke-miterlimit="10" stroke-linecap="round"/>
<path d="M218.691 99.0642H197.815V94.4211C197.815 93.9635 198.185 93.594 198.643 93.594H217.869C218.327 93.594 218.697 93.9635 218.697 94.4211V99.0642H218.691Z" fill="white" stroke="#9A3B82" stroke-width="0.5" stroke-miterlimit="10" stroke-linecap="round"/>
<path d="M220.358 93.3735H202.369C202.087 93.3735 201.866 93.1474 201.866 92.8717V91.0244C201.866 90.7432 202.093 90.5226 202.369 90.5226H220.358C220.64 90.5226 220.861 90.7487 220.861 91.0244V92.8717C220.861 93.1474 220.634 93.3735 220.358 93.3735Z" fill="#FFCF2D"/>
<path d="M221.059 88.7911H199.719V90.5226H221.059V88.7911Z" fill="#FE5244"/>
<path d="M220.673 88.791H204.384C204.168 88.791 203.997 88.6146 203.997 88.405V87.0099C203.997 86.7948 204.174 86.6239 204.384 86.6239H220.673C220.888 86.6239 221.059 86.8004 221.059 87.0099V88.405C221.059 88.6146 220.888 88.791 220.673 88.791Z" fill="white" stroke="#9A3B82" stroke-width="0.5" stroke-miterlimit="10" stroke-linecap="round"/>
<path d="M175.862 82.0305H169.597V99.0642H175.862V82.0305Z" stroke="#9A3B82" stroke-width="0.5" stroke-miterlimit="10" stroke-linecap="round"/>
<path d="M169.597 82.0305H167.068V99.0642H169.597V82.0305Z" fill="white" stroke="#9A3B82" stroke-width="0.5" stroke-miterlimit="10" stroke-linecap="round"/>
<path d="M167.068 82.0305H162.818V99.0642H167.068V82.0305Z" fill="white" stroke="#9A3B82" stroke-width="0.5" stroke-miterlimit="10" stroke-linecap="round"/>
<path d="M182.182 85.1074H176.69V99.0696H182.182V85.1074Z" stroke="#9A3B82" stroke-width="0.5" stroke-miterlimit="10" stroke-linecap="round"/>
<path d="M177.087 99.0641H174.923C174.714 99.0641 174.537 98.8932 174.537 98.6781V85.4824C174.537 85.2729 174.708 85.0964 174.923 85.0964H177.087C177.297 85.0964 177.474 85.2674 177.474 85.4824V98.6781C177.468 98.8932 177.297 99.0641 177.087 99.0641Z" fill="white" stroke="#9A3B82" stroke-width="0.5" stroke-miterlimit="10" stroke-linecap="round"/>
<path d="M182.182 85.1074V92.7613L179.207 85.1074H182.182Z" fill="#9A3B82"/>
<path d="M194.9 99.0641H186.112C185.919 99.0641 185.743 98.9428 185.676 98.7663L179.969 84.0873C179.847 83.7785 180.074 83.4476 180.405 83.4476H189.193C189.386 83.4476 189.562 83.5689 189.629 83.7454L195.336 98.4245C195.458 98.7333 195.231 99.0641 194.9 99.0641Z" fill="white" stroke="#FFCF2D" stroke-width="0.5" stroke-miterlimit="10"/>
<path d="M196.335 99.0641H187.548C187.354 99.0641 187.178 98.9428 187.111 98.7663L181.404 84.0873C181.282 83.7785 181.509 83.4476 181.84 83.4476H190.628C190.821 83.4476 190.998 83.5689 191.064 83.7454L196.772 98.4245C196.893 98.7333 196.667 99.0641 196.335 99.0641Z" fill="white" stroke="#FFCF2D" stroke-width="0.5" stroke-miterlimit="10"/>
<path d="M211.769 73.4007C210.947 73.6323 210.075 73.7591 209.18 73.7591C203.953 73.7591 199.719 69.5296 199.719 64.3076C199.719 60.001 202.606 56.3615 206.553 55.2256L211.769 73.4007Z" stroke="#FFCF2D" stroke-width="0.5" stroke-miterlimit="10"/>
<path d="M209.18 73.759V77.1283" stroke="#FFCF2D" stroke-width="0.5" stroke-miterlimit="10"/>
<path d="M209.18 72.3144C213.607 72.3144 217.195 68.7297 217.195 64.3076C217.195 59.8856 213.607 56.3009 209.18 56.3009C204.754 56.3009 201.165 59.8856 201.165 64.3076C201.165 68.7297 204.754 72.3144 209.18 72.3144Z" fill="white" stroke="#3FB1B5" stroke-width="0.5" stroke-miterlimit="10"/>
<path d="M212.531 77.1063H205.857L209.169 75.4465L212.531 77.1063Z" fill="white" stroke="#FFCF2D" stroke-width="0.5" stroke-miterlimit="10"/>
<path d="M221.059 77.1284V174.858H218.04V167.745C218.04 166.162 216.754 164.877 215.17 164.877H168.603C167.019 164.877 165.732 166.162 165.732 167.745V174.858H162.746V77.1284H221.059Z" stroke="#9A3B82" stroke-width="0.5" stroke-miterlimit="10" stroke-linecap="round"/>
<path d="M216.87 162.17H166.825C166.191 162.17 165.672 161.657 165.672 161.017V146.63C165.672 145.996 166.185 145.478 166.825 145.478H216.87C217.505 145.478 218.023 145.991 218.023 146.63V161.017C218.023 161.657 217.505 162.17 216.87 162.17Z" stroke="#3FB1B5" stroke-width="0.5" stroke-miterlimit="10"/>
<path d="M194.486 63.7065V77.1283H189.783L194.486 63.7065Z" fill="#9A3B82"/>
<path d="M194.486 63.7065L194.453 63.8057L189.811 77.1283H168.228L172.87 63.8057L173.019 63.3811C173.714 62.3831 175.641 61.6552 177.937 61.6166C177.976 61.6166 178.009 61.6166 178.048 61.6166C178.086 61.6166 178.119 61.6166 178.158 61.6166C180.841 61.6166 183.231 62.5485 183.667 63.7727C184.098 62.5485 186.383 61.6166 189.066 61.6166C191.693 61.6166 193.995 62.5154 194.486 63.7065Z" fill="white" stroke="#FFCF2D" stroke-width="0.5" stroke-miterlimit="10"/>
<path d="M183.661 63.7727L178.975 76.8526" stroke="#FFCF2D" stroke-width="0.5" stroke-miterlimit="10" stroke-linecap="round"/>
<path d="M178.964 76.9627H168.228C168.625 75.722 170.855 74.7681 173.538 74.7681C176.232 74.7681 178.567 75.722 178.964 76.9627Z" fill="#FFCF2D"/>
<path d="M189.783 76.9627H179.047C179.444 75.722 181.674 74.7681 184.357 74.7681C187.051 74.7681 189.386 75.722 189.783 76.9627Z" fill="#FFCF2D"/>
<path d="M188.254 149.74C188.254 149.31 188.602 148.957 189.038 148.957H194.895C195.325 148.957 195.678 149.305 195.678 149.74" stroke="#9A3B82" stroke-width="0.5" stroke-miterlimit="10" stroke-linecap="round"/>
<path d="M162.746 121.006H221.059" stroke="#9A3B82" stroke-width="0.5" stroke-miterlimit="10" stroke-linecap="round"/>
<path d="M162.746 99.0641H221.059" stroke="#9A3B82" stroke-width="0.5" stroke-miterlimit="10" stroke-linecap="round"/>
<path d="M162.746 142.941H221.059" stroke="#9A3B82" stroke-width="0.5" stroke-miterlimit="10" stroke-linecap="round"/>
<path d="M169.922 56.6372L162.746 77.1283H221.059L228.235 56.6372" stroke="#9A3B82" stroke-width="0.5" stroke-miterlimit="10" stroke-linecap="round" stroke-linejoin="round"/>
<path d="M234.782 169.597C234.782 170.706 234.578 171.77 234.203 172.757C233.656 174.191 232.271 175.128 230.73 175.128H219.045C217.51 175.128 216.119 174.191 215.578 172.757C215.203 171.77 214.998 170.706 214.998 169.597C214.998 166.399 216.693 163.576 219.282 161.888V160.025C219.282 160.841 221.794 161.502 224.885 161.502C227.982 161.502 230.488 160.841 230.488 160.025V161.894C233.088 163.576 234.782 166.399 234.782 169.597Z" fill="#FE5244"/>
<path d="M230.499 161.381V161.877C229.61 162.583 227.192 162.958 224.896 162.958C222.6 162.958 220.182 162.583 219.293 161.877V161.381C219.398 161.618 219.845 161.927 220.839 162.186C221.921 162.473 223.361 162.627 224.896 162.627C226.43 162.627 227.871 162.473 228.953 162.186C229.947 161.921 230.388 161.613 230.499 161.381Z" fill="white"/>
<path d="M230.499 160.025C230.499 160.841 227.987 161.502 224.896 161.502C221.805 161.502 219.293 160.841 219.293 160.025C219.293 159.92 219.332 159.821 219.409 159.721C219.939 159.054 222.191 158.547 224.896 158.547C227.601 158.547 229.853 159.049 230.383 159.721C230.454 159.821 230.499 159.92 230.499 160.025Z" fill="#66B0F0"/>
<path d="M217.394 167.254C217.784 167.254 218.101 166.938 218.101 166.548C218.101 166.158 217.784 165.842 217.394 165.842C217.004 165.842 216.688 166.158 216.688 166.548C216.688 166.938 217.004 167.254 217.394 167.254Z" stroke="#FFCF2D" stroke-miterlimit="10"/>
<path d="M219.79 168.991C220.18 168.991 220.496 168.675 220.496 168.285C220.496 167.895 220.18 167.579 219.79 167.579C219.4 167.579 219.083 167.895 219.083 168.285C219.083 168.675 219.4 168.991 219.79 168.991Z" stroke="#FFCF2D" stroke-miterlimit="10"/>
<path d="M222.771 166.928C223.161 166.928 223.477 166.612 223.477 166.223C223.477 165.833 223.161 165.517 222.771 165.517C222.38 165.517 222.064 165.833 222.064 166.223C222.064 166.612 222.38 166.928 222.771 166.928Z" stroke="#FFCF2D" stroke-miterlimit="10"/>
<path d="M222.351 171.616C222.741 171.616 223.058 171.3 223.058 170.91C223.058 170.52 222.741 170.204 222.351 170.204C221.961 170.204 221.644 170.52 221.644 170.91C221.644 171.3 221.961 171.616 222.351 171.616Z" stroke="#FFCF2D" stroke-miterlimit="10"/>
<path d="M219.701 173.673C220.092 173.673 220.408 173.357 220.408 172.967C220.408 172.577 220.092 172.261 219.701 172.261C219.311 172.261 218.995 172.577 218.995 172.967C218.995 173.357 219.311 173.673 219.701 173.673Z" stroke="#FFCF2D" stroke-miterlimit="10"/>
<path d="M217.03 171.616C217.42 171.616 217.736 171.3 217.736 170.91C217.736 170.52 217.42 170.204 217.03 170.204C216.64 170.204 216.323 170.52 216.323 170.91C216.323 171.3 216.64 171.616 217.03 171.616Z" stroke="#FFCF2D" stroke-miterlimit="10"/>
<path d="M220.176 164.635C220.566 164.635 220.883 164.319 220.883 163.929C220.883 163.539 220.566 163.223 220.176 163.223C219.786 163.223 219.47 163.539 219.47 163.929C219.47 164.319 219.786 164.635 220.176 164.635Z" stroke="#FFCF2D" stroke-miterlimit="10"/>
<path d="M225.801 165.169C226.191 165.169 226.508 164.853 226.508 164.464C226.508 164.074 226.191 163.758 225.801 163.758C225.411 163.758 225.095 164.074 225.095 164.464C225.095 164.853 225.411 165.169 225.801 165.169Z" stroke="#FFCF2D" stroke-miterlimit="10"/>
<path d="M225.21 169.449C225.601 169.449 225.917 169.133 225.917 168.743C225.917 168.353 225.601 168.037 225.21 168.037C224.82 168.037 224.504 168.353 224.504 168.743C224.504 169.133 224.82 169.449 225.21 169.449Z" stroke="#FFCF2D" stroke-miterlimit="10"/>
<path d="M227.253 172.261C227.643 172.261 227.959 171.945 227.959 171.555C227.959 171.165 227.643 170.849 227.253 170.849C226.863 170.849 226.546 171.165 226.546 171.555C226.546 171.945 226.863 172.261 227.253 172.261Z" stroke="#FFCF2D" stroke-miterlimit="10"/>
<path d="M224.603 174.378C224.993 174.378 225.31 174.062 225.31 173.672C225.31 173.283 224.993 172.967 224.603 172.967C224.213 172.967 223.897 173.283 223.897 173.672C223.897 174.062 224.213 174.378 224.603 174.378Z" stroke="#FFCF2D" stroke-miterlimit="10"/>
<path d="M228.009 167.761C228.399 167.761 228.716 167.445 228.716 167.055C228.716 166.666 228.399 166.349 228.009 166.349C227.619 166.349 227.303 166.666 227.303 167.055C227.303 167.445 227.619 167.761 228.009 167.761Z" stroke="#FFCF2D" stroke-miterlimit="10"/>
<path d="M230.057 164.866C230.447 164.866 230.764 164.55 230.764 164.16C230.764 163.77 230.447 163.454 230.057 163.454C229.667 163.454 229.35 163.77 229.35 164.16C229.35 164.55 229.667 164.866 230.057 164.866Z" stroke="#FFCF2D" stroke-miterlimit="10"/>
<path d="M232.386 167.21C232.777 167.21 233.093 166.894 233.093 166.504C233.093 166.114 232.777 165.798 232.386 165.798C231.996 165.798 231.68 166.114 231.68 166.504C231.68 166.894 231.996 167.21 232.386 167.21Z" stroke="#FFCF2D" stroke-miterlimit="10"/>
<path d="M229.72 169.52C230.111 169.52 230.427 169.204 230.427 168.814C230.427 168.425 230.111 168.109 229.72 168.109C229.33 168.109 229.014 168.425 229.014 168.814C229.014 169.204 229.33 169.52 229.72 169.52Z" stroke="#FFCF2D" stroke-miterlimit="10"/>
<path d="M232.911 170.998C233.301 170.998 233.617 170.682 233.617 170.292C233.617 169.902 233.301 169.586 232.911 169.586C232.521 169.586 232.204 169.902 232.204 170.292C232.204 170.682 232.521 170.998 232.911 170.998Z" stroke="#FFCF2D" stroke-miterlimit="10"/>
<path d="M230.764 173.711C231.154 173.711 231.47 173.395 231.47 173.005C231.47 172.615 231.154 172.299 230.764 172.299C230.373 172.299 230.057 172.615 230.057 173.005C230.057 173.395 230.373 173.711 230.764 173.711Z" stroke="#FFCF2D" stroke-miterlimit="10"/>
<path d="M237.272 151.433C237.272 151.433 242.516 148.605 243.382 153.545C244.387 159.253 237.564 164.276 237.564 164.276C237.564 164.276 236.096 160.642 232.16 157.51C228.754 154.803 231.581 147.623 237.272 151.433Z" fill="white" stroke="#FFCF2D" stroke-miterlimit="10"/>
<path d="M226.977 145.142C229.466 145.164 233.043 140.112 229.665 134.571C225.586 127.876 224.885 124 224.885 124C224.885 124 218.885 131.929 219.906 138.012C221.026 144.673 226.977 145.142 226.977 145.142Z" fill="#FFCF2D"/>
<path d="M227.407 141.778C231.045 142.737 234.501 140.526 234.572 135.486C234.699 126.575 236.388 123.674 236.388 123.674C236.388 123.674 225.056 127.749 223.339 134.08C221.705 140.113 227.407 141.778 227.407 141.778Z" fill="white" stroke="#FFCF2D" stroke-miterlimit="10"/>
<path d="M212.205 147.645C212.073 147.656 211.935 147.667 211.786 147.678C203.958 148.263 201.706 155.42 201.706 155.42C201.706 155.42 201.226 154.902 201.325 153.11C201.513 148.489 205.769 143.713 210.627 146.746C211.168 147.088 211.697 147.38 212.205 147.645Z" fill="#FFCF2D"/>
<path d="M221.082 149.404C219.702 149.492 216.55 149.873 212.205 147.645C211.697 147.386 211.168 147.088 210.627 146.746C205.769 143.713 201.623 148.489 201.436 153.11C201.425 153.336 201.48 153.562 201.491 153.782C201.033 149.768 201.044 139.776 213.204 140.113C221.562 140.355 221.082 149.404 221.082 149.404Z" fill="white" stroke="#FFCF2D" stroke-miterlimit="10"/>
<path d="M223.069 159.732C223.069 159.732 224.509 139.677 205.04 142.296" stroke="#FFCF2D" stroke-miterlimit="10"/>
<path d="M236.389 123.674C224.123 136.192 226.408 159.732 226.408 159.732C225.117 150.728 233.043 141.778 237.266 151.196C238.525 153.997 237.559 164.271 237.559 164.271" stroke="#FFCF2D" stroke-miterlimit="10"/>
<path d="M54.648 143.967L53.003 145.406C52.738 145.092 52.5007 144.745 52.2965 144.364L42.0403 125.274C41.6097 124.474 42.1893 123.509 43.0946 123.509H44.5298C45.678 123.509 46.7268 124.138 47.2677 125.147L55.3324 140.157C56.028 141.436 55.7409 143.019 54.648 143.967Z" fill="#FFCF2D"/>
<path d="M82.5682 144.386L58.7052 149.283V148.786C58.7052 146.41 60.3778 144.364 62.7072 143.884L78.0804 140.73C80.3988 140.256 82.5682 142.026 82.5682 144.386Z" fill="#FFCF2D"/>
<path d="M79.8633 174.858V150.976C79.8633 148.996 78.0472 147.518 76.1042 147.915L61.1174 150.987C59.3344 151.351 57.8661 152.597 57.2148 154.295L49.3046 174.858" stroke="#9A3B82" stroke-miterlimit="10" stroke-linecap="round"/>
<path d="M41.9796 125.169L53.6323 146.857C54.6314 148.715 56.729 149.696 58.799 149.272L82.6233 144.386" stroke="#9A3B82" stroke-miterlimit="10" stroke-linecap="round"/>
<path d="M91.0303 126.674H70.8658V129.365H91.0303V126.674Z" fill="#66B0F0"/>
<path d="M87.354 123.752C87.5969 123.978 87.7459 124.386 87.7459 124.728C87.7459 125.411 87.1497 126.112 86.4101 126.112H68.0174C68.0174 126.432 68.2769 126.691 68.597 126.691H90.7929C91.3891 126.691 91.9245 126.47 92.3165 126.106C92.7084 125.748 92.9457 125.246 92.9457 124.695C92.9457 123.592 91.9797 122.704 90.7929 122.704H68.597C68.2769 122.704 68.0174 122.963 68.0174 123.283V123.388H86.4101C86.7799 123.393 87.1111 123.531 87.354 123.752Z" fill="#FE5244"/>
<path d="M69.3477 123.393V126.062H68.0229V126.283H86.4763C86.6805 126.283 86.8792 126.244 87.0559 126.172C87.2546 126.095 87.4312 125.974 87.5748 125.83C87.8563 125.549 88.0329 125.158 88.0329 124.728C88.0329 123.867 87.3319 123.173 86.4763 123.173H68.0229V123.393H69.3477V123.393Z" fill="#FE5244"/>
<path d="M68.8344 123.393V126.062H86.4101C87.1497 126.062 87.7459 125.467 87.7459 124.728C87.7459 124.358 87.5969 124.027 87.354 123.785C87.1111 123.542 86.7799 123.393 86.4101 123.393H68.8344V123.393Z" fill="white"/>
<path d="M68.8344 123.393V126.062" stroke="#FE5244" stroke-miterlimit="10"/>
<path d="M83.9537 125.285V127.512H85.4938V125.571C85.4938 125.108 85.8691 124.733 86.3328 124.733H87.0173V124.446H84.7872C84.3346 124.446 83.9537 124.821 83.9537 125.285Z" fill="#FFCF2D"/>
<path d="M59.5443 131.67C59.5443 130.496 60.4992 129.542 61.675 129.542H103.572C104.748 129.542 105.703 130.496 105.703 131.67" stroke="#9A3B82" stroke-miterlimit="10" stroke-linecap="round"/>
<path d="M105.736 174.858L93.9062 133.699C93.3818 131.88 91.5767 130.611 89.5123 130.611H75.7288C73.6643 130.611 71.8593 131.88 71.3349 133.699L59.5111 174.858" stroke="#9A3B82" stroke-miterlimit="10" stroke-linecap="round"/>
<path d="M115.666 167.733V173.733C115.666 174.356 116.168 174.858 116.792 174.858H131.807C131.807 174.858 131.895 172.073 129.61 171.296C125.729 169.978 123.919 167.733 123.919 167.733H115.666V167.733Z" fill="white" stroke="#FE5244" stroke-width="0.5" stroke-miterlimit="10"/>
<path d="M124.018 170.805C124.631 170.634 126.839 169.415 126.082 168.66C125.724 168.301 124.862 168.66 124.862 168.66" stroke="#FE5244" stroke-width="0.5" stroke-miterlimit="10"/>
<path d="M126.281 171.632C126.894 171.461 129.014 170.099 128.18 169.432C127.551 168.925 126.607 169.906 126.607 169.906" stroke="#FE5244" stroke-width="0.5" stroke-miterlimit="10"/>
<path d="M124.382 168.219L115.666 170.926V167.733H123.924C123.924 167.733 124.073 167.921 124.382 168.219Z" fill="#FE5244"/>
<path d="M134.489 167.733V173.733C134.489 174.356 134.992 174.858 135.615 174.858H150.63C150.63 174.858 150.718 172.073 148.433 171.296C144.552 169.978 142.742 167.733 142.742 167.733H134.489V167.733Z" fill="white" stroke="#FE5244" stroke-width="0.5" stroke-miterlimit="10"/>
<path d="M142.841 170.805C143.454 170.634 145.662 169.415 144.906 168.66C144.547 168.301 143.686 168.66 143.686 168.66" stroke="#FE5244" stroke-width="0.5" stroke-miterlimit="10"/>
<path d="M145.104 171.632C145.717 171.461 147.837 170.099 147.003 169.432C146.374 168.925 145.43 169.906 145.43 169.906" stroke="#FE5244" stroke-width="0.5" stroke-miterlimit="10"/>
<path d="M143.205 168.219L134.489 170.926V167.733H142.747C142.747 167.733 142.896 167.921 143.205 168.219Z" fill="#FE5244"/>
<path d="M119.723 108.014L114.286 164.877H125.657L131.371 137.322L133.706 143.195V164.877H145.546V140.565L139.231 108.014H119.723Z" fill="#3FB1B5"/>
<path d="M125.646 121.673L120.358 164.877" stroke="#9A3B82" stroke-width="0.5" stroke-miterlimit="10"/>
<path d="M139.419 164.877V140.565L132 110.771" stroke="#9A3B82" stroke-width="0.5" stroke-miterlimit="10"/>
<path d="M133.54 143.195L126.452 122.632C126.209 121.926 125.541 121.452 124.791 121.452" stroke="white" stroke-width="0.5" stroke-miterlimit="10"/>
<path d="M118.824 117.416L119.723 108.014H139.231L139.789 110.903L118.824 117.416Z" fill="#9A3B82"/>
<path d="M145.568 167.734H133.661C133.214 167.734 132.85 167.37 132.85 166.923V165.688C132.85 165.241 133.214 164.877 133.661 164.877H145.568C146.015 164.877 146.379 165.241 146.379 165.688V166.923C146.374 167.37 146.015 167.734 145.568 167.734Z" fill="#9A3B82"/>
<path d="M125.862 167.734H113.955C113.508 167.734 113.143 167.37 113.143 166.923V165.688C113.143 165.241 113.508 164.877 113.955 164.877H125.862C126.309 164.877 126.673 165.241 126.673 165.688V166.923C126.667 167.37 126.309 167.734 125.862 167.734Z" fill="#9A3B82"/>
<path d="M157.64 109.679L161.372 123.625L142.769 128.593L139.032 114.636C138.916 114.201 138.635 113.859 138.276 113.649C137.917 113.44 137.476 113.368 137.04 113.484C136.173 113.716 135.654 114.609 135.886 115.475L139.623 129.431L139.214 129.542L135.483 115.596C135.185 114.488 135.825 113.352 136.918 113.021C136.94 113.015 136.962 113.01 136.984 113.004L155.046 108.179C156.177 107.881 157.337 108.554 157.64 109.679Z" fill="#66B0F0"/>
<path d="M139.446 114.543L143.178 128.488L142.769 128.599L139.032 114.642C138.916 114.206 138.635 113.864 138.276 113.655C137.917 113.445 137.476 113.374 137.04 113.489C136.173 113.721 135.654 114.614 135.886 115.48L139.623 129.437L139.214 129.547L135.483 115.601C135.185 114.493 135.825 113.357 136.918 113.026C138.028 112.767 139.148 113.434 139.446 114.543Z" fill="#9A3B82"/>
<path d="M139.032 114.636L142.537 127.738L139.391 128.576L135.886 115.475C135.654 114.609 136.167 113.716 137.04 113.484C137.476 113.368 137.917 113.44 138.276 113.649C138.635 113.859 138.916 114.201 139.032 114.636Z" fill="white"/>
<path d="M157.695 117.068L149.233 119.98L142.554 108.014H116.665C112.266 108.014 108.976 103.972 109.876 99.6707L112.569 86.7452C113.414 82.6978 116.985 79.7972 121.12 79.7972H138.823C143.112 79.7972 146.766 82.9073 147.445 87.1368L150.111 99.7204L157.695 117.068Z" fill="#FFCF2D" stroke="white" stroke-width="0.5" stroke-miterlimit="10"/>
<path d="M115.285 107.876C112.238 107.264 109.975 104.672 109.743 101.617C109.975 101.457 110.234 101.319 110.51 101.22C112.514 100.481 114.805 101.694 115.639 103.928C116.152 105.328 115.975 106.795 115.285 107.876Z" fill="white"/>
<path d="M134.561 72.0442V79.8028H125.988L127.965 74.6414L134.561 72.0442Z" fill="#E57281"/>
<path d="M136.532 68.7796C136.526 68.7796 136.515 68.7852 136.51 68.7852L133.965 69.4579C133.054 69.7005 132.353 70.3733 132.055 71.2225H131.078C130.46 71.2225 129.957 71.7243 129.957 72.3419V72.3584C129.957 72.9429 130.405 73.4227 130.979 73.4723C130.973 73.4778 130.973 73.4778 130.973 73.4778C130.973 73.4778 130.52 75.6284 127.876 74.906C127.876 74.906 127.981 69.2484 128.092 67.4893C128.185 66.039 135.886 63.2929 136.598 64.462C137.227 65.4986 136.499 65.9839 135.88 66.199C136.973 65.9674 139.038 65.6586 139.248 66.5794C139.49 67.6492 137.31 68.5756 136.532 68.7796Z" fill="#9A3B82"/>
<path d="M137.029 72.7445H136.758L136.835 74.0679C136.891 75.0164 136.129 75.8215 135.179 75.8215H133.987C132.839 75.8215 131.906 74.8896 131.906 73.7426V73.4834H131.083C130.465 73.4834 129.963 72.9816 129.963 72.364V72.3475C129.963 71.7299 130.465 71.2281 131.083 71.2281H132.061C132.359 70.3789 133.06 69.7006 133.97 69.4635L136.515 68.7908L137.387 72.2813C137.476 72.5019 137.266 72.7445 137.029 72.7445Z" fill="#E57281"/>
<path d="M132.165 73.8474C132.049 75.0606 133.264 75.9263 134.412 75.9263" stroke="#9A3B82" stroke-width="0.5" stroke-miterlimit="10" stroke-linecap="round"/>
<path d="M131.718 72.5516C131.718 72.1215 131.371 71.774 130.94 71.774" stroke="#9A3B82" stroke-width="0.5" stroke-miterlimit="10" stroke-linecap="round"/>
<path d="M136.09 71.763C136.203 71.763 136.294 71.5729 136.294 71.3384C136.294 71.1039 136.203 70.9138 136.09 70.9138C135.977 70.9138 135.886 71.1039 135.886 71.3384C135.886 71.5729 135.977 71.763 136.09 71.763Z" fill="#9A3B82"/>
<path d="M135.207 70.4451C135.207 70.4451 135.886 69.9268 136.857 69.9268" stroke="#9A3B82" stroke-width="0.5" stroke-miterlimit="10" stroke-linecap="round"/>
<path d="M132.579 111.548C132.579 111.548 139.341 111.841 141.72 106.42L140.462 104.121L136.703 105.565L132.579 111.548Z" fill="white" stroke="#FE5244" stroke-width="0.5" stroke-miterlimit="10"/>
<path d="M137.994 78.3805C137.669 78.4081 137.371 78.5514 137.15 78.772C136.907 79.0146 136.752 79.351 136.752 79.726V106.895C136.752 109.487 134.649 111.588 132.055 111.588H121.628C118.824 111.588 116.66 109.156 116.958 106.393V106.388L120.711 80.5972C120.899 79.3234 121.986 78.3805 123.278 78.3805H137.994V78.3805Z" fill="#FE5244" stroke="#FE5244" stroke-width="0.5" stroke-miterlimit="10"/>
<path d="M136.947 78.38C136.621 78.4076 136.323 78.551 136.102 78.7715C135.898 78.9756 135.76 79.2403 135.721 79.538C135.716 79.5987 135.71 79.6593 135.71 79.72L135.489 81.7989L132.84 106.889C132.84 109.481 130.737 111.582 128.142 111.582H121.634C118.83 111.582 116.666 109.15 116.964 106.387V106.382L118.659 94.7244L120.718 80.5913C120.734 80.4699 120.762 80.3486 120.795 80.2273C121.115 79.141 122.12 78.3745 123.279 78.3745H136.947V78.38Z" fill="white" stroke="#FE5244" stroke-width="0.5" stroke-miterlimit="10"/>
<path d="M134.622 83.7896L133.634 91.1953C133.308 92.7117 132.127 93.5223 130.416 93.798L118.713 95.4964L120.419 83.7841H134.622V83.7896Z" fill="#FFCF2D"/>
<path d="M136.526 78.3801H136.234C135.704 78.3746 135.24 78.7495 135.135 79.2734L133.413 90.3736C133.087 91.8901 131.746 92.9764 130.195 92.9764H119.425C118.122 92.9764 117.151 91.7742 117.432 90.5004L119.508 81.0821C119.856 79.505 121.258 78.3801 122.875 78.3801H136.526Z" fill="#FE5244" stroke="#FE5244" stroke-width="0.5" stroke-miterlimit="10"/>
<path d="M127.65 96.0644L130.393 79.3065C130.449 78.9701 130.741 78.7164 131.083 78.7164C131.514 78.7164 131.845 79.1024 131.773 79.5325L129.03 96.2905C128.975 96.6269 128.682 96.8805 128.34 96.8805C127.909 96.8805 127.578 96.4945 127.65 96.0644Z" fill="white" stroke="#FE5244" stroke-width="0.5" stroke-miterlimit="10"/>
<path d="M121.517 96.0644L124.261 79.3065C124.316 78.9701 124.609 78.7164 124.951 78.7164C125.381 78.7164 125.713 79.1024 125.641 79.5325L122.897 96.2905C122.842 96.6269 122.55 96.8805 122.207 96.8805C121.777 96.8805 121.446 96.4945 121.517 96.0644Z" fill="white" stroke="#FE5244" stroke-width="0.5" stroke-miterlimit="10"/>
<path d="M139.457 79.8082L136.758 79.8192V79.7255C136.758 79.3505 136.907 79.0141 137.155 78.7715C137.376 78.5509 137.669 78.4076 138 78.38H138.221C138.9 78.4351 139.435 79.0086 139.457 79.8082Z" fill="white" stroke="#FE5244" stroke-width="0.5" stroke-miterlimit="10"/>
<path d="M156.686 117.416L158.96 123.277C159.324 124.22 158.794 125.268 157.823 125.538L152.827 126.906C152.524 126.988 152.204 126.917 151.966 126.713L151.458 126.272L152.496 125.996C152.954 125.875 153.263 125.45 153.241 124.976L153.125 123.807C153.103 123.283 152.678 122.864 152.154 122.847H152.209C151.574 122.825 150.956 122.434 150.708 121.849L149.913 119.737L156.686 117.416Z" fill="#E57281"/>
<path d="M151.563 126.387L152.38 126.167C152.838 126.045 153.147 125.676 153.125 125.202L153.064 123.922C153.042 123.399 152.617 122.98 152.093 122.963C151.458 122.941 150.895 122.549 150.646 121.965L149.796 119.963" stroke="white" stroke-width="0.5" stroke-miterlimit="10" stroke-linecap="round"/>
<path d="M154.234 126.376C154.819 126.222 155.217 125.682 155.189 125.075L155.112 123.443" stroke="white" stroke-width="0.5" stroke-miterlimit="10" stroke-linecap="round"/>
<path d="M156.348 125.83C156.934 125.676 157.331 125.136 157.303 124.529L157.226 122.897" stroke="white" stroke-width="0.5" stroke-miterlimit="10" stroke-linecap="round"/>
<path d="M137.437 92.9763L138.773 99.9574C138.999 101.148 139.419 102.301 140.009 103.36L149.228 119.98L157.69 117.068" stroke="white" stroke-width="0.5" stroke-miterlimit="10"/>
<path d="M143.029 108.808L140.009 103.36C139.501 102.439 139.121 101.457 138.878 100.437C139.165 100.343 139.463 100.277 139.777 100.25C142.162 100.04 144.276 102.042 144.503 104.716C144.635 106.337 144.044 107.832 143.029 108.808Z" fill="white"/>
</svg>
