<svg width="653" height="457" viewBox="0 0 653 457" fill="none" xmlns="http://www.w3.org/2000/svg">
<path d="M475.005 414.042H142.628L278.452 91.6089H339.181L475.005 414.042Z" fill="#D0F0E4"/>
<path d="M303.057 67.3488L308.817 61.5906L314.576 67.3488" stroke="#FFCF2D" stroke-width="6" stroke-miterlimit="10"/>
<path d="M308.817 61.5906V42.3052" stroke="#FFCF2D" stroke-miterlimit="10"/>
<path d="M308.817 101.663C313.938 101.663 318.089 97.5124 318.089 92.3924C318.089 87.2724 313.938 83.1218 308.817 83.1218C303.696 83.1218 299.544 87.2724 299.544 92.3924C299.544 97.5124 303.696 101.663 308.817 101.663Z" fill="#FFCF2D" stroke="white" stroke-width="6" stroke-miterlimit="10"/>
<path d="M339.181 91.609H278.465L279.275 87.9138C281.939 75.7446 294.359 66.918 308.83 66.918C316.065 66.918 322.791 69.1246 328.028 72.8459C333.278 76.5672 337.039 81.8162 338.371 87.9008L339.181 91.609Z" stroke="#9A3B82" stroke-miterlimit="10" stroke-linecap="round"/>
<path d="M402.392 299.557H396.228V338.467H402.392V299.557Z" fill="#66B0F0"/>
<path d="M514.329 338.467H479.237C477.97 338.467 476.991 337.37 477.147 336.117L482.032 294.896C482.162 293.838 483.064 293.042 484.121 293.042H519.214C520.48 293.042 521.46 294.138 521.303 295.392L516.419 336.613C516.288 337.671 515.387 338.467 514.329 338.467Z" fill="#9A3B82"/>
<path d="M495.209 338.467H467.496C465.798 338.467 464.479 336.979 464.675 335.294L468.227 305.276C468.397 303.853 469.612 302.769 471.048 302.769H499.428L495.209 338.467Z" fill="white" stroke="#FFCF2D" stroke-miterlimit="10"/>
<path d="M498.318 338.467H471.871C470.173 338.467 468.854 336.979 469.05 335.294L472.602 305.276C472.772 303.853 473.987 302.769 475.423 302.769H502.209C503.058 302.769 503.724 303.513 503.62 304.362L499.728 337.201C499.65 337.932 499.036 338.467 498.318 338.467Z" fill="white" stroke="#FFCF2D" stroke-miterlimit="10"/>
<path d="M413.48 305.407H402.784V338.467H413.48V305.407Z" stroke="#9A3B82" stroke-miterlimit="10" stroke-linecap="round"/>
<path d="M424.816 305.407H409.758V338.467H424.816V305.407Z" stroke="#9A3B82" stroke-miterlimit="10" stroke-linecap="round"/>
<path d="M443.061 338.467H438.895L423.393 301.777H427.559L443.061 338.467Z" stroke="#9A3B82" stroke-miterlimit="10" stroke-linecap="round"/>
<path d="M451.001 338.467H443.244L429.896 307.352H437.654L451.001 338.467Z" stroke="#9A3B82" stroke-miterlimit="10" stroke-linecap="round"/>
<path d="M395.836 305.407H385.048V338.467H395.836V305.407Z" stroke="#9A3B82" stroke-miterlimit="10" stroke-linecap="round"/>
<path d="M435.225 280.063H385.048V286.513H435.225V280.063Z" stroke="#9A3B82" stroke-miterlimit="10" stroke-linecap="round"/>
<path d="M448.611 275.127H385.048V280.324H448.611V275.127Z" fill="#FE5244"/>
<path d="M427.95 267.632H385.048V274.997H427.95V267.632Z" fill="#FFCF2D"/>
<path d="M435.225 262.005H385.048V267.502H435.225V262.005Z" stroke="#9A3B82" stroke-miterlimit="10" stroke-linecap="round"/>
<path d="M521.799 247.511L521.76 247.733L515.831 286.513H460.822L466.751 247.733L466.83 247.185C467.77 245.278 473.516 243.803 480.477 243.803C488.091 243.803 494.256 245.566 494.256 247.733C494.256 245.566 500.42 243.803 508.034 243.803C515.387 243.816 521.381 245.448 521.799 247.511Z" fill="white" stroke="#FFCF2D" stroke-miterlimit="10"/>
<path d="M488.392 286.526L494.269 247.746" stroke="#FFCF2D" stroke-miterlimit="10"/>
<path d="M488.392 286.526C488.392 284.358 482.228 282.596 474.614 282.596C467 282.596 460.835 284.358 460.835 286.526H488.392Z" fill="#FFCF2D"/>
<path d="M515.948 286.526C515.948 284.358 509.784 282.596 502.17 282.596C494.556 282.596 488.392 284.358 488.392 286.526H515.948Z" fill="#FFCF2D"/>
<path d="M488.601 285.703C488.522 283.536 494.622 281.564 502.236 281.29C506.989 281.12 511.678 281.786 514.146 282.739L520.023 245.801" stroke="#FFCF2D" stroke-miterlimit="10" stroke-linecap="round"/>
<path d="M517.412 234.572H468.019V223.577C468.019 222.494 468.894 221.619 469.978 221.619H515.466C516.55 221.619 517.425 222.494 517.425 223.577V234.572H517.412Z" fill="white" stroke="#9A3B82" stroke-miterlimit="10" stroke-linecap="round"/>
<path d="M521.355 221.096H478.793C478.127 221.096 477.604 220.561 477.604 219.908V215.534C477.604 214.868 478.14 214.346 478.793 214.346H521.355C522.021 214.346 522.544 214.881 522.544 215.534V219.908C522.544 220.561 522.008 221.096 521.355 221.096Z" fill="#FFCF2D"/>
<path d="M523.014 210.246H472.524V214.346H523.014V210.246Z" fill="#FE5244"/>
<path d="M522.1 210.246H483.56C483.05 210.246 482.646 209.828 482.646 209.332V206.029C482.646 205.52 483.063 205.115 483.56 205.115H522.1C522.609 205.115 523.014 205.533 523.014 206.029V209.332C523.014 209.828 522.609 210.246 522.1 210.246Z" fill="white" stroke="#9A3B82" stroke-miterlimit="10" stroke-linecap="round"/>
<path d="M416.079 194.238H401.256V234.572H416.079V194.238Z" stroke="#9A3B82" stroke-miterlimit="10" stroke-linecap="round"/>
<path d="M401.256 194.238H395.274V234.572H401.256V194.238Z" fill="white" stroke="#9A3B82" stroke-miterlimit="10" stroke-linecap="round"/>
<path d="M395.274 194.238H385.218V234.572H395.274V194.238Z" fill="white" stroke="#9A3B82" stroke-miterlimit="10" stroke-linecap="round"/>
<path d="M431.032 201.524H418.038V234.585H431.032V201.524Z" stroke="#9A3B82" stroke-miterlimit="10" stroke-linecap="round"/>
<path d="M418.978 234.572H413.859C413.362 234.572 412.944 234.167 412.944 233.658V202.412C412.944 201.916 413.349 201.498 413.859 201.498H418.978C419.474 201.498 419.892 201.903 419.892 202.412V233.658C419.879 234.167 419.474 234.572 418.978 234.572Z" fill="white" stroke="#9A3B82" stroke-miterlimit="10" stroke-linecap="round"/>
<path d="M431.032 201.524V219.647L423.993 201.524H431.032Z" fill="#9A3B82"/>
<path d="M461.123 234.572H440.331C439.874 234.572 439.456 234.284 439.3 233.867L425.796 199.108C425.508 198.377 426.044 197.594 426.827 197.594H447.619C448.076 197.594 448.494 197.881 448.651 198.299L462.155 233.057C462.442 233.788 461.907 234.572 461.123 234.572Z" fill="white" stroke="#FFCF2D" stroke-miterlimit="10"/>
<path d="M464.518 234.572H443.727C443.27 234.572 442.852 234.284 442.695 233.867L429.191 199.108C428.904 198.377 429.439 197.594 430.223 197.594H451.014C451.471 197.594 451.889 197.881 452.046 198.299L465.55 233.057C465.837 233.788 465.302 234.572 464.518 234.572Z" fill="white" stroke="#FFCF2D" stroke-miterlimit="10"/>
<path d="M501.034 173.804C499.088 174.352 497.025 174.652 494.909 174.652C482.541 174.652 472.524 164.638 472.524 152.272C472.524 142.075 479.355 133.457 488.692 130.767L501.034 173.804Z" stroke="#FFCF2D" stroke-miterlimit="10"/>
<path d="M494.909 174.652V182.63" stroke="#FFCF2D" stroke-miterlimit="10"/>
<path d="M494.909 171.231C505.382 171.231 513.872 162.743 513.872 152.272C513.872 141.802 505.382 133.313 494.909 133.313C484.436 133.313 475.946 141.802 475.946 152.272C475.946 162.743 484.436 171.231 494.909 171.231Z" fill="white" stroke="#3FB1B5" stroke-miterlimit="10"/>
<path d="M502.836 182.578H487.047L494.883 178.648L502.836 182.578Z" fill="white" stroke="#FFCF2D" stroke-miterlimit="10"/>
<path d="M523.014 182.63V414.042H515.87V397.198C515.87 393.451 512.827 390.409 509.079 390.409H398.905C395.157 390.409 392.114 393.451 392.114 397.198V414.042H385.048V182.63H523.014Z" stroke="#9A3B82" stroke-miterlimit="10" stroke-linecap="round"/>
<path d="M513.101 383.998H394.699C393.198 383.998 391.97 382.783 391.97 381.269V347.203C391.97 345.701 393.185 344.474 394.699 344.474H513.101C514.603 344.474 515.831 345.688 515.831 347.203V381.269C515.831 382.783 514.603 383.998 513.101 383.998Z" stroke="#3FB1B5" stroke-miterlimit="10"/>
<path d="M460.143 150.849V182.63H449.016L460.143 150.849Z" fill="#9A3B82"/>
<path d="M460.143 150.849L460.065 151.084L449.081 182.63H398.017L409 151.084L409.353 150.079C410.998 147.716 415.556 145.992 420.989 145.901C421.081 145.901 421.159 145.901 421.251 145.901C421.342 145.901 421.42 145.901 421.512 145.901C427.859 145.901 433.514 148.107 434.546 151.006C435.564 148.107 440.971 145.901 447.318 145.901C453.535 145.901 458.981 148.029 460.143 150.849Z" fill="white" stroke="#FFCF2D" stroke-miterlimit="10"/>
<path d="M434.533 151.006L423.445 181.977" stroke="#FFCF2D" stroke-miterlimit="10" stroke-linecap="round"/>
<path d="M423.419 182.239H398.017C398.957 179.301 404.233 177.042 410.581 177.042C416.954 177.042 422.478 179.301 423.419 182.239Z" fill="#FFCF2D"/>
<path d="M449.016 182.239H423.615C424.555 179.301 429.831 177.042 436.178 177.042C442.552 177.042 448.076 179.301 449.016 182.239Z" fill="#FFCF2D"/>
<path d="M445.398 354.567C445.398 353.548 446.221 352.713 447.253 352.713H461.11C462.128 352.713 462.964 353.535 462.964 354.567" stroke="#9A3B82" stroke-miterlimit="10" stroke-linecap="round"/>
<path d="M385.048 286.526H523.014" stroke="#9A3B82" stroke-miterlimit="10" stroke-linecap="round"/>
<path d="M385.048 234.572H523.014" stroke="#9A3B82" stroke-miterlimit="10" stroke-linecap="round"/>
<path d="M385.048 338.467H523.014" stroke="#9A3B82" stroke-miterlimit="10" stroke-linecap="round"/>
<path d="M402.026 134.11L385.048 182.63H523.014L539.992 134.11" stroke="#9A3B82" stroke-miterlimit="10" stroke-linecap="round" stroke-linejoin="round"/>
<path d="M555.481 401.585C555.481 404.21 554.998 406.73 554.11 409.067C552.817 412.462 549.539 414.682 545.895 414.682H518.247C514.616 414.682 511.325 412.462 510.045 409.067C509.157 406.73 508.674 404.21 508.674 401.585C508.674 394.012 512.683 387.327 518.808 383.332V378.918C518.808 380.851 524.751 382.418 532.064 382.418C539.391 382.418 545.32 380.851 545.32 378.918V383.345C551.471 387.327 555.481 394.012 555.481 401.585Z" fill="#FE5244"/>
<path d="M545.346 382.13V383.306C543.244 384.977 537.523 385.865 532.09 385.865C526.657 385.865 520.937 384.977 518.834 383.306V382.13C519.083 382.692 520.14 383.423 522.491 384.037C525.051 384.716 528.46 385.081 532.09 385.081C535.721 385.081 539.13 384.716 541.689 384.037C544.04 383.41 545.085 382.679 545.346 382.13Z" fill="white"/>
<path d="M545.346 378.918C545.346 380.851 539.404 382.418 532.09 382.418C524.777 382.418 518.834 380.851 518.834 378.918C518.834 378.67 518.926 378.435 519.109 378.2C520.363 376.62 525.691 375.419 532.09 375.419C538.49 375.419 543.818 376.607 545.072 378.2C545.242 378.435 545.346 378.67 545.346 378.918Z" fill="#66B0F0"/>
<path d="M514.342 396.036C515.265 396.036 516.014 395.288 516.014 394.365C516.014 393.442 515.265 392.694 514.342 392.694C513.419 392.694 512.67 393.442 512.67 394.365C512.67 395.288 513.419 396.036 514.342 396.036Z" stroke="#FFCF2D" stroke-miterlimit="10"/>
<path d="M520.01 400.149C520.933 400.149 521.681 399.401 521.681 398.478C521.681 397.555 520.933 396.807 520.01 396.807C519.087 396.807 518.338 397.555 518.338 398.478C518.338 399.401 519.087 400.149 520.01 400.149Z" stroke="#FFCF2D" stroke-miterlimit="10"/>
<path d="M527.062 395.266C527.986 395.266 528.734 394.518 528.734 393.595C528.734 392.672 527.986 391.923 527.062 391.923C526.139 391.923 525.391 392.672 525.391 393.595C525.391 394.518 526.139 395.266 527.062 395.266Z" stroke="#FFCF2D" stroke-miterlimit="10"/>
<path d="M526.07 406.365C526.993 406.365 527.741 405.616 527.741 404.693C527.741 403.77 526.993 403.022 526.07 403.022C525.146 403.022 524.398 403.77 524.398 404.693C524.398 405.616 525.146 406.365 526.07 406.365Z" stroke="#FFCF2D" stroke-miterlimit="10"/>
<path d="M519.801 411.235C520.724 411.235 521.472 410.486 521.472 409.563C521.472 408.64 520.724 407.892 519.801 407.892C518.878 407.892 518.129 408.64 518.129 409.563C518.129 410.486 518.878 411.235 519.801 411.235Z" stroke="#FFCF2D" stroke-miterlimit="10"/>
<path d="M513.48 406.365C514.403 406.365 515.152 405.616 515.152 404.693C515.152 403.77 514.403 403.022 513.48 403.022C512.557 403.022 511.808 403.77 511.808 404.693C511.808 405.616 512.557 406.365 513.48 406.365Z" stroke="#FFCF2D" stroke-miterlimit="10"/>
<path d="M520.924 389.834C521.847 389.834 522.596 389.086 522.596 388.163C522.596 387.24 521.847 386.491 520.924 386.491C520.001 386.491 519.252 387.24 519.252 388.163C519.252 389.086 520.001 389.834 520.924 389.834Z" stroke="#FFCF2D" stroke-miterlimit="10"/>
<path d="M534.232 391.101C535.155 391.101 535.904 390.352 535.904 389.429C535.904 388.506 535.155 387.758 534.232 387.758C533.309 387.758 532.561 388.506 532.561 389.429C532.561 390.352 533.309 391.101 534.232 391.101Z" stroke="#FFCF2D" stroke-miterlimit="10"/>
<path d="M532.835 401.233C533.758 401.233 534.506 400.485 534.506 399.562C534.506 398.639 533.758 397.89 532.835 397.89C531.911 397.89 531.163 398.639 531.163 399.562C531.163 400.485 531.911 401.233 532.835 401.233Z" stroke="#FFCF2D" stroke-miterlimit="10"/>
<path d="M537.667 407.892C538.59 407.892 539.339 407.144 539.339 406.221C539.339 405.298 538.59 404.55 537.667 404.55C536.744 404.55 535.995 405.298 535.995 406.221C535.995 407.144 536.744 407.892 537.667 407.892Z" stroke="#FFCF2D" stroke-miterlimit="10"/>
<path d="M531.398 412.906C532.321 412.906 533.07 412.158 533.07 411.235C533.07 410.312 532.321 409.563 531.398 409.563C530.475 409.563 529.726 410.312 529.726 411.235C529.726 412.158 530.475 412.906 531.398 412.906Z" stroke="#FFCF2D" stroke-miterlimit="10"/>
<path d="M539.456 397.237C540.379 397.237 541.128 396.489 541.128 395.566C541.128 394.643 540.379 393.895 539.456 393.895C538.533 393.895 537.784 394.643 537.784 395.566C537.784 396.489 538.533 397.237 539.456 397.237Z" stroke="#FFCF2D" stroke-miterlimit="10"/>
<path d="M544.301 390.382C545.225 390.382 545.973 389.634 545.973 388.711C545.973 387.788 545.225 387.04 544.301 387.04C543.378 387.04 542.63 387.788 542.63 388.711C542.63 389.634 543.378 390.382 544.301 390.382Z" stroke="#FFCF2D" stroke-miterlimit="10"/>
<path d="M549.813 395.932C550.736 395.932 551.484 395.183 551.484 394.26C551.484 393.337 550.736 392.589 549.813 392.589C548.889 392.589 548.141 393.337 548.141 394.26C548.141 395.183 548.889 395.932 549.813 395.932Z" stroke="#FFCF2D" stroke-miterlimit="10"/>
<path d="M543.505 401.403C544.428 401.403 545.176 400.654 545.176 399.731C545.176 398.808 544.428 398.06 543.505 398.06C542.581 398.06 541.833 398.808 541.833 399.731C541.833 400.654 542.581 401.403 543.505 401.403Z" stroke="#FFCF2D" stroke-miterlimit="10"/>
<path d="M551.053 404.902C551.977 404.902 552.725 404.154 552.725 403.231C552.725 402.308 551.977 401.559 551.053 401.559C550.13 401.559 549.382 402.308 549.382 403.231C549.382 404.154 550.13 404.902 551.053 404.902Z" stroke="#FFCF2D" stroke-miterlimit="10"/>
<path d="M545.973 411.326C546.896 411.326 547.645 410.578 547.645 409.655C547.645 408.732 546.896 407.984 545.973 407.984C545.05 407.984 544.302 408.732 544.302 409.655C544.302 410.578 545.05 411.326 545.973 411.326Z" stroke="#FFCF2D" stroke-miterlimit="10"/>
<path d="M561.371 358.575C561.371 358.575 573.778 351.877 575.828 363.576C578.205 377.09 562.063 388.985 562.063 388.985C562.063 388.985 558.589 380.381 549.277 372.964C541.219 366.553 547.906 349.553 561.371 358.575Z" fill="white" stroke="#FFCF2D" stroke-miterlimit="10"/>
<path d="M537.014 343.677C542.904 343.729 551.367 331.769 543.374 318.647C533.723 302.795 532.064 293.616 532.064 293.616C532.064 293.616 517.868 312.392 520.284 326.794C522.935 342.567 537.014 343.677 537.014 343.677Z" fill="#FFCF2D"/>
<path d="M538.033 335.712C546.639 337.984 554.815 332.748 554.985 320.814C555.285 299.714 559.281 292.846 559.281 292.846C559.281 292.846 532.469 302.495 528.407 317.485C524.542 331.769 538.033 335.712 538.033 335.712Z" fill="white" stroke="#FFCF2D" stroke-miterlimit="10"/>
<path d="M502.065 349.605C501.752 349.631 501.426 349.657 501.073 349.683C482.554 351.067 477.225 368.016 477.225 368.016C477.225 368.016 476.089 366.788 476.324 362.545C476.768 351.603 486.838 340.295 498.33 347.477C499.61 348.286 500.864 348.978 502.065 349.605Z" fill="#FFCF2D"/>
<path d="M523.066 353.77C519.801 353.979 512.344 354.88 502.065 349.605C500.864 348.991 499.61 348.286 498.33 347.477C486.837 340.295 477.029 351.603 476.585 362.545C476.559 363.08 476.69 363.615 476.716 364.138C475.632 354.632 475.658 330.972 504.429 331.769C524.202 332.343 523.066 353.77 523.066 353.77Z" fill="white" stroke="#FFCF2D" stroke-miterlimit="10"/>
<path d="M527.768 378.226C527.768 378.226 531.176 330.738 485.114 336.94" stroke="#FFCF2D" stroke-miterlimit="10"/>
<path d="M559.281 292.846C530.262 322.485 535.669 378.226 535.669 378.226C532.613 356.904 551.367 335.712 561.358 358.014C564.336 364.647 562.05 388.972 562.05 388.972" stroke="#FFCF2D" stroke-miterlimit="10"/>
<path d="M129.294 340.896L125.402 344.304C124.775 343.56 124.214 342.737 123.73 341.836L99.4649 296.632C98.4462 294.739 99.8175 292.454 101.959 292.454H105.355C108.071 292.454 110.553 293.943 111.833 296.332L130.913 331.874C132.559 334.903 131.88 338.65 129.294 340.896Z" fill="#FFCF2D"/>
<path d="M195.351 341.888L138.893 353.483V352.308C138.893 346.68 142.85 341.836 148.362 340.7L184.734 333.231C190.219 332.109 195.351 336.3 195.351 341.888Z" fill="#FFCF2D"/>
<path d="M188.952 414.042V357.492C188.952 352.804 184.655 349.305 180.058 350.245L144.6 357.518C140.382 358.38 136.908 361.331 135.367 365.352L116.652 414.042" stroke="#9A3B82" stroke-miterlimit="10" stroke-linecap="round"/>
<path d="M99.3213 296.384L126.891 347.738C129.255 352.138 134.218 354.463 139.115 353.457L195.482 341.888" stroke="#9A3B82" stroke-miterlimit="10" stroke-linecap="round"/>
<path d="M215.372 299.949H167.664V306.321H215.372V299.949Z" fill="#66B0F0"/>
<path d="M206.674 293.028C207.249 293.564 207.602 294.53 207.602 295.34C207.602 296.959 206.191 298.617 204.441 298.617H160.925C160.925 299.374 161.539 299.988 162.297 299.988H214.811C216.221 299.988 217.488 299.466 218.415 298.604C219.343 297.755 219.904 296.567 219.904 295.261C219.904 292.65 217.619 290.548 214.811 290.548H162.297C161.539 290.548 160.925 291.161 160.925 291.919V292.167H204.441C205.316 292.18 206.1 292.506 206.674 293.028Z" fill="#FE5244"/>
<path d="M164.073 292.18V298.499H160.938V299.022H204.598C205.081 299.022 205.551 298.93 205.969 298.761C206.439 298.578 206.857 298.291 207.197 297.951C207.863 297.285 208.281 296.358 208.281 295.34C208.281 293.303 206.622 291.657 204.598 291.657H160.938V292.18H164.073V292.18Z" fill="#FE5244"/>
<path d="M162.858 292.18V298.499H204.441C206.191 298.499 207.602 297.089 207.602 295.34C207.602 294.465 207.249 293.681 206.674 293.107C206.1 292.532 205.316 292.18 204.441 292.18H162.858V292.18Z" fill="white"/>
<path d="M162.858 292.18V298.499" stroke="#FE5244" stroke-miterlimit="10"/>
<path d="M198.63 296.659V301.934H202.273V297.337C202.273 296.241 203.161 295.353 204.258 295.353H205.878V294.674H200.602C199.531 294.674 198.63 295.562 198.63 296.659Z" fill="#FFCF2D"/>
<path d="M140.878 311.779C140.878 308.997 143.138 306.739 145.919 306.739H245.045C247.827 306.739 250.086 308.997 250.086 311.779" stroke="#9A3B82" stroke-miterlimit="10" stroke-linecap="round"/>
<path d="M250.164 414.042L222.177 316.583C220.936 312.275 216.665 309.271 211.781 309.271H179.17C174.286 309.271 170.015 312.275 168.774 316.583L140.8 414.042" stroke="#9A3B82" stroke-miterlimit="10" stroke-linecap="round"/>
<path d="M273.659 397.172V411.378C273.659 412.854 274.848 414.042 276.324 414.042H311.847C311.847 414.042 312.056 407.448 306.649 405.607C297.468 402.486 293.184 397.172 293.184 397.172H273.659V397.172Z" fill="white" stroke="#FE5244" stroke-miterlimit="10"/>
<path d="M293.419 404.445C294.869 404.04 300.093 401.155 298.304 399.366C297.455 398.517 295.417 399.366 295.417 399.366" stroke="#FE5244" stroke-miterlimit="10"/>
<path d="M298.774 406.404C300.224 405.999 305.239 402.774 303.267 401.194C301.778 399.993 299.544 402.317 299.544 402.317" stroke="#FE5244" stroke-miterlimit="10"/>
<path d="M294.281 398.321L273.659 404.732V397.172H293.197C293.197 397.172 293.55 397.616 294.281 398.321Z" fill="#FE5244"/>
<path d="M318.194 397.172V411.378C318.194 412.854 319.383 414.042 320.858 414.042H356.382C356.382 414.042 356.591 407.448 351.184 405.607C342.003 402.486 337.719 397.172 337.719 397.172H318.194V397.172Z" fill="white" stroke="#FE5244" stroke-miterlimit="10"/>
<path d="M337.954 404.445C339.404 404.04 344.628 401.155 342.838 399.366C341.989 398.517 339.952 399.366 339.952 399.366" stroke="#FE5244" stroke-miterlimit="10"/>
<path d="M343.309 406.404C344.758 405.999 349.773 402.774 347.801 401.194C346.312 399.993 344.079 402.317 344.079 402.317" stroke="#FE5244" stroke-miterlimit="10"/>
<path d="M338.816 398.321L318.194 404.732V397.172H337.732C337.732 397.172 338.084 397.616 338.816 398.321Z" fill="#FE5244"/>
<path d="M283.259 255.763L270.395 390.408H297.298L310.815 325.162L316.34 339.068V390.408H344.353V332.84L329.413 255.763H283.259Z" fill="#3FB1B5"/>
<path d="M297.272 288.106L284.76 390.408" stroke="#9A3B82" stroke-miterlimit="10"/>
<path d="M329.856 390.408V332.84L312.304 262.292" stroke="#9A3B82" stroke-miterlimit="10"/>
<path d="M315.948 339.068L299.179 290.378C298.604 288.706 297.024 287.583 295.248 287.583" stroke="white" stroke-miterlimit="10"/>
<path d="M281.13 278.026L283.259 255.763H329.413L330.732 262.605L281.13 278.026Z" fill="#9A3B82"/>
<path d="M344.405 397.172H316.235C315.177 397.172 314.315 396.31 314.315 395.253V392.328C314.315 391.27 315.177 390.408 316.235 390.408H344.405C345.463 390.408 346.325 391.27 346.325 392.328V395.253C346.312 396.31 345.463 397.172 344.405 397.172Z" fill="#9A3B82"/>
<path d="M297.781 397.172H269.611C268.553 397.172 267.691 396.31 267.691 395.253V392.328C267.691 391.27 268.553 390.408 269.611 390.408H297.781C298.839 390.408 299.701 391.27 299.701 392.328V395.253C299.688 396.31 298.839 397.172 297.781 397.172Z" fill="#9A3B82"/>
<path d="M372.968 259.706L381.796 292.728L337.784 304.492L328.942 271.445C328.668 270.413 328.002 269.604 327.153 269.107C326.304 268.611 325.259 268.442 324.228 268.716C322.177 269.264 320.95 271.379 321.498 273.429L330.34 306.477L329.373 306.738L320.545 273.717C319.84 271.092 321.354 268.402 323.94 267.619C323.993 267.606 324.045 267.593 324.097 267.58L366.829 256.155C369.507 255.45 372.249 257.043 372.968 259.706Z" fill="#66B0F0"/>
<path d="M329.922 271.223L338.75 304.244L337.784 304.505L328.942 271.458C328.668 270.426 328.002 269.617 327.153 269.121C326.304 268.624 325.259 268.455 324.228 268.729C322.177 269.277 320.95 271.393 321.498 273.443L330.34 306.49L329.373 306.751L320.545 273.73C319.84 271.105 321.354 268.416 323.94 267.632C326.565 267.018 329.217 268.598 329.922 271.223Z" fill="#9A3B82"/>
<path d="M328.942 271.445L337.235 302.468L329.791 304.453L321.498 273.429C320.95 271.379 322.164 269.264 324.228 268.716C325.259 268.441 326.304 268.611 327.153 269.107C328.002 269.604 328.668 270.413 328.942 271.445Z" fill="white"/>
<path d="M373.098 277.203L353.077 284.097L337.275 255.763H276.023C265.614 255.763 257.831 246.192 259.959 236.008L266.333 205.402C268.331 195.818 276.781 188.95 286.563 188.95H328.446C338.594 188.95 347.239 196.314 348.846 206.329L355.154 236.125L373.098 277.203Z" fill="#FFCF2D" stroke="white" stroke-miterlimit="10"/>
<path d="M272.758 255.437C265.549 253.987 260.195 247.85 259.646 240.617C260.195 240.238 260.808 239.912 261.461 239.677C266.202 237.927 271.622 240.8 273.594 246.088C274.809 249.404 274.391 252.877 272.758 255.437Z" fill="white"/>
<path d="M318.364 170.592V188.963H298.082L302.757 176.741L318.364 170.592Z" fill="#E57281"/>
<path d="M323.026 162.862C323.013 162.862 322.987 162.875 322.974 162.875L316.953 164.468C314.798 165.042 313.14 166.635 312.434 168.646H310.123C308.66 168.646 307.472 169.834 307.472 171.297V171.336C307.472 172.72 308.53 173.856 309.888 173.973C309.875 173.986 309.875 173.986 309.875 173.986C309.875 173.986 308.804 179.079 302.548 177.368C302.548 177.368 302.796 163.972 303.057 159.806C303.279 156.372 321.498 149.87 323.183 152.638C324.672 155.093 322.948 156.242 321.485 156.751C324.071 156.203 328.955 155.471 329.452 157.652C330.026 160.185 324.868 162.379 323.026 162.862Z" fill="#9A3B82"/>
<path d="M324.202 172.25H323.562L323.745 175.383C323.875 177.629 322.073 179.536 319.827 179.536H317.006C314.289 179.536 312.082 177.329 312.082 174.613V173.999H310.136C308.673 173.999 307.485 172.811 307.485 171.349V171.31C307.485 169.847 308.673 168.659 310.136 168.659H312.448C313.153 166.648 314.812 165.042 316.966 164.481L322.987 162.888L325.051 171.153C325.26 171.675 324.763 172.25 324.202 172.25Z" fill="#E57281"/>
<path d="M312.696 174.861C312.421 177.734 315.295 179.784 318.011 179.784" stroke="#9A3B82" stroke-miterlimit="10" stroke-linecap="round"/>
<path d="M311.638 171.793C311.638 170.774 310.815 169.952 309.796 169.952" stroke="#9A3B82" stroke-miterlimit="10" stroke-linecap="round"/>
<path d="M321.981 169.925C322.248 169.925 322.465 169.475 322.465 168.92C322.465 168.365 322.248 167.915 321.981 167.915C321.715 167.915 321.498 168.365 321.498 168.92C321.498 169.475 321.715 169.925 321.981 169.925Z" fill="#9A3B82"/>
<path d="M319.892 166.805C319.892 166.805 321.498 165.577 323.797 165.577" stroke="#9A3B82" stroke-miterlimit="10" stroke-linecap="round"/>
<path d="M313.675 264.133C313.675 264.133 329.674 264.825 335.303 251.99L332.325 246.545L323.431 249.966L313.675 264.133Z" fill="white" stroke="#FE5244" stroke-miterlimit="10"/>
<path d="M326.487 185.595C325.716 185.66 325.011 186 324.489 186.522C323.914 187.097 323.549 187.893 323.549 188.781V253.113C323.549 259.25 318.573 264.225 312.434 264.225H287.764C281.13 264.225 276.01 258.467 276.715 251.925V251.912L285.596 190.844C286.04 187.828 288.613 185.595 291.669 185.595H326.487V185.595Z" fill="#FE5244" stroke="#FE5244" stroke-miterlimit="10"/>
<path d="M324.007 185.594C323.236 185.659 322.531 185.999 322.009 186.521C321.525 187.004 321.199 187.631 321.107 188.336C321.094 188.48 321.081 188.623 321.081 188.767L320.559 193.69L314.29 253.1C314.29 259.236 309.314 264.211 303.176 264.211H287.778C281.144 264.211 276.024 258.453 276.73 251.911V251.898L280.739 224.295L285.61 190.83C285.65 190.543 285.715 190.256 285.793 189.968C286.551 187.396 288.928 185.581 291.67 185.581H324.007V185.594Z" fill="white" stroke="#FE5244" stroke-miterlimit="10"/>
<path d="M318.508 198.403L316.17 215.939C315.399 219.53 312.604 221.449 308.556 222.102L280.869 226.124L284.904 198.39H318.508V198.403Z" fill="#FFCF2D"/>
<path d="M323.013 185.594H322.321C321.067 185.581 319.97 186.469 319.722 187.709L315.647 213.993C314.877 217.584 311.703 220.156 308.033 220.156H282.553C279.471 220.156 277.173 217.31 277.839 214.294L282.749 191.992C283.572 188.258 286.889 185.594 290.716 185.594H323.013Z" fill="#FE5244" stroke="#FE5244" stroke-miterlimit="10"/>
<path d="M302.013 227.468L308.504 187.788C308.634 186.991 309.326 186.391 310.136 186.391C311.155 186.391 311.938 187.305 311.769 188.323L305.278 228.004C305.147 228.8 304.455 229.401 303.645 229.401C302.627 229.401 301.843 228.487 302.013 227.468Z" fill="white" stroke="#FE5244" stroke-miterlimit="10"/>
<path d="M287.503 227.468L293.994 187.788C294.124 186.991 294.817 186.391 295.626 186.391C296.645 186.391 297.429 187.305 297.259 188.323L290.768 228.004C290.637 228.8 289.945 229.401 289.135 229.401C288.117 229.401 287.333 228.487 287.503 227.468Z" fill="white" stroke="#FE5244" stroke-miterlimit="10"/>
<path d="M329.948 188.976L323.562 189.002V188.78C323.562 187.892 323.914 187.096 324.502 186.521C325.024 185.999 325.716 185.659 326.5 185.594H327.022C328.629 185.725 329.896 187.083 329.948 188.976Z" fill="white" stroke="#FE5244" stroke-miterlimit="10"/>
<path d="M370.708 278.026L376.089 291.905C376.951 294.138 375.697 296.619 373.399 297.259L361.58 300.497C360.861 300.693 360.104 300.523 359.542 300.04L358.341 298.995L360.796 298.343C361.88 298.055 362.611 297.05 362.559 295.927L362.285 293.159C362.233 291.918 361.227 290.926 359.986 290.887H360.117C358.615 290.835 357.152 289.908 356.564 288.524L354.684 283.523L370.708 278.026Z" fill="#E57281"/>
<path d="M358.589 299.27L360.522 298.747C361.606 298.46 362.337 297.585 362.285 296.462L362.141 293.433C362.089 292.193 361.083 291.2 359.842 291.161C358.341 291.109 357.008 290.182 356.421 288.798L354.409 284.058" stroke="white" stroke-miterlimit="10" stroke-linecap="round"/>
<path d="M364.909 299.244C366.294 298.878 367.234 297.598 367.169 296.162L366.986 292.297" stroke="white" stroke-miterlimit="10" stroke-linecap="round"/>
<path d="M369.912 297.951C371.296 297.585 372.236 296.306 372.171 294.869L371.988 291.004" stroke="white" stroke-miterlimit="10" stroke-linecap="round"/>
<path d="M325.168 220.156L328.328 236.687C328.864 239.507 329.856 242.236 331.254 244.743L353.064 284.097L373.085 277.203" stroke="white" stroke-miterlimit="10"/>
<path d="M338.398 257.644L331.254 244.743C330.052 242.563 329.151 240.238 328.577 237.823C329.256 237.601 329.961 237.444 330.705 237.379C336.347 236.883 341.349 241.623 341.885 247.955C342.198 251.794 340.801 255.333 338.398 257.644Z" fill="white"/>
</svg>
