<svg width="306" height="215" viewBox="0 0 306 215" fill="none" xmlns="http://www.w3.org/2000/svg">
<path d="M267.689 184.04H38.3112L79.4866 159.634H227.144L267.689 184.04Z" fill="#D0F0E4"/>
<path d="M169.824 64.7273H128.557V40.7763C128.557 39.1546 129.866 37.84 131.482 37.84H166.899C168.514 37.84 169.824 39.1546 169.824 40.7763V64.7273Z" fill="white" stroke="#66B0F0" stroke-width="0.5" stroke-miterlimit="10"/>
<path d="M166.709 63.1671H131.843C130.925 63.1671 130.179 62.4177 130.179 61.4962V40.9668C130.179 40.0453 130.925 39.2959 131.843 39.2959H166.709C167.627 39.2959 168.373 40.0453 168.373 40.9668V61.5024C168.373 62.4238 167.627 63.1671 166.709 63.1671Z" fill="#66B0F0"/>
<path d="M177.058 70.348C178.636 71.38 178.269 73.401 176.403 73.401H120.184C118.611 73.401 118.073 71.2694 119.615 70.2927L177.058 70.348Z" fill="#66B0F0" stroke="#66B0F0" stroke-width="0.5" stroke-miterlimit="10"/>
<path d="M176.403 71.9943H120.185C119.181 71.9943 118.783 70.8087 119.616 70.2927L128.569 64.7273H169.708L177.052 70.348C177.786 70.907 177.358 71.9943 176.403 71.9943Z" fill="white" stroke="#66B0F0" stroke-width="0.5" stroke-miterlimit="10"/>
<path d="M169.916 70.3173H126.672C125.901 70.3173 125.595 69.402 126.231 69.0088L132.449 64.7273H164.763L170.412 69.0518C170.981 69.4818 170.65 70.3173 169.916 70.3173Z" fill="white" stroke="#66B0F0" stroke-width="0.5" stroke-miterlimit="10"/>
<path d="M161.966 64.7273L167.621 70.3173" stroke="#66B0F0" stroke-width="0.5" stroke-miterlimit="10"/>
<path d="M158.967 64.7273L163.949 70.3173" stroke="#66B0F0" stroke-width="0.5" stroke-miterlimit="10"/>
<path d="M156.164 64.7273L160.485 70.3173" stroke="#66B0F0" stroke-width="0.5" stroke-miterlimit="10"/>
<path d="M153.031 64.7273L156.684 70.3173" stroke="#66B0F0" stroke-width="0.5" stroke-miterlimit="10"/>
<path d="M150.43 64.7273L152.211 70.3173" stroke="#66B0F0" stroke-width="0.5" stroke-miterlimit="10"/>
<path d="M135.074 64.7273L129.419 70.3173" stroke="#66B0F0" stroke-width="0.5" stroke-miterlimit="10"/>
<path d="M138.073 64.7273L133.091 70.3173" stroke="#66B0F0" stroke-width="0.5" stroke-miterlimit="10"/>
<path d="M140.876 64.7273L136.555 70.3173" stroke="#66B0F0" stroke-width="0.5" stroke-miterlimit="10"/>
<path d="M144.009 64.7273L140.356 70.3173" stroke="#66B0F0" stroke-width="0.5" stroke-miterlimit="10"/>
<path d="M146.611 64.7273L144.83 70.3173" stroke="#66B0F0" stroke-width="0.5" stroke-miterlimit="10"/>
<path d="M148.373 70.3848V64.7273" stroke="#66B0F0" stroke-width="0.5" stroke-miterlimit="10"/>
<path d="M129.419 66.8158H167.498" stroke="#66B0F0" stroke-width="0.5" stroke-miterlimit="10"/>
<path d="M163.808 63.1671H132.847L133.404 59.2049C133.746 56.7662 135.49 54.7637 137.847 54.0879L145.393 52.5154H151.262L158.808 54.0879C161.17 54.7575 162.914 56.7662 163.251 59.2049L163.808 63.1671Z" fill="#FFCF2D"/>
<path d="M150.417 57.0428L148.183 54.7761C148.134 54.7269 148.134 54.6471 148.183 54.6041C148.232 54.5549 148.312 54.5549 148.355 54.6041L150.405 56.6865L153.587 53.0684C153.63 53.0192 153.71 53.0131 153.759 53.0561C153.808 53.0991 153.814 53.1789 153.771 53.2281L150.417 57.0428Z" fill="white"/>
<path d="M146.268 57.0427L142.914 53.228C142.871 53.1789 142.871 53.099 142.926 53.056C142.975 53.013 143.055 53.013 143.098 53.0683L146.28 56.6864L148.33 54.604C148.379 54.5549 148.452 54.5549 148.501 54.604C148.55 54.6532 148.55 54.7269 148.501 54.776L146.268 57.0427Z" fill="white"/>
<path d="M148.379 58.5231C148.085 58.5231 147.847 58.2836 147.847 57.9887C147.847 57.6939 148.085 57.4543 148.379 57.4543C148.673 57.4543 148.912 57.6939 148.912 57.9887C148.912 58.2836 148.673 58.5231 148.379 58.5231ZM148.379 57.7C148.22 57.7 148.092 57.829 148.092 57.9887C148.092 58.1484 148.22 58.2774 148.379 58.2774C148.538 58.2774 148.667 58.1484 148.667 57.9887C148.667 57.829 148.538 57.7 148.379 57.7Z" fill="white"/>
<path d="M148.379 61.5332C148.085 61.5332 147.847 61.2936 147.847 60.9987C147.847 60.7039 148.085 60.4643 148.379 60.4643C148.673 60.4643 148.912 60.7039 148.912 60.9987C148.912 61.2936 148.673 61.5332 148.379 61.5332ZM148.379 60.71C148.22 60.71 148.092 60.839 148.092 60.9987C148.092 61.1584 148.22 61.2874 148.379 61.2874C148.538 61.2874 148.667 61.1584 148.667 60.9987C148.667 60.839 148.538 60.71 148.379 60.71Z" fill="white"/>
<path d="M145.356 63.038H135.356L132.688 55.0891L142.688 52.2143L145.356 63.038Z" fill="white" stroke="#66B0F0" stroke-width="0.5" stroke-miterlimit="10"/>
<path d="M135.876 56.1212H135.687C135.203 56.1212 134.812 55.7281 134.812 55.2428V52.4847C134.812 52.2881 134.971 52.1284 135.167 52.1284H135.993C136.189 52.1284 136.348 52.2881 136.348 52.4847V55.6421C136.354 55.9062 136.14 56.1212 135.876 56.1212Z" fill="white"/>
<path d="M135.876 56.1212H135.687C135.203 56.1212 134.812 55.7281 134.812 55.2428V52.4847C134.812 52.2881 134.971 52.1284 135.167 52.1284H135.993C136.189 52.1284 136.348 52.2881 136.348 52.4847V55.6421C136.354 55.9062 136.14 56.1212 135.876 56.1212Z" stroke="#66B0F0" stroke-width="0.5" stroke-miterlimit="10" stroke-linecap="round"/>
<path d="M139.903 56.1212H140.093C140.577 56.1212 140.968 55.7281 140.968 55.2428V52.4847C140.968 52.2881 140.809 52.1284 140.613 52.1284H139.781C139.585 52.1284 139.426 52.2881 139.426 52.4847V55.6421C139.426 55.9062 139.64 56.1212 139.903 56.1212Z" fill="white"/>
<path d="M137.412 56.4406H136.972C136.629 56.4406 136.354 56.1642 136.354 55.8202V52.4907C136.354 52.2942 136.513 52.1345 136.709 52.1345H137.535C137.731 52.1345 137.89 52.2942 137.89 52.4907V55.9615C137.89 56.2256 137.676 56.4406 137.412 56.4406Z" fill="white"/>
<path d="M138.955 56.5636H138.588C138.202 56.5636 137.89 56.2503 137.89 55.8633V52.4847C137.89 52.2881 138.049 52.1284 138.245 52.1284H139.071C139.267 52.1284 139.426 52.2881 139.426 52.4847V56.0844C139.426 56.3486 139.212 56.5636 138.955 56.5636Z" fill="white"/>
<path d="M139.903 56.1212H140.093C140.577 56.1212 140.968 55.7281 140.968 55.2428V52.4847C140.968 52.2881 140.809 52.1284 140.613 52.1284H139.781C139.585 52.1284 139.426 52.2881 139.426 52.4847V55.6421C139.426 55.9062 139.64 56.1212 139.903 56.1212Z" stroke="#66B0F0" stroke-width="0.5" stroke-miterlimit="10" stroke-linecap="round"/>
<path d="M137.412 56.4406H136.972C136.629 56.4406 136.354 56.1642 136.354 55.8202V52.4907C136.354 52.2942 136.513 52.1345 136.709 52.1345H137.535C137.731 52.1345 137.89 52.2942 137.89 52.4907V55.9615C137.89 56.2256 137.676 56.4406 137.412 56.4406Z" stroke="#66B0F0" stroke-width="0.5" stroke-miterlimit="10" stroke-linecap="round"/>
<path d="M138.955 56.5636H138.588C138.202 56.5636 137.89 56.2503 137.89 55.8633V52.4847C137.89 52.2881 138.049 52.1284 138.245 52.1284H139.071C139.267 52.1284 139.426 52.2881 139.426 52.4847V56.0844C139.426 56.3486 139.212 56.5636 138.955 56.5636Z" stroke="#66B0F0" stroke-width="0.5" stroke-miterlimit="10" stroke-linecap="round"/>
<path d="M151.268 48.9034V53.3877C151.268 54.1617 149.952 54.7944 148.33 54.7944C146.708 54.7944 145.393 54.1617 145.393 53.3877V48.9034H151.268Z" fill="white"/>
<path d="M151.268 48.9034C151.268 52.2881 149.107 53.2955 147.033 53.1174C147.027 53.1174 147.021 53.1174 147.014 53.1174C146.096 53.0314 145.399 52.2451 145.399 51.3237V48.9095H151.268V48.9034Z" fill="#66B0F0"/>
<path d="M152.633 47.7485V47.9758C152.633 48.4795 152.229 48.885 151.727 48.885H151.262L151.268 48.9894C151.268 50.4391 150.099 51.6124 148.655 51.6124H148.012C146.568 51.6124 145.399 50.4391 145.399 48.9894L145.405 48.885H144.94C144.438 48.885 144.034 48.4795 144.034 47.9758V47.7485C144.034 47.2448 144.438 46.8394 144.94 46.8394H145.534L145.601 45.7275C145.601 45.5555 145.625 45.3897 145.674 45.2361C147.425 45.6722 149.475 44.542 150.026 44.2041C150.638 44.4375 151.072 45.0272 151.072 45.7214L151.14 46.8332H151.733C152.229 46.8394 152.633 47.2448 152.633 47.7485Z" fill="white"/>
<path d="M151.77 46.8393H151.133L151.066 45.7275C151.066 45.0333 150.632 44.4436 150.02 44.2102C149.469 44.5419 147.419 45.6722 145.668 45.2422C145.619 45.3958 145.595 45.5616 145.595 45.7336L145.527 46.8455H145.13C145.13 46.8455 144.316 42.8895 145.117 42.1646C145.711 41.6302 151.146 42.7973 151.745 43.6266C152.082 44.0996 151.77 46.8393 151.77 46.8393Z" fill="#E57281"/>
<path d="M150.24 46.5997C150.222 46.5997 150.198 46.5935 150.179 46.5751C150.173 46.5689 149.775 46.2434 149.139 46.2434C149.09 46.2434 149.047 46.2004 149.047 46.1512C149.047 46.1021 149.09 46.0591 149.139 46.0591C149.843 46.0591 150.277 46.4154 150.296 46.4338C150.332 46.4645 150.338 46.5259 150.308 46.5628C150.296 46.5874 150.265 46.5997 150.24 46.5997Z" fill="#66B0F0"/>
<path d="M147.915 48.5039C147.902 48.5039 147.89 48.5039 147.884 48.4978C147.835 48.4793 147.811 48.4241 147.829 48.3811C148 47.9265 147.957 47.3552 147.719 46.8515C147.578 46.5444 147.376 46.3232 147.199 46.2618C146.807 46.1267 146.256 46.3171 146.25 46.3171C146.201 46.3355 146.152 46.3109 146.134 46.2618C146.115 46.2127 146.14 46.1635 146.189 46.1451C146.213 46.1389 146.801 45.9362 147.254 46.0898C147.48 46.1697 147.713 46.4215 147.878 46.7778C148.135 47.3245 148.178 47.9511 147.994 48.4548C147.988 48.4793 147.951 48.5039 147.915 48.5039Z" fill="#66B0F0"/>
<path d="M149.12 49.4807C149.126 49.5299 149.083 49.5729 149.034 49.579H149.028C148.979 49.579 148.943 49.5422 148.936 49.493C148.93 49.4316 148.918 49.3702 148.9 49.3149C148.636 49.4439 148.398 49.4869 148.202 49.4869C147.816 49.4869 147.584 49.3272 147.572 49.3149C147.529 49.2842 147.523 49.2289 147.547 49.1859C147.578 49.1429 147.633 49.1368 147.676 49.1613C147.688 49.1675 147.884 49.3026 148.202 49.3026C148.373 49.3026 148.581 49.2657 148.82 49.149C148.783 49.0876 148.747 49.0508 148.747 49.0508C148.71 49.0139 148.716 48.9525 148.753 48.9218C148.79 48.8911 148.851 48.8911 148.881 48.9279C148.894 48.9463 149.102 49.1797 149.12 49.4807Z" fill="#66B0F0"/>
<path d="M149.451 47.7252C149.535 47.7199 149.595 47.5784 149.584 47.4091C149.574 47.2398 149.497 47.1068 149.412 47.1121C149.328 47.1174 149.268 47.2589 149.279 47.4282C149.289 47.5975 149.366 47.7304 149.451 47.7252Z" fill="#66B0F0"/>
<path d="M146.952 47.7005C147.03 47.6957 147.085 47.5654 147.075 47.4096C147.065 47.2539 146.995 47.1315 146.917 47.1364C146.839 47.1412 146.784 47.2714 146.794 47.4272C146.804 47.583 146.874 47.7054 146.952 47.7005Z" fill="#66B0F0"/>
<path d="M145.24 48.0431C145.191 48.0431 145.148 48.0001 145.148 47.951C145.148 47.6807 144.928 47.4657 144.665 47.4657C144.616 47.4657 144.573 47.4227 144.573 47.3735C144.573 47.3244 144.616 47.2814 144.665 47.2814C145.032 47.2814 145.332 47.5824 145.332 47.951C145.332 48.0063 145.289 48.0431 145.24 48.0431Z" fill="#66B0F0"/>
<path d="M151.397 48.0431C151.348 48.0431 151.305 48.0001 151.305 47.951C151.305 47.5824 151.605 47.2814 151.972 47.2814C152.021 47.2814 152.064 47.3244 152.064 47.3735C152.064 47.4227 152.021 47.4657 151.972 47.4657C151.703 47.4657 151.489 47.6868 151.489 47.951C151.489 48.0063 151.452 48.0431 151.397 48.0431Z" fill="#66B0F0"/>
<path d="M262.181 184.04L235.969 97.0449C235.449 95.3126 233.851 94.127 232.046 94.127H72.9564C71.1326 94.127 69.5292 95.3372 69.0213 97.1002L44.0088 184.04" stroke="#66B0F0" stroke-width="0.5" stroke-miterlimit="10"/>
<path d="M116.537 64.7273H186.121" stroke="#66B0F0" stroke-width="0.5" stroke-miterlimit="10"/>
<path d="M140.687 77.9467H157.125V92.1183H140.687C140.687 92.1183 140.687 77.4123 140.687 77.9467Z" fill="#FFCF2D"/>
<path d="M202.156 143.792L194.512 124.688H206.82L202.156 143.792Z" fill="#9A3B82"/>
<path d="M181.183 99.1889C182.823 96.0745 186.048 94.1272 189.555 94.1272H199.023L205.455 99.1889H181.183Z" fill="#9A3B82"/>
<path d="M217.077 121.555H193.227L202.205 143.43C201.581 142.41 197.842 143.473 193.882 145.912C189.971 148.319 187.328 151.219 187.866 152.275L168.515 118.478C163.497 109.951 169.616 99.1889 179.482 99.1889H232.928L233.044 99.5575C236.532 110.43 228.454 121.555 217.077 121.555Z" fill="#3FB1B5"/>
<path d="M233.851 105.461C233.766 107.457 233.325 109.386 232.578 111.174L204.549 99.1951H232.37L233.019 101.099C233.472 102.242 233.723 103.845 233.851 105.461Z" fill="#E6E6E6"/>
<path d="M202.212 143.43C202.836 144.449 200.106 147.232 196.153 149.671C192.193 152.109 188.515 153.332 187.891 152.312C187.267 151.292 189.929 148.411 193.888 145.973C197.842 143.534 201.581 142.41 202.212 143.43Z" fill="#66B0F0"/>
<path d="M193.429 145.985L176.024 115.099C174.659 112.654 176.416 109.632 179.212 109.632H213.111C217.676 109.632 221.085 105.411 220.143 100.927" stroke="white" stroke-width="0.5" stroke-miterlimit="10" stroke-linecap="round"/>
<path d="M187.688 152.38C187.064 151.36 189.763 148.116 193.888 145.702C198.521 142.993 201.52 142.189 202.413 143.626" stroke="white" stroke-width="0.5" stroke-miterlimit="10" stroke-linecap="round"/>
<path d="M202.548 143.762L191.177 116.549" stroke="white" stroke-width="0.5" stroke-miterlimit="10" stroke-linecap="round"/>
<path d="M178.814 98.9861H206.556" stroke="white" stroke-width="0.5" stroke-miterlimit="10"/>
<path d="M194.506 153.719L192.854 151.458L190.577 148.35C191.508 147.564 192.628 146.747 193.882 145.973C196.379 144.437 198.784 143.417 200.382 143.135L201.489 145.352L202.872 148.117C201.893 151.612 194.506 153.719 194.506 153.719Z" fill="#E57281"/>
<path d="M201.495 145.352C200.467 146.612 198.533 148.203 196.153 149.671C195.008 150.377 193.888 150.979 192.86 151.458L190.583 148.35C191.514 147.564 192.634 146.747 193.888 145.973C196.385 144.437 198.79 143.417 200.388 143.135L201.495 145.352Z" fill="#9A3B82"/>
<path d="M210.437 160.298L193.643 172.406C192.217 173.401 190.002 174.23 190.296 170.63C190.706 165.667 191.801 158.283 194.506 153.713C194.623 153.682 201.893 151.575 202.872 148.11L210.528 153.571C212.732 155.291 212.683 158.646 210.437 160.298Z" fill="white" stroke="#FFCF2D" stroke-width="0.5" stroke-miterlimit="10"/>
<path d="M193.729 155.316C195.063 155.568 202.554 152.902 203.716 148.792" stroke="#FFCF2D" stroke-width="0.5" stroke-miterlimit="10" stroke-linecap="round"/>
<path d="M191.923 171.158C191.923 171.158 202.884 155.875 210.681 156.735C219.169 157.663 184.983 180.072 191.923 171.158Z" fill="#FFCF2D"/>
<path d="M191.611 173.241C190.76 173.296 189.861 172.301 191.103 170.704C191.103 170.704 202.511 154.855 210.632 155.752C211.887 155.887 212.309 156.913 212.015 157.798" stroke="#FFCF2D" stroke-width="0.5" stroke-miterlimit="10" stroke-linecap="round"/>
<path d="M233.913 106.708C230.033 105.786 220.375 103.36 209.359 100.804C204.182 99.6066 199.849 96.0683 197.615 91.2277L187.585 69.4452L193.656 59.7887C195.522 56.8155 198.705 54.9235 202.199 54.7085L208.172 54.34C214.194 53.9714 219.029 57.7431 220.865 63.5112L233.013 99.1889C234.347 102.531 233.913 106.708 233.913 106.708Z" fill="white" stroke="#FE5244" stroke-width="0.5" stroke-miterlimit="10"/>
<path d="M192.866 70.6676C192.866 70.6676 196.061 75.7047 203.337 76.8166" stroke="#FE5244" stroke-width="0.5" stroke-miterlimit="10"/>
<path d="M197.174 61.5024C196.844 61.1461 196.262 61.2444 196.06 61.6805C195.834 62.1719 196.244 62.7186 196.776 62.6387C197.321 62.5589 197.547 61.9016 197.174 61.5024Z" fill="#FFCF2D" stroke="#FE5244" stroke-width="0.5" stroke-miterlimit="10" stroke-linejoin="round"/>
<path d="M212.419 72.0005C212.089 71.6442 211.507 71.7425 211.305 72.1787C211.079 72.6701 211.489 73.2168 212.022 73.1369C212.566 73.0571 212.793 72.3998 212.419 72.0005Z" fill="#FFCF2D" stroke="#FE5244" stroke-width="0.5" stroke-miterlimit="10" stroke-linejoin="round"/>
<path d="M217.248 76.3006C216.917 75.9443 216.336 76.0425 216.134 76.4787C215.907 76.9702 216.318 77.5169 216.85 77.437C217.388 77.3633 217.615 76.706 217.248 76.3006Z" fill="#FFCF2D" stroke="#FE5244" stroke-width="0.5" stroke-miterlimit="10" stroke-linejoin="round"/>
<path d="M226.507 100.632C226.177 100.276 225.595 100.374 225.393 100.81C225.167 101.302 225.577 101.849 226.109 101.769C226.648 101.689 226.874 101.038 226.507 100.632Z" fill="#FFCF2D" stroke="#FE5244" stroke-width="0.5" stroke-miterlimit="10" stroke-linejoin="round"/>
<path d="M221.324 89.004C220.993 88.6477 220.412 88.746 220.21 89.1821C219.984 89.6735 220.394 90.2202 220.926 90.1404C221.471 90.0605 221.697 89.4032 221.324 89.004Z" fill="#FFCF2D" stroke="#FE5244" stroke-width="0.5" stroke-miterlimit="10" stroke-linejoin="round"/>
<path d="M223.472 80.6373C222.995 80.6987 222.732 81.2331 222.97 81.6508C223.239 82.1238 223.919 82.1054 224.164 81.6201C224.415 81.1287 224.011 80.5636 223.472 80.6373Z" fill="#FFCF2D" stroke="#FE5244" stroke-width="0.5" stroke-miterlimit="10" stroke-linejoin="round"/>
<path d="M227.383 93.0459C226.905 93.1073 226.642 93.6417 226.881 94.0594C227.15 94.5324 227.83 94.5139 228.074 94.0287C228.325 93.5373 227.928 92.9721 227.383 93.0459Z" fill="#FFCF2D" stroke="#FE5244" stroke-width="0.5" stroke-miterlimit="10" stroke-linejoin="round"/>
<path d="M211.165 79.6606C210.834 79.3043 210.253 79.4026 210.051 79.8387C209.824 80.3301 210.234 80.8769 210.767 80.797C211.305 80.7171 211.532 80.066 211.165 79.6606Z" fill="#FFCF2D" stroke="#FE5244" stroke-width="0.5" stroke-miterlimit="10" stroke-linejoin="round"/>
<path d="M207.792 86.6205C207.462 86.2642 206.88 86.3625 206.679 86.7987C206.452 87.2901 206.862 87.8369 207.395 87.757C207.939 87.6772 208.166 87.0198 207.792 86.6205Z" fill="#FFCF2D" stroke="#FE5244" stroke-width="0.5" stroke-miterlimit="10" stroke-linejoin="round"/>
<path d="M201.759 84.1881C202.114 83.8563 202.016 83.2728 201.581 83.0701C201.091 82.8428 200.547 83.2544 200.626 83.7888C200.706 84.3293 201.355 84.5566 201.759 84.1881Z" fill="#FFCF2D" stroke="#FE5244" stroke-width="0.5" stroke-miterlimit="10" stroke-linejoin="round"/>
<path d="M207.113 96.1667C207.468 95.835 207.37 95.2514 206.936 95.0487C206.446 94.8214 205.902 95.233 205.981 95.7674C206.061 96.3142 206.716 96.5415 207.113 96.1667Z" fill="#FFCF2D" stroke="#FE5244" stroke-width="0.5" stroke-miterlimit="10" stroke-linejoin="round"/>
<path d="M216.128 85.8894C216.483 85.5577 216.385 84.9741 215.95 84.7714C215.461 84.5442 214.916 84.9557 214.996 85.4901C215.075 86.0307 215.73 86.2641 216.128 85.8894Z" fill="#FFCF2D" stroke="#FE5244" stroke-width="0.5" stroke-miterlimit="10" stroke-linejoin="round"/>
<path d="M219.206 98.7527C219.561 98.421 219.463 97.8374 219.029 97.6347C218.539 97.4074 217.994 97.819 218.074 98.3534C218.147 98.9001 218.802 99.1274 219.206 98.7527Z" fill="#FFCF2D" stroke="#FE5244" stroke-width="0.5" stroke-miterlimit="10" stroke-linejoin="round"/>
<path d="M200.749 72.701C200.418 72.3446 199.837 72.4429 199.635 72.8791C199.408 73.3706 199.818 73.9173 200.351 73.8374C200.895 73.7576 201.122 73.1003 200.749 72.701Z" fill="#FFCF2D" stroke="#FE5244" stroke-width="0.5" stroke-miterlimit="10" stroke-linejoin="round"/>
<path d="M201.844 56.7662C201.513 56.41 200.932 56.5083 200.73 56.9444C200.503 57.4358 200.913 57.9825 201.446 57.9026C201.991 57.8228 202.217 57.1655 201.844 56.7662Z" fill="#FFCF2D" stroke="#FE5244" stroke-width="0.5" stroke-miterlimit="10" stroke-linejoin="round"/>
<path d="M212.419 56.7662C212.089 56.41 211.507 56.5083 211.305 56.9444C211.079 57.4358 211.489 57.9825 212.022 57.9026C212.566 57.8228 212.793 57.1655 212.419 56.7662Z" fill="#FFCF2D" stroke="#FE5244" stroke-width="0.5" stroke-miterlimit="10" stroke-linejoin="round"/>
<path d="M212.438 63.6464C211.991 63.8245 211.862 64.4019 212.199 64.752C212.572 65.139 213.227 64.9609 213.35 64.4326C213.472 63.8982 212.946 63.4437 212.438 63.6464Z" fill="#FFCF2D" stroke="#FE5244" stroke-width="0.5" stroke-miterlimit="10" stroke-linejoin="round"/>
<path d="M206.428 59.727C205.963 59.8621 205.785 60.4211 206.079 60.802C206.416 61.2258 207.083 61.1091 207.254 60.5993C207.432 60.0771 206.948 59.5734 206.428 59.727Z" fill="#FFCF2D" stroke="#FE5244" stroke-width="0.5" stroke-miterlimit="10" stroke-linejoin="round"/>
<path d="M205.54 76.7429C205.063 76.7982 204.794 77.3265 205.026 77.7503C205.29 78.2233 205.969 78.2171 206.22 77.738C206.477 77.2528 206.085 76.6815 205.54 76.7429Z" fill="#FFCF2D" stroke="#FE5244" stroke-width="0.5" stroke-miterlimit="10" stroke-linejoin="round"/>
<path d="M200.296 89.5384C199.818 89.5937 199.549 90.122 199.781 90.5459C200.045 91.0189 200.724 91.0127 200.975 90.5336C201.232 90.0483 200.84 89.477 200.296 89.5384Z" fill="#FFCF2D" stroke="#FE5244" stroke-width="0.5" stroke-miterlimit="10" stroke-linejoin="round"/>
<path d="M202.058 64.8011C201.593 64.9362 201.416 65.4952 201.709 65.8761C202.046 66.2999 202.713 66.1832 202.884 65.6733C203.062 65.1574 202.584 64.6537 202.058 64.8011Z" fill="#FFCF2D" stroke="#FE5244" stroke-width="0.5" stroke-miterlimit="10" stroke-linejoin="round"/>
<path d="M207.125 68.2411C206.66 68.3762 206.483 68.9353 206.776 69.3161C207.113 69.74 207.78 69.6233 207.951 69.1134C208.129 68.5913 207.651 68.0875 207.125 68.2411Z" fill="#FFCF2D" stroke="#FE5244" stroke-width="0.5" stroke-miterlimit="10" stroke-linejoin="round"/>
<path d="M196.152 68.0937C196.458 67.719 196.293 67.1538 195.828 67.0125C195.314 66.8528 194.824 67.332 194.977 67.848C195.13 68.3763 195.804 68.5176 196.152 68.0937Z" fill="#FFCF2D" stroke="#FE5244" stroke-width="0.5" stroke-miterlimit="10" stroke-linejoin="round"/>
<path d="M219.353 68.112C219.659 67.7373 219.494 67.1721 219.029 67.0308C218.515 66.8711 218.025 67.3503 218.178 67.8663C218.325 68.3946 219.004 68.5359 219.353 68.112Z" fill="#FFCF2D" stroke="#FE5244" stroke-width="0.5" stroke-miterlimit="10" stroke-linejoin="round"/>
<path d="M213.465 93.0152C213.771 92.6405 213.606 92.0754 213.141 91.9341C212.627 91.7744 212.138 92.2535 212.291 92.7695C212.437 93.2917 213.117 93.4329 213.465 93.0152Z" fill="#FFCF2D" stroke="#FE5244" stroke-width="0.5" stroke-miterlimit="10" stroke-linejoin="round"/>
<path d="M208.582 54.1369C208.448 54.143 208.313 54.1492 208.172 54.1553L202.199 54.5239C200.675 54.616 199.219 55.0276 197.897 55.7094L196.061 50.1932L204.243 44.1732L208.582 54.1369Z" fill="#E57281"/>
<path d="M197.872 55.6236C199.574 54.8496 200.932 53.4736 201.703 51.7659L204.678 45.1623L204.243 44.1671L196.061 50.1871L197.872 55.6236Z" fill="#9A3B82"/>
<path d="M204.769 44.7262C204.769 45.2975 204.537 45.8135 204.163 46.1882C203.79 46.5629 203.276 46.7964 202.707 46.7964H200.908C200.198 49.5668 197.45 51.4649 194.494 50.9428L193.141 50.7032C191.66 50.4391 190.65 49.0508 190.859 47.5581L192.444 39.5908C192.719 37.8892 194.463 36.8511 196.085 37.4346L198.711 38.4912C200.13 38.9826 201.085 40.3218 201.085 41.8268V42.5946L202.707 42.6561C203.845 42.6561 204.769 43.5836 204.769 44.7262Z" fill="#E57281"/>
<path d="M201.722 45.1256C201.722 44.3332 202.358 43.6943 203.148 43.6943" stroke="#9A3B82" stroke-width="0.5" stroke-miterlimit="10" stroke-linecap="round"/>
<path d="M193.325 41.2679C193.325 41.2679 194.61 41.2679 195.528 42.5026" stroke="#9A3B82" stroke-width="0.5" stroke-miterlimit="10" stroke-linecap="round"/>
<path d="M194.179 43.5669C194.244 43.2098 194.162 42.8957 193.995 42.8653C193.829 42.835 193.642 43.0999 193.577 43.4571C193.512 43.8143 193.595 44.1284 193.761 44.1587C193.927 44.189 194.115 43.9241 194.179 43.5669Z" fill="#9A3B82"/>
<path d="M202.707 42.6561C203.845 42.6561 204.769 43.5837 204.769 44.7263C204.769 44.7324 204.769 44.7447 204.769 44.757C205.687 43.338 207.939 39.726 207.939 38.5036C207.939 36.8634 205.901 35.2233 203.79 35.9727C203.931 35.8683 204.078 35.7577 204.231 35.641C205.045 35.0021 205.473 34.523 205.54 34.179C205.565 34.0561 205.547 33.9456 205.485 33.8596C205.241 33.5094 204.971 33.3558 204.684 33.405C204.261 33.4726 203.827 33.9947 203.392 34.953C203.196 35.3891 203.043 35.8191 202.958 36.0833C202.786 35.0574 201.96 31.6604 198.41 32.1826C197.186 32.3607 196.611 32.8706 196.452 33.4296C195.436 32.631 194.077 32.0044 192.951 32.6003C191.005 33.6261 191.244 35.3093 192.37 36.501C191.305 36.4826 190.558 36.7958 190.558 37.6988C190.558 38.5281 191.409 38.9274 192.578 39.0871C193.747 39.2468 195.246 39.1608 196.544 39.0134C197.468 38.909 198.3 38.78 198.833 38.6878C198.478 39.4188 198.337 40.0454 198.368 40.5737C198.423 41.6671 199.212 42.3121 200.326 42.5394C200.565 42.5886 200.822 42.6193 201.085 42.6316L202.707 42.6561ZM204.72 33.6507C204.739 33.6446 204.757 33.6446 204.782 33.6446C204.953 33.6446 205.118 33.7674 205.283 34.0008C205.296 34.0254 205.314 34.0623 205.302 34.1298C205.204 34.6274 203.949 35.5734 203.221 36.071C203.509 35.2233 204.114 33.7551 204.72 33.6507Z" fill="#FFCF2D"/>
<path d="M197.823 35.4691C197.401 35.4691 196.973 35.2418 196.66 34.8425C196.312 34.4002 196.195 33.8535 196.342 33.3805C196.361 33.3191 196.422 33.2822 196.483 33.2945C196.508 33.2945 196.532 33.3007 196.55 33.3191C197.474 33.9825 198.215 34.9285 198.105 35.3032C198.08 35.4015 198.001 35.463 197.897 35.4691C197.872 35.4691 197.848 35.4691 197.823 35.4691ZM196.538 33.614C196.483 33.9702 196.593 34.3634 196.85 34.689C197.126 35.0391 197.505 35.2418 197.872 35.2172C197.884 35.0575 197.474 34.3265 196.538 33.614Z" fill="white"/>
<path d="M185.742 89.7103H146.574C145.607 89.7103 145.026 88.6414 145.54 87.8244L150.754 79.6053C151.433 78.5365 152.602 77.8914 153.863 77.8914H180.375L185.742 89.7103Z" fill="#E57281"/>
<path d="M154.726 77.8976L157.847 72.7376C158.031 72.4304 158.367 72.24 158.722 72.24C159.524 72.24 160.014 73.1184 159.598 73.8064L157.119 77.8976H154.726Z" fill="#FE5244"/>
<path d="M185.742 89.7103H176.936C176.917 89.6919 176.893 89.6673 176.874 89.6489C174.732 87.4375 173.82 84.0834 175.026 80.8523L176.281 77.8914H180.375L185.742 89.7103Z" fill="#9A3B82"/>
<path d="M152.107 84.1939H147.198C146.868 84.1939 146.562 84.372 146.397 84.6608L145.877 85.5699C145.528 86.1842 145.968 86.952 146.678 86.952H150.626C151.311 86.952 151.948 86.5958 152.309 86.006L152.731 85.3119C153.025 84.8205 152.676 84.1939 152.107 84.1939Z" fill="#E57281"/>
<path d="M150.84 86.9521H145.932C145.601 86.9521 145.295 87.1303 145.13 87.419L144.61 88.3282C144.261 88.9424 144.701 89.7103 145.411 89.7103H149.359C150.044 89.7103 150.681 89.354 151.042 88.7643L151.464 88.0701C151.764 87.5787 151.409 86.9521 150.84 86.9521Z" fill="#E57281"/>
<path d="M153.508 81.3989H148.6C148.269 81.3989 147.963 81.5771 147.798 81.8658L147.278 82.7749C146.929 83.3892 147.37 84.1571 148.08 84.1571H152.027C152.713 84.1571 153.349 83.8008 153.71 83.2111L154.132 82.5169C154.432 82.0255 154.077 81.3989 153.508 81.3989Z" fill="#E57281"/>
<path d="M152.107 84.1939H147.198C146.868 84.1939 146.562 84.372 146.397 84.6608L145.877 85.5699C145.528 86.1842 145.968 86.952 146.678 86.952H150.626C151.311 86.952 151.948 86.5958 152.309 86.006L152.731 85.3119C153.025 84.8205 152.676 84.1939 152.107 84.1939Z" stroke="#9A3B82" stroke-width="0.5" stroke-miterlimit="10" stroke-linecap="round"/>
<path d="M150.84 86.9521H145.932C145.601 86.9521 145.295 87.1303 145.13 87.419L144.61 88.3282C144.261 88.9424 144.701 89.7103 145.411 89.7103H149.359C150.044 89.7103 150.681 89.354 151.042 88.7643L151.464 88.0701C151.764 87.5787 151.409 86.9521 150.84 86.9521Z" stroke="#9A3B82" stroke-width="0.5" stroke-miterlimit="10" stroke-linecap="round"/>
<path d="M153.508 81.3989H148.6C148.269 81.3989 147.963 81.5771 147.798 81.8658L147.278 82.7749C146.929 83.3892 147.37 84.1571 148.08 84.1571H152.027C152.713 84.1571 153.349 83.8008 153.71 83.2111L154.132 82.5169C154.432 82.0255 154.077 81.3989 153.508 81.3989Z" stroke="#9A3B82" stroke-width="0.5" stroke-miterlimit="10" stroke-linecap="round"/>
<path d="M160.613 85.5086C159.139 85.5086 157.719 84.9742 156.605 83.9974L154.744 82.3634H153.031L152.59 82.8364C151.801 83.6842 150.828 84.1694 149.671 84.1694H148.851C148.422 84.1694 148.159 83.6903 148.392 83.3279L150.454 80.0844H160.62V85.5086H160.613Z" fill="#E57281"/>
<path d="M150.454 80.0844L148.392 83.3279C148.159 83.6903 148.422 84.1694 148.851 84.1694H149.671C150.828 84.1694 151.801 83.6903 152.59 82.8364L153.031 82.3634H154.744L156.605 83.9974C157.713 84.968 159.139 85.5086 160.613 85.5086" stroke="#9A3B82" stroke-width="0.5" stroke-miterlimit="10" stroke-linecap="round"/>
<path d="M201.936 78.2233L192.59 88.703C190.626 90.9083 187.817 92.1676 184.867 92.1676C179.041 92.1676 175.007 86.3318 177.052 80.8524L188.153 54.6716L184.402 52.5646C183.869 52.1468 183.612 51.465 183.729 50.8016L184.365 46.4954C184.561 45.5371 185.534 44.7877 186.483 44.5666L190.877 43.5714C191.25 43.4854 191.593 43.8048 191.532 44.1796L190.895 47.5028C190.644 49.1246 191.734 50.5251 193.349 50.8016C194.671 51.0288 195.602 52.3618 195.479 53.701L192.486 72.4367C192.48 72.449 195.546 77.2466 201.936 78.2233Z" fill="#E57281"/>
<path d="M194.769 58.1545L191.158 81.6877" stroke="#9A3B82" stroke-width="0.5" stroke-miterlimit="10" stroke-linecap="round"/>
<path d="M187.284 46.8086L187.235 48.332C187.217 48.9586 187.59 49.5115 188.129 49.665L193.753 50.8076" stroke="#9A3B82" stroke-width="0.5" stroke-miterlimit="10" stroke-linecap="round"/>
<path d="M197.579 51.299L193.08 50.6971C191.599 50.4329 190.59 49.0446 190.798 47.5519L191.379 44.2163C191.434 43.9031 191.153 43.6389 190.847 43.7126L186.257 44.7876" stroke="#9A3B82" stroke-width="0.5" stroke-miterlimit="10" stroke-linecap="round"/>
<path d="M195.094 85.8774L207.26 72.2894" stroke="#FE5244" stroke-width="0.5" stroke-miterlimit="10"/>
<path d="M188.282 54.6777H190.43" stroke="#9A3B82" stroke-width="0.5" stroke-miterlimit="10" stroke-linecap="round"/>
<path d="M187.291 47.2142V47.7056C187.291 48.2892 187.713 48.7684 188.233 48.7684H188.906C189.2 48.7684 189.433 48.5042 189.433 48.1725L189.476 44.9659C189.482 44.4683 188.955 44.1612 188.527 44.2656" stroke="#9A3B82" stroke-width="0.5" stroke-miterlimit="10" stroke-linecap="round"/>
<path d="M189.475 47.2141V47.7056C189.475 48.2891 189.897 48.7683 190.418 48.7683H190.846" stroke="#9A3B82" stroke-width="0.5" stroke-miterlimit="10" stroke-linecap="round"/>
<path d="M230.119 124.688L237.224 184.04" stroke="#66B0F0" stroke-miterlimit="10"/>
<path d="M199.323 124.688L192.217 184.04" stroke="#66B0F0" stroke-miterlimit="10"/>
<path d="M194.653 163.658H234.782" stroke="#66B0F0" stroke-miterlimit="10"/>
<path d="M195.228 124.872H233.845C234.36 124.872 234.776 124.455 234.776 123.939V122.673C234.776 122.157 234.36 121.739 233.845 121.739H195.228C194.714 121.739 194.298 122.157 194.298 122.673V123.939C194.298 124.455 194.714 124.872 195.228 124.872Z" fill="white" stroke="#FFCF2D" stroke-miterlimit="10"/>
<path d="M130.968 79.9553L125.056 92.1673H107.192L114.37 79.9553H130.968Z" fill="white" stroke="#3FB1B5" stroke-width="0.5" stroke-miterlimit="10"/>
<path d="M127.051 82.9346C127.051 82.9346 126.274 81.6016 124.407 81.9456C123.012 82.1974 121.359 83.3523 120.343 82.7319C119.328 82.1115 118.428 81.3375 117.112 81.706C115.796 82.0746 114.823 82.781 114.823 82.781" stroke="#3FB1B5" stroke-width="0.5" stroke-miterlimit="10"/>
<path d="M126.439 84.839C126.439 84.839 125.662 83.5059 123.795 83.8499C122.4 84.1018 120.747 85.2567 119.731 84.6362C118.715 84.0158 117.816 83.2417 116.5 83.6103C115.184 83.9789 114.211 84.6854 114.211 84.6854" stroke="#3FB1B5" stroke-width="0.5" stroke-miterlimit="10"/>
<path d="M137.688 134.762C137.688 136.402 133.153 137.729 127.474 137.729C121.794 137.729 117.394 136.402 117.394 134.762C117.394 133.122 121.794 131.795 127.474 131.795C133.153 131.795 137.688 133.128 137.688 134.762Z" fill="#FE5244"/>
<path d="M135.075 132.766V153.958L134.432 150.899C133.741 147.607 130.846 145.254 127.492 145.254C126.482 145.254 125.491 145.469 124.591 145.874C124.561 145.887 124.53 145.905 124.493 145.917L122.137 137.293L120.827 132.495C122.621 132.059 124.94 131.795 127.474 131.795C130.485 131.795 133.196 132.17 135.075 132.766Z" fill="#A0505A"/>
<path d="M135.075 132.766V136.758C133.196 137.354 130.485 137.729 127.474 137.729C125.521 137.729 123.698 137.569 122.137 137.299L120.827 132.501C122.621 132.065 124.94 131.801 127.474 131.801C130.485 131.795 133.196 132.17 135.075 132.766Z" fill="#73325A"/>
<path d="M134.622 153.339C134.787 153.388 136.342 153.824 137.719 153.824C138.465 153.824 139.157 153.695 139.549 153.302C139.885 152.964 139.965 152.472 139.787 151.852C139.628 151.299 139.322 150.955 138.875 150.832C138.055 150.611 136.917 151.225 136.017 151.87C137.419 150.163 138.802 147.994 138.288 146.575C138.104 146.072 137.688 145.734 137.168 145.672C136.733 145.623 136.329 145.777 136.14 146.065C135.258 147.411 134.536 152.933 134.506 153.167L134.622 153.339ZM136.397 146.237C136.507 146.072 136.739 145.973 137.009 145.973C137.052 145.973 137.094 145.973 137.137 145.979C137.333 146.004 137.804 146.115 138.006 146.68C138.141 147.054 138.19 147.742 137.645 148.897C137.131 149.991 136.201 151.275 134.879 152.73C135.075 151.33 135.699 147.3 136.397 146.237ZM139.334 153.087C138.93 153.492 138.012 153.615 136.672 153.443C135.968 153.351 135.313 153.203 134.965 153.111C135.228 152.878 135.717 152.454 136.287 152.061C137.376 151.305 138.245 150.98 138.802 151.133C139.138 151.225 139.365 151.49 139.5 151.938C139.646 152.454 139.591 152.829 139.334 153.087Z" fill="#FFCF2D"/>
<path d="M122.198 147.638L120.785 149.229C119.181 151.035 118.918 153.664 120.136 155.752L126.36 166.466C127.578 168.56 129.812 169.844 132.223 169.844H134.799C136.666 169.844 138.055 168.124 137.67 166.294L134.426 150.906C133.735 147.613 130.84 145.26 127.486 145.26C125.472 145.254 123.545 146.12 122.198 147.638Z" fill="white" stroke="#3FB1B5" stroke-width="0.5" stroke-miterlimit="10"/>
<path d="M127.015 152.269L135.05 167.897C135.43 168.603 135.901 169.058 136.44 169.346C135.975 169.66 135.412 169.85 134.8 169.85H132.223C129.806 169.85 127.572 168.56 126.36 166.472L120.136 155.752C119.885 155.316 119.695 154.861 119.567 154.388C118.686 151.102 122.413 148.522 125.209 150.451C125.846 150.887 126.47 151.477 127.015 152.269Z" fill="#3FB1B5"/>
<path d="M127.033 152.306H119.616C119.652 152.189 119.695 152.079 119.744 151.974H126.794C126.868 152.073 126.941 152.171 127.014 152.275L127.033 152.306Z" fill="white"/>
<path d="M128.122 154.419H119.579C119.579 154.407 119.573 154.395 119.573 154.388C119.548 154.29 119.524 154.186 119.505 154.087H127.957L128.122 154.419Z" fill="white"/>
<path d="M129.212 156.539H120.595L120.399 156.201H129.04L129.212 156.539Z" fill="white"/>
<path d="M130.301 158.658H121.825L121.629 158.32H130.13L130.301 158.658Z" fill="white"/>
<path d="M131.39 160.771H123.055L122.859 160.439H131.219L131.39 160.771Z" fill="white"/>
<path d="M132.48 162.89H124.285L124.089 162.552H132.303L132.48 162.89Z" fill="white"/>
<path d="M133.569 165.009H125.515L125.319 164.671H133.392L133.569 165.009Z" fill="white"/>
<path d="M134.652 167.122H126.794C126.715 167.012 126.635 166.901 126.562 166.791H134.481L134.652 167.122Z" fill="white"/>
<path d="M136.262 169.242H129.432C129.212 169.143 128.998 169.033 128.79 168.91H135.822C135.962 169.033 136.109 169.143 136.262 169.242Z" fill="white"/>
<path d="M112.62 134.326C112.565 135.948 107.982 137.262 102.339 137.262C96.6962 137.262 92.1123 135.954 92.0573 134.326V121.555H112.62V134.326Z" fill="#73325A"/>
<path d="M111.256 136.445L111.225 137.962L110.931 152.773V152.343C110.931 148.54 107.859 145.457 104.071 145.457H103.655C101.721 145.457 99.9765 146.212 98.6852 147.429L97.7856 141.323L97.2287 137.545C98.7342 137.797 100.478 137.938 102.333 137.938C106.152 137.932 109.475 137.33 111.256 136.445Z" fill="#A0505A"/>
<path d="M111.256 136.445L111.225 137.962C108.948 139.584 101.917 141.581 97.7917 141.317L97.2348 137.539C98.7403 137.784 100.485 137.932 102.339 137.932C106.152 137.932 109.475 137.33 111.256 136.445Z" fill="#73325A"/>
<path d="M104.383 170.047H105.521C108.508 170.047 110.931 167.614 110.931 164.616V152.343C110.931 148.54 107.859 145.457 104.071 145.457H103.655C99.2484 145.457 95.8518 149.357 96.4454 153.743L97.8836 164.358C98.3304 167.614 101.103 170.047 104.383 170.047Z" fill="white" stroke="#3FB1B5" stroke-width="0.5" stroke-miterlimit="10"/>
<path d="M109.23 168.566C108.263 169.481 106.953 170.047 105.521 170.047H104.383C101.103 170.047 98.3303 167.614 97.8896 164.358L96.4514 153.743C96.4269 153.541 96.4025 153.338 96.3963 153.141C96.7636 150.789 98.7893 148.989 101.237 148.989C102.443 148.989 103.557 149.431 104.42 150.168C105.283 150.905 105.889 151.944 106.078 153.141L107.969 166.097C108.11 167.061 108.563 167.921 109.23 168.566Z" fill="#3FB1B5"/>
<path d="M105.509 151.501H96.9594C97.0206 151.385 97.094 151.274 97.1675 151.17H105.307C105.38 151.274 105.448 151.385 105.509 151.501Z" fill="white"/>
<path d="M106.146 153.615H96.4331C96.4208 153.504 96.4086 153.394 96.4025 153.283H106.097L106.146 153.615Z" fill="white"/>
<path d="M106.458 155.734H96.7207L96.6717 155.402H106.409L106.458 155.734Z" fill="white"/>
<path d="M106.764 157.853H97.0083L96.9594 157.515H106.715L106.764 157.853Z" fill="white"/>
<path d="M107.076 159.966H97.2959L97.2469 159.634H107.027L107.076 159.966Z" fill="white"/>
<path d="M107.382 162.085H97.5775L97.5347 161.754H107.333L107.382 162.085Z" fill="white"/>
<path d="M107.694 164.205H97.865L97.8222 163.867H107.645L107.694 164.205Z" fill="white"/>
<path d="M108.006 166.318H98.4713C98.4162 166.207 98.3672 166.097 98.3244 165.986H107.951L107.969 166.097C107.982 166.17 107.994 166.244 108.006 166.318Z" fill="white"/>
<path d="M109.102 168.437H100.087C99.9644 168.333 99.842 168.216 99.7319 168.105H108.82C108.906 168.222 109.004 168.333 109.102 168.437Z" fill="white"/>
<path d="M117.07 67.946V78.2906C116.623 77.1173 113.086 77.2832 109.193 78.7636C105.858 80.0352 103.355 81.7797 102.988 82.9899V68.4313C102.988 64.1006 105.295 60.2306 108.838 58.1175C113.441 58.9222 117.07 62.9457 117.07 67.946Z" fill="#FFCF2D"/>
<path d="M102.718 58.5843C99.5848 60.7711 97.5897 64.4015 97.5897 68.4312V80.4405H80.1661L82.5713 70.0468C83.5933 65.6178 86.7879 62.0857 90.9495 60.5807L102.718 58.5843Z" fill="#FFCF2D"/>
<path d="M137.957 109.988V134.099C137.957 132.458 133.153 131.132 127.473 131.132C121.794 131.132 117.192 132.458 117.192 134.099V122.544C117.192 122.003 116.751 121.561 116.213 121.561H84.9763C75.5821 121.561 68.6359 112.783 70.7595 103.599L78.2994 70.9929C79.4989 65.7899 83.6972 61.8278 88.942 60.9309L90.9494 60.5869C86.7878 62.0919 83.5932 65.6241 82.5711 70.0531L80.166 80.4468H97.5896V68.4314C97.5896 64.4017 99.5908 60.7651 102.718 58.5844L105.472 58.1175C106.041 58.0192 106.598 57.9762 107.155 57.9762C107.229 57.9762 107.296 57.9762 107.369 57.9762C107.437 57.9762 107.504 57.9824 107.565 57.9824C107.577 57.9824 107.59 57.9824 107.602 57.9824C107.651 57.9824 107.706 57.9885 107.755 57.9885C107.761 57.9885 107.773 57.9885 107.779 57.9885C107.81 57.9885 107.841 57.9947 107.865 57.9947C107.92 58.0008 107.969 58.0008 108.024 58.0069C108.085 58.0131 108.153 58.0192 108.214 58.0254C108.275 58.0315 108.33 58.0377 108.391 58.0438C108.404 58.0438 108.416 58.0499 108.434 58.0499C108.495 58.0561 108.563 58.0684 108.624 58.0745C108.63 58.0745 108.636 58.0745 108.636 58.0745C108.703 58.0868 108.771 58.0929 108.838 58.1052C105.295 60.2184 102.987 64.0884 102.987 68.4191V97.9355H125.962C132.584 97.9478 137.957 103.335 137.957 109.988Z" fill="#FE5244"/>
<path d="M103.116 58.3141C99.9827 60.5009 97.5836 64.4016 97.5836 68.4313V80.4406H80.16L82.5652 70.0469C83.5872 65.6179 86.5125 62.0182 90.6803 60.5132" stroke="white" stroke-width="0.5" stroke-miterlimit="10" stroke-linecap="round"/>
<path d="M117.192 118.84C117.192 115.418 118.398 112.107 120.595 109.497" stroke="white" stroke-width="0.5" stroke-miterlimit="10" stroke-linecap="round"/>
<path d="M91.739 117.617C91.7084 117.617 91.6778 117.611 91.6533 117.593L90.8455 117.15C90.7537 117.101 90.7231 116.991 90.7721 116.898C90.821 116.806 90.9312 116.776 91.023 116.825L91.8308 117.267C91.9226 117.316 91.9532 117.427 91.9043 117.519C91.8675 117.58 91.8063 117.617 91.739 117.617ZM92.5469 117.408C92.4795 117.408 92.4183 117.371 92.3877 117.31C92.3388 117.218 92.3694 117.107 92.4612 117.058L93.269 116.616C93.3608 116.567 93.471 116.604 93.5199 116.69C93.5689 116.782 93.5383 116.892 93.4465 116.941L92.6387 117.384C92.6081 117.396 92.5775 117.408 92.5469 117.408ZM90.1233 116.739C90.0927 116.739 90.0621 116.733 90.0377 116.714L89.2298 116.272C89.138 116.223 89.1074 116.112 89.1564 116.02C89.2053 115.928 89.3155 115.897 89.4073 115.946L90.2151 116.389C90.3069 116.438 90.3375 116.548 90.2886 116.64C90.2519 116.702 90.1907 116.739 90.1233 116.739ZM94.1564 116.524C94.0891 116.524 94.0279 116.487 93.9973 116.425C93.9483 116.333 93.9789 116.223 94.0707 116.174L94.8786 115.731C95.0193 115.658 95.1479 115.572 95.2764 115.479C95.3559 115.418 95.4722 115.436 95.5334 115.516C95.5946 115.596 95.5763 115.713 95.4967 115.774C95.3559 115.879 95.2091 115.971 95.0561 116.057L94.2482 116.499C94.2176 116.518 94.187 116.524 94.1564 116.524ZM88.526 115.83C88.4893 115.83 88.4526 115.817 88.4159 115.793C88.1588 115.602 87.9201 115.381 87.7182 115.129C87.6509 115.049 87.6631 114.933 87.7427 114.871C87.8222 114.804 87.9385 114.816 87.9997 114.896C88.1833 115.123 88.3975 115.32 88.6301 115.492C88.7096 115.553 88.728 115.67 88.6729 115.75C88.6423 115.805 88.5872 115.83 88.526 115.83ZM96.0475 115.185C96.0047 115.185 95.9679 115.172 95.9312 115.142C95.8517 115.08 95.8394 114.963 95.9067 114.884C96.0903 114.656 96.2433 114.411 96.3657 114.14C96.4086 114.048 96.5187 114.005 96.6105 114.048C96.7023 114.091 96.7452 114.202 96.7023 114.294C96.5677 114.589 96.3963 114.865 96.1944 115.111C96.1515 115.16 96.1026 115.185 96.0475 115.185ZM87.3755 114.423C87.3081 114.423 87.2408 114.386 87.2102 114.318C87.0756 114.024 86.9777 113.716 86.9165 113.397C86.8981 113.299 86.9654 113.2 87.0633 113.182C87.1613 113.164 87.2592 113.231 87.2775 113.329C87.3326 113.618 87.4183 113.895 87.5407 114.159C87.5835 114.251 87.5407 114.361 87.4489 114.404C87.4244 114.417 87.3999 114.423 87.3755 114.423ZM96.8064 113.526C96.7941 113.526 96.7819 113.526 96.7758 113.526C96.6779 113.508 96.6105 113.409 96.6289 113.311C96.6656 113.108 96.684 112.906 96.684 112.703V112.426C96.684 112.322 96.7635 112.242 96.8676 112.242C96.9716 112.242 97.0512 112.322 97.0512 112.426V112.703C97.0512 112.93 97.0328 113.157 96.99 113.379C96.9716 113.465 96.8921 113.526 96.8064 113.526ZM87.0389 112.629C86.9348 112.629 86.8553 112.549 86.8553 112.445V111.523C86.8553 111.419 86.9348 111.339 87.0389 111.339C87.1429 111.339 87.2225 111.419 87.2225 111.523V112.445C87.2225 112.543 87.1368 112.629 87.0389 112.629ZM96.8615 111.689C96.7574 111.689 96.6779 111.609 96.6779 111.505V110.584C96.6779 110.479 96.7574 110.399 96.8615 110.399C96.9655 110.399 97.0451 110.479 97.0451 110.584V111.505C97.0451 111.609 96.9655 111.689 96.8615 111.689ZM87.0389 110.786C86.9348 110.786 86.8553 110.706 86.8553 110.602V109.681C86.8553 109.576 86.9348 109.496 87.0389 109.496C87.1429 109.496 87.2225 109.576 87.2225 109.681V110.602C87.2225 110.7 87.1368 110.786 87.0389 110.786ZM96.8615 109.846C96.7574 109.846 96.6779 109.767 96.6779 109.662V108.741C96.6779 108.636 96.7574 108.556 96.8615 108.556C96.9655 108.556 97.0451 108.636 97.0451 108.741V109.662C97.0451 109.767 96.9655 109.846 96.8615 109.846ZM87.0389 108.943C86.9348 108.943 86.8553 108.864 86.8553 108.759V107.838C86.8553 107.733 86.9348 107.653 87.0389 107.653C87.1429 107.653 87.2225 107.733 87.2225 107.838V108.759C87.2225 108.857 87.1368 108.943 87.0389 108.943ZM96.8615 108.004C96.7574 108.004 96.6779 107.924 96.6779 107.819V106.898C96.6779 106.793 96.7574 106.714 96.8615 106.714C96.9655 106.714 97.0451 106.793 97.0451 106.898V107.819C97.0451 107.924 96.9655 108.004 96.8615 108.004ZM87.0389 107.101C86.9348 107.101 86.8553 107.021 86.8553 106.916V106.124H87.351C87.455 106.124 87.5346 106.204 87.5346 106.308C87.5346 106.413 87.455 106.492 87.351 106.492H87.2225V106.916C87.2225 107.015 87.1368 107.101 87.0389 107.101ZM96.531 106.492H95.613C95.5089 106.492 95.4294 106.413 95.4294 106.308C95.4294 106.204 95.5089 106.124 95.613 106.124H96.531C96.635 106.124 96.7146 106.204 96.7146 106.308C96.7146 106.413 96.635 106.492 96.531 106.492ZM94.695 106.492H93.777C93.6729 106.492 93.5934 106.413 93.5934 106.308C93.5934 106.204 93.6729 106.124 93.777 106.124H94.695C94.799 106.124 94.8786 106.204 94.8786 106.308C94.8786 106.413 94.799 106.492 94.695 106.492ZM92.859 106.492H91.941C91.8369 106.492 91.7574 106.413 91.7574 106.308C91.7574 106.204 91.8369 106.124 91.941 106.124H92.859C92.963 106.124 93.0426 106.204 93.0426 106.308C93.0426 106.413 92.963 106.492 92.859 106.492ZM91.023 106.492H90.105C90.0009 106.492 89.9214 106.413 89.9214 106.308C89.9214 106.204 90.0009 106.124 90.105 106.124H91.023C91.127 106.124 91.2066 106.204 91.2066 106.308C91.2066 106.413 91.127 106.492 91.023 106.492ZM89.187 106.492H88.269C88.1649 106.492 88.0854 106.413 88.0854 106.308C88.0854 106.204 88.1649 106.124 88.269 106.124H89.187C89.291 106.124 89.3706 106.204 89.3706 106.308C89.3706 106.413 89.291 106.492 89.187 106.492Z" fill="white"/>
<path d="M74.4194 116.598C74.3521 116.598 74.2909 116.561 74.2603 116.499C74.2114 116.407 74.2419 116.297 74.3337 116.247L75.0804 115.836C75.0988 115.824 75.1171 115.817 75.1355 115.805C75.2211 115.756 75.3374 115.787 75.3864 115.873C75.4354 115.959 75.4047 116.075 75.3191 116.125C75.3007 116.137 75.2823 116.149 75.2579 116.155L74.5112 116.567C74.4806 116.591 74.45 116.598 74.4194 116.598ZM75.9678 115.615C75.9188 115.615 75.8699 115.596 75.8331 115.553C75.7658 115.48 75.772 115.363 75.8454 115.295C76.0596 115.099 76.2493 114.871 76.4145 114.632C76.4696 114.546 76.5859 114.527 76.6716 114.583C76.7573 114.638 76.7756 114.755 76.7205 114.841C76.5431 115.105 76.3289 115.351 76.0963 115.572C76.0535 115.602 76.0106 115.615 75.9678 115.615ZM76.9898 114.104C76.9653 114.104 76.947 114.097 76.9225 114.091C76.8307 114.054 76.7817 113.95 76.8185 113.852C76.9225 113.575 76.996 113.293 77.0388 113.004C77.051 112.906 77.1428 112.832 77.2469 112.844C77.3448 112.857 77.4182 112.949 77.406 113.053C77.3632 113.373 77.2836 113.686 77.1673 113.987C77.1306 114.061 77.0633 114.104 76.9898 114.104ZM77.253 112.298C77.149 112.298 77.0694 112.218 77.0694 112.113V111.192C77.0694 111.087 77.149 111.007 77.253 111.007C77.357 111.007 77.4366 111.087 77.4366 111.192V112.113C77.4366 112.212 77.357 112.298 77.253 112.298ZM77.253 110.455C77.149 110.455 77.0694 110.375 77.0694 110.27V109.349C77.0694 109.244 77.149 109.165 77.253 109.165C77.357 109.165 77.4366 109.244 77.4366 109.349V110.27C77.4366 110.369 77.357 110.455 77.253 110.455ZM77.253 108.612C77.149 108.612 77.0694 108.532 77.0694 108.427V107.506C77.0694 107.402 77.149 107.322 77.253 107.322C77.357 107.322 77.4366 107.402 77.4366 107.506V108.427C77.4366 108.526 77.357 108.612 77.253 108.612ZM77.253 106.769C77.149 106.769 77.0694 106.689 77.0694 106.585V106.492H76.6104C76.5064 106.492 76.4268 106.413 76.4268 106.308C76.4268 106.204 76.5064 106.124 76.6104 106.124H77.4366V106.585C77.4366 106.683 77.357 106.769 77.253 106.769ZM75.6924 106.492H74.7744C74.6704 106.492 74.5908 106.413 74.5908 106.308C74.5908 106.204 74.6704 106.124 74.7744 106.124H75.6924C75.7964 106.124 75.876 106.204 75.876 106.308C75.876 106.413 75.7903 106.492 75.6924 106.492ZM73.8564 106.492H72.9384C72.8344 106.492 72.7548 106.413 72.7548 106.308C72.7548 106.204 72.8344 106.124 72.9384 106.124H73.8564C73.9604 106.124 74.04 106.204 74.04 106.308C74.04 106.413 73.9543 106.492 73.8564 106.492ZM72.0204 106.492H71.1024C70.9984 106.492 70.9188 106.413 70.9188 106.308C70.9188 106.204 70.9984 106.124 71.1024 106.124H72.0204C72.1244 106.124 72.204 106.204 72.204 106.308C72.204 106.413 72.1183 106.492 72.0204 106.492Z" fill="white"/>
<path d="M117.069 78.2907C117.516 79.464 114.689 81.5465 110.803 83.0269C106.916 84.5074 103.434 84.7346 102.987 83.5552C102.541 82.3758 105.301 80.2503 109.193 78.7699C113.085 77.2894 116.623 77.1113 117.069 78.2907Z" fill="#FE5244"/>
<path d="M119.242 116.401V117.052C119.04 117.003 118.826 116.979 118.612 116.979H117.822C116.653 116.979 115.656 116.229 115.276 115.185L117.516 114.884C118.428 114.761 119.242 115.474 119.242 116.401Z" fill="#73325A"/>
<path d="M121.31 119.687V124.688C121.31 125.855 120.368 126.801 119.205 126.801H116.861C116.28 126.801 115.753 126.567 115.374 126.18C114.995 125.8 114.756 125.271 114.756 124.688H116.28C116.782 124.688 117.186 124.282 117.186 123.779V122.47C117.186 121.966 116.782 121.561 116.28 121.561H108.489C105.447 121.561 102.981 119.085 102.981 116.032V82.9962C103.348 81.7861 105.851 80.0354 109.187 78.77C111.463 77.9038 113.624 77.4861 115.111 77.523V114.269C115.111 115.768 116.323 116.985 117.816 116.985H118.605C120.099 116.978 121.31 118.189 121.31 119.687Z" fill="#A0505A"/>
<path d="M115.111 77.5167V80.8584C114.003 81.6079 112.504 82.3757 110.796 83.0207C106.904 84.5011 103.428 84.7284 102.981 83.549V82.99C103.348 81.7799 105.851 80.0291 109.187 78.7637C111.469 77.8976 113.624 77.4798 115.111 77.5167Z" fill="#73325A"/>
<path d="M104.934 52.6319L102.633 58.5844L90.7721 60.716L93.8688 52.6319H104.934Z" fill="#A0505A"/>
<path d="M104.934 52.6319L103.692 55.8508L91.9289 57.6936L93.8689 52.6319H104.934Z" fill="#73325A"/>
<path d="M111.886 40.5183C111.886 41.323 110.497 42.2138 108.893 42.9632C106.709 43.989 104.132 44.7692 104.132 44.7692L102.394 48.0556C104.756 49.3149 105.68 51.5755 106.048 53.1542C106.28 54.1616 106.28 54.8803 106.28 54.8803H89.6216C89.6216 54.8803 85.2458 40.6535 95.7906 37.2503C102.241 35.1679 111.886 38.6079 111.886 40.5183Z" fill="white" stroke="#FFCF2D" stroke-width="0.5" stroke-miterlimit="10" stroke-linecap="round"/>
<path d="M94.2482 39.2774C96.5365 39.2774 98.3915 37.4155 98.3915 35.1187C98.3915 32.8219 96.5365 30.96 94.2482 30.96C91.96 30.96 90.105 32.8219 90.105 35.1187C90.105 37.4155 91.96 39.2774 94.2482 39.2774Z" fill="white" stroke="#FFCF2D" stroke-width="0.5" stroke-miterlimit="10" stroke-linecap="round"/>
<path d="M106.042 53.154C105.699 51.6613 104.842 49.5359 102.731 48.252H102.186C101.684 48.252 101.225 48.0493 100.895 47.7176C100.564 47.3859 100.362 46.9252 100.362 46.4215C100.362 45.4079 101.176 44.5909 102.186 44.5909L104.493 44.64H104.555C104.598 44.6278 104.64 44.6093 104.689 44.597C105.314 44.4619 107.29 43.9827 108.93 43.1596L109.12 44.296L109.732 47.9388C110.148 50.4389 108.441 52.7425 106.042 53.154Z" fill="#A0505A"/>
<path d="M109.114 44.29C107.107 45.107 104.487 44.634 104.487 44.634C104.487 44.634 106.954 44.1426 108.924 43.1536L109.114 44.29Z" fill="#73325A"/>
<path d="M103.606 46.7717C103.606 46.0714 103.043 45.5062 102.345 45.5062" stroke="#73325A" stroke-width="0.5" stroke-miterlimit="10" stroke-linecap="round"/>
<path d="M110.087 124.688L117.192 184.04" stroke="#66B0F0" stroke-width="0.5" stroke-miterlimit="10"/>
<path d="M79.2846 124.688L72.1854 184.04" stroke="#66B0F0" stroke-width="0.5" stroke-miterlimit="10"/>
<path d="M74.6214 163.658H114.75" stroke="#66B0F0" stroke-width="0.5" stroke-miterlimit="10"/>
<path d="M73.1096 124.688H116.262C116.776 124.688 117.192 124.27 117.192 123.754V122.489C117.192 121.973 116.776 121.555 116.262 121.555H73.1096C72.5956 121.555 72.1794 121.973 72.1794 122.489V123.754C72.1855 124.27 72.6017 124.688 73.1096 124.688Z" fill="white" stroke="#FFCF2D" stroke-width="0.5" stroke-miterlimit="10"/>
</svg>
