<svg width="18" height="21" viewBox="0 0 18 21" fill="none" xmlns="http://www.w3.org/2000/svg">
<path d="M15.3481 7H14.3V5C14.3 2.24 11.9521 0 9.05926 0C6.16637 0 3.81852 2.24 3.81852 5V7H2.77037C1.61741 7 0.674072 7.9 0.674072 9V19C0.674072 20.1 1.61741 21 2.77037 21H15.3481C16.5011 21 17.4444 20.1 17.4444 19V9C17.4444 7.9 16.5011 7 15.3481 7ZM9.05926 16C7.90629 16 6.96296 15.1 6.96296 14C6.96296 12.9 7.90629 12 9.05926 12C10.2122 12 11.1556 12.9 11.1556 14C11.1556 15.1 10.2122 16 9.05926 16ZM12.3085 7H5.81V5C5.81 3.29 7.26692 1.9 9.05926 1.9C10.8516 1.9 12.3085 3.29 12.3085 5V7Z" fill="white"/>
</svg>
