<svg width="40" height="30" viewBox="0 0 40 30" fill="none" xmlns="http://www.w3.org/2000/svg">
<path d="M37.4934 30H2.50741C1.12527 30 0 28.9226 0 27.5978V9.13786C0 7.81298 1.12527 6.73557 2.50741 6.73557H37.4926C38.8755 6.73557 40 7.81298 40 9.13786V27.5978C40.0008 28.9226 38.8755 30 37.4934 30ZM2.50741 8.25918C2.00163 8.25918 1.59049 8.65359 1.59049 9.13786V27.5978C1.59049 28.082 2.00163 28.4764 2.50741 28.4764H37.4926C37.9984 28.4764 38.4095 28.082 38.4095 27.5978V9.13786C38.4095 8.65359 37.9984 8.25918 37.4926 8.25918H2.50741Z" fill="#3D4451"/>
<path d="M35.9777 26.4488H4.27452C3.97869 26.4488 3.73853 26.2188 3.73853 25.9356V10.5602C3.73853 10.4094 3.86576 10.2876 4.02322 10.2876H35.9785C36.136 10.2876 36.2632 10.4094 36.2632 10.5602V26.1754C36.2632 26.3262 36.1352 26.4488 35.9777 26.4488Z" fill="#3D4451"/>
<path d="M35.9777 27.2102H4.27448C3.54047 27.2102 2.94324 26.6384 2.94324 25.9348V10.5602C2.94324 9.9899 3.42754 9.52543 4.02318 9.52543H35.9785C36.5741 9.52543 37.0584 9.9899 37.0584 10.5602V26.1754C37.0584 26.7457 36.5733 27.2102 35.9777 27.2102ZM4.53293 25.6866H35.4679V11.049H4.53293V25.6866Z" fill="#3D4451"/>
<path d="M20.0004 1.63096C20.4704 1.63096 20.8514 1.26586 20.8514 0.815482C20.8514 0.365104 20.4704 0 20.0004 0C19.5305 0 19.1495 0.365104 19.1495 0.815482C19.1495 1.26586 19.5305 1.63096 20.0004 1.63096Z" fill="#3D4451"/>
<path d="M20.1016 0.680314L19.8989 0.915075L27.3649 6.82361L27.5676 6.58885L20.1016 0.680314Z" fill="#3D4451"/>
<path d="M1.53625 7.65682L1.13428 8.02554L3.58134 10.4712L3.98332 10.1024L1.53625 7.65682Z" fill="#3D4451"/>
<path d="M3.54678 26.2763L1.14392 29.0033L1.56938 29.347L3.97224 26.6199L3.54678 26.2763Z" fill="#3D4451"/>
<path d="M36.2148 26.2856L35.7771 26.6149L37.9626 29.2771L38.4003 28.9477L36.2148 26.2856Z" fill="#3D4451"/>
<path d="M38.4243 7.63789L35.3934 10.0833L35.7522 10.4909L38.783 8.04548L38.4243 7.63789Z" fill="#3D4451"/>
<path d="M19.9003 0.648569L12.4924 6.62388L12.6974 6.85681L20.1053 0.881504L19.9003 0.648569Z" fill="#3D4451"/>
</svg>
