<svg width="150" height="117" viewBox="0 0 150 117" fill="none" xmlns="http://www.w3.org/2000/svg">
<path d="M140.6 117H9.40277C4.21977 117 0 112.798 0 107.631V35.6378C0 30.4708 4.21977 26.2689 9.40277 26.2689H140.597C145.783 26.2689 150 30.4708 150 35.6378V107.631C150.003 112.798 145.783 117 140.6 117ZM9.40277 32.211C7.50611 32.211 5.96433 33.7492 5.96433 35.6378V107.631C5.96433 109.52 7.50611 111.058 9.40277 111.058H140.597C142.494 111.058 144.036 109.52 144.036 107.631V35.6378C144.036 33.7492 142.494 32.211 140.597 32.211H9.40277Z" fill="#35363A"/>
<path d="M134.916 103.15H16.029C14.9197 103.15 14.019 102.253 14.019 101.148V41.1843C14.019 40.5963 14.4962 40.1212 15.0867 40.1212H134.919C135.51 40.1212 135.987 40.5963 135.987 41.1843V102.084C135.987 102.672 135.507 103.15 134.916 103.15Z" fill="#35363A"/>
<path d="M134.916 106.119H16.0291C13.2766 106.119 11.037 103.889 11.037 101.145V41.1844C11.037 38.9602 12.8531 37.1488 15.0868 37.1488H134.919C137.153 37.1488 138.969 38.9602 138.969 41.1844V102.084C138.969 104.308 137.15 106.119 134.916 106.119ZM16.9983 100.177H133.005V43.0908H16.9983V100.177Z" fill="#35363A"/>
<path d="M75.0016 6.36074C76.7639 6.36074 78.1925 4.93684 78.1925 3.18037C78.1925 1.4239 76.7639 0 75.0016 0C73.2393 0 71.8107 1.4239 71.8107 3.18037C71.8107 4.93684 73.2393 6.36074 75.0016 6.36074Z" fill="black"/>
<path d="M75.3807 2.65291L74.6207 3.56848L102.618 26.6117L103.378 25.6961L75.3807 2.65291Z" fill="black"/>
<path d="M5.76094 29.862L4.25354 31.3L13.43 40.8379L14.9374 39.3999L5.76094 29.862Z" fill="#35363A"/>
<path d="M13.3003 102.477L4.28955 113.112L5.88504 114.453L14.8958 103.817L13.3003 102.477Z" fill="#35363A"/>
<path d="M135.805 102.513L134.164 103.798L142.36 114.18L144.001 112.895L135.805 102.513Z" fill="#35363A"/>
<path d="M144.091 29.7874L132.726 39.3246L134.071 40.9141L145.437 31.3769L144.091 29.7874Z" fill="#35363A"/>
<path d="M74.6264 2.52985L46.8467 25.8335L47.6152 26.7419L75.3949 3.43829L74.6264 2.52985Z" fill="black"/>
</svg>
