<svg width="72" height="57" viewBox="0 0 72 57" fill="none" xmlns="http://www.w3.org/2000/svg">
<path d="M67.4881 57.0001H4.51333C2.02549 57.0001 0 54.953 0 52.4358V17.3619C0 14.8447 2.02549 12.7976 4.51333 12.7976H67.4867C69.9759 12.7976 72 14.8447 72 17.3619V52.4358C72.0014 54.953 69.9759 57.0001 67.4881 57.0001ZM4.51333 15.6925C3.60293 15.6925 2.86288 16.4418 2.86288 17.3619V52.4358C2.86288 53.3559 3.60293 54.1052 4.51333 54.1052H67.4867C68.3971 54.1052 69.1371 53.3559 69.1371 52.4358V17.3619C69.1371 16.4418 68.3971 15.6925 67.4867 15.6925H4.51333Z" fill="#006699"/>
<path d="M64.7598 50.2526H7.69398C7.16148 50.2526 6.72919 49.8157 6.72919 49.2775V20.0643C6.72919 19.7779 6.95822 19.5464 7.24164 19.5464H64.7612C65.0446 19.5464 65.2736 19.7779 65.2736 20.0643V49.7333C65.2736 50.0197 65.0432 50.2526 64.7598 50.2526Z" fill="#006699"/>
<path d="M64.7598 51.6992H7.69402C6.3728 51.6992 5.29779 50.6127 5.29779 49.276V20.0642C5.29779 18.9806 6.16954 18.0981 7.24169 18.0981H64.7612C65.8334 18.0981 66.7051 18.9806 66.7051 20.0642V49.7331C66.7051 50.8167 65.832 51.6992 64.7598 51.6992ZM8.15924 48.8044H63.8423V20.993H8.15924V48.8044Z" fill="#006699"/>
<path d="M36.0007 3.09883C36.8466 3.09883 37.5324 2.40513 37.5324 1.54942C37.5324 0.693697 36.8466 0 36.0007 0C35.1549 0 34.4691 0.693697 34.4691 1.54942C34.4691 2.40513 35.1549 3.09883 36.0007 3.09883Z" fill="black"/>
<path d="M36.1828 1.29248L35.818 1.73853L49.2568 12.9647L49.6216 12.5187L36.1828 1.29248Z" fill="black"/>
<path d="M2.76524 14.548L2.04169 15.2485L6.44641 19.8952L7.16996 19.1946L2.76524 14.548Z" fill="#006699"/>
<path d="M6.3841 49.9251L2.05896 55.1064L2.82479 55.7594L7.14994 50.5781L6.3841 49.9251Z" fill="#006699"/>
<path d="M65.1865 49.9425L64.3987 50.5684L68.3327 55.6264L69.1205 55.0005L65.1865 49.9425Z" fill="#006699"/>
<path d="M69.1638 14.5121L63.7083 19.1584L64.3539 19.9329L69.8095 15.2865L69.1638 14.5121Z" fill="#006699"/>
<path d="M35.8207 1.2326L22.4865 12.5857L22.8554 13.0283L36.1896 1.67518L35.8207 1.2326Z" fill="black"/>
</svg>
